<svg width="11" height="10" viewBox="0 0 11 10" fill="none" xmlns="http://www.w3.org/2000/svg">
<path d="M6.55981 0.625C6.55981 0.279825 6.28 0 5.93481 0C5.58963 0 5.30981 0.279825 5.30981 0.625V4.375H1.55981C1.21464 4.375 0.934814 4.65481 0.934814 5C0.934814 5.34519 1.21464 5.625 1.55981 5.625H5.30981V9.375C5.30981 9.72019 5.58963 10 5.93481 10C6.28 10 6.55981 9.72019 6.55981 9.375V5.625H10.3098C10.655 5.625 10.9348 5.34519 10.9348 5C10.9348 4.65481 10.655 4.375 10.3098 4.375H6.55981V0.625Z" fill="#C9C9C9"/>
</svg>
