<svg width="400" height="380" viewBox="0 0 400 380" fill="none" xmlns="http://www.w3.org/2000/svg">
<rect width="400" height="380" fill="white"/>
<circle cx="13" cy="14" r="1" fill="#D9D9D9"/>
<circle cx="35" cy="14" r="1" fill="#D9D9D9"/>
<circle cx="57" cy="14" r="1" fill="#D9D9D9"/>
<circle cx="79" cy="14" r="1" fill="#D9D9D9"/>
<circle cx="101" cy="14" r="1" fill="#D9D9D9"/>
<circle cx="123" cy="14" r="1" fill="#D9D9D9"/>
<circle cx="145" cy="14" r="1" fill="#D9D9D9"/>
<circle cx="167" cy="14" r="1" fill="#D9D9D9"/>
<circle cx="189" cy="14" r="1" fill="#D9D9D9"/>
<circle cx="211" cy="14" r="1" fill="#D9D9D9"/>
<circle cx="233" cy="14" r="1" fill="#D9D9D9"/>
<circle cx="255" cy="14" r="1" fill="#D9D9D9"/>
<circle cx="277" cy="14" r="1" fill="#D9D9D9"/>
<circle cx="299" cy="14" r="1" fill="#D9D9D9"/>
<circle cx="321" cy="14" r="1" fill="#D9D9D9"/>
<circle cx="343" cy="14" r="1" fill="#D9D9D9"/>
<circle cx="365" cy="14" r="1" fill="#D9D9D9"/>
<circle cx="387" cy="14" r="1" fill="#D9D9D9"/>
<circle cx="13" cy="36" r="1" fill="#D9D9D9"/>
<circle cx="35" cy="36" r="1" fill="#D9D9D9"/>
<circle cx="57" cy="36" r="1" fill="#D9D9D9"/>
<circle cx="79" cy="36" r="1" fill="#D9D9D9"/>
<circle cx="101" cy="36" r="1" fill="#D9D9D9"/>
<circle cx="123" cy="36" r="1" fill="#D9D9D9"/>
<circle cx="145" cy="36" r="1" fill="#D9D9D9"/>
<circle cx="167" cy="36" r="1" fill="#D9D9D9"/>
<circle cx="189" cy="36" r="1" fill="#D9D9D9"/>
<circle cx="211" cy="36" r="1" fill="#D9D9D9"/>
<circle cx="233" cy="36" r="1" fill="#D9D9D9"/>
<circle cx="255" cy="36" r="1" fill="#D9D9D9"/>
<circle cx="277" cy="36" r="1" fill="#D9D9D9"/>
<circle cx="299" cy="36" r="1" fill="#D9D9D9"/>
<circle cx="321" cy="36" r="1" fill="#D9D9D9"/>
<circle cx="343" cy="36" r="1" fill="#D9D9D9"/>
<circle cx="365" cy="36" r="1" fill="#D9D9D9"/>
<circle cx="387" cy="36" r="1" fill="#D9D9D9"/>
<circle cx="13" cy="58" r="1" fill="#D9D9D9"/>
<circle cx="35" cy="58" r="1" fill="#D9D9D9"/>
<circle cx="57" cy="58" r="1" fill="#D9D9D9"/>
<circle cx="79" cy="58" r="1" fill="#D9D9D9"/>
<circle cx="101" cy="58" r="1" fill="#D9D9D9"/>
<circle cx="123" cy="58" r="1" fill="#D9D9D9"/>
<circle cx="145" cy="58" r="1" fill="#D9D9D9"/>
<circle cx="167" cy="58" r="1" fill="#D9D9D9"/>
<circle cx="189" cy="58" r="1" fill="#D9D9D9"/>
<circle cx="211" cy="58" r="1" fill="#D9D9D9"/>
<circle cx="233" cy="58" r="1" fill="#D9D9D9"/>
<circle cx="255" cy="58" r="1" fill="#D9D9D9"/>
<circle cx="277" cy="58" r="1" fill="#D9D9D9"/>
<circle cx="299" cy="58" r="1" fill="#D9D9D9"/>
<circle cx="321" cy="58" r="1" fill="#D9D9D9"/>
<circle cx="343" cy="58" r="1" fill="#D9D9D9"/>
<circle cx="365" cy="58" r="1" fill="#D9D9D9"/>
<circle cx="387" cy="58" r="1" fill="#D9D9D9"/>
<circle cx="13" cy="80" r="1" fill="#D9D9D9"/>
<circle cx="35" cy="80" r="1" fill="#D9D9D9"/>
<circle cx="57" cy="80" r="1" fill="#D9D9D9"/>
<circle cx="79" cy="80" r="1" fill="#D9D9D9"/>
<circle cx="101" cy="80" r="1" fill="#D9D9D9"/>
<circle cx="123" cy="80" r="1" fill="#D9D9D9"/>
<circle cx="145" cy="80" r="1" fill="#D9D9D9"/>
<circle cx="167" cy="80" r="1" fill="#D9D9D9"/>
<circle cx="189" cy="80" r="1" fill="#D9D9D9"/>
<circle cx="211" cy="80" r="1" fill="#D9D9D9"/>
<circle cx="233" cy="80" r="1" fill="#D9D9D9"/>
<circle cx="255" cy="80" r="1" fill="#D9D9D9"/>
<circle cx="277" cy="80" r="1" fill="#D9D9D9"/>
<circle cx="299" cy="80" r="1" fill="#D9D9D9"/>
<circle cx="321" cy="80" r="1" fill="#D9D9D9"/>
<circle cx="343" cy="80" r="1" fill="#D9D9D9"/>
<circle cx="365" cy="80" r="1" fill="#D9D9D9"/>
<circle cx="387" cy="80" r="1" fill="#D9D9D9"/>
<circle cx="13" cy="102" r="1" fill="#D9D9D9"/>
<circle cx="35" cy="102" r="1" fill="#D9D9D9"/>
<circle cx="57" cy="102" r="1" fill="#D9D9D9"/>
<circle cx="79" cy="102" r="1" fill="#D9D9D9"/>
<circle cx="101" cy="102" r="1" fill="#D9D9D9"/>
<circle cx="123" cy="102" r="1" fill="#D9D9D9"/>
<circle cx="145" cy="102" r="1" fill="#D9D9D9"/>
<circle cx="167" cy="102" r="1" fill="#D9D9D9"/>
<circle cx="189" cy="102" r="1" fill="#D9D9D9"/>
<circle cx="211" cy="102" r="1" fill="#D9D9D9"/>
<circle cx="233" cy="102" r="1" fill="#D9D9D9"/>
<circle cx="255" cy="102" r="1" fill="#D9D9D9"/>
<circle cx="277" cy="102" r="1" fill="#D9D9D9"/>
<circle cx="299" cy="102" r="1" fill="#D9D9D9"/>
<circle cx="321" cy="102" r="1" fill="#D9D9D9"/>
<circle cx="343" cy="102" r="1" fill="#D9D9D9"/>
<circle cx="365" cy="102" r="1" fill="#D9D9D9"/>
<circle cx="387" cy="102" r="1" fill="#D9D9D9"/>
<circle cx="13" cy="124" r="1" fill="#D9D9D9"/>
<circle cx="35" cy="124" r="1" fill="#D9D9D9"/>
<circle cx="57" cy="124" r="1" fill="#D9D9D9"/>
<circle cx="79" cy="124" r="1" fill="#D9D9D9"/>
<circle cx="101" cy="124" r="1" fill="#D9D9D9"/>
<circle cx="123" cy="124" r="1" fill="#D9D9D9"/>
<circle cx="145" cy="124" r="1" fill="#D9D9D9"/>
<circle cx="167" cy="124" r="1" fill="#D9D9D9"/>
<circle cx="189" cy="124" r="1" fill="#D9D9D9"/>
<circle cx="211" cy="124" r="1" fill="#D9D9D9"/>
<circle cx="233" cy="124" r="1" fill="#D9D9D9"/>
<circle cx="255" cy="124" r="1" fill="#D9D9D9"/>
<circle cx="277" cy="124" r="1" fill="#D9D9D9"/>
<circle cx="299" cy="124" r="1" fill="#D9D9D9"/>
<circle cx="321" cy="124" r="1" fill="#D9D9D9"/>
<circle cx="343" cy="124" r="1" fill="#D9D9D9"/>
<circle cx="365" cy="124" r="1" fill="#D9D9D9"/>
<circle cx="387" cy="124" r="1" fill="#D9D9D9"/>
<circle cx="13" cy="146" r="1" fill="#D9D9D9"/>
<circle cx="35" cy="146" r="1" fill="#D9D9D9"/>
<circle cx="57" cy="146" r="1" fill="#D9D9D9"/>
<circle cx="79" cy="146" r="1" fill="#D9D9D9"/>
<circle cx="101" cy="146" r="1" fill="#D9D9D9"/>
<circle cx="123" cy="146" r="1" fill="#D9D9D9"/>
<circle cx="145" cy="146" r="1" fill="#D9D9D9"/>
<circle cx="167" cy="146" r="1" fill="#D9D9D9"/>
<circle cx="189" cy="146" r="1" fill="#D9D9D9"/>
<circle cx="211" cy="146" r="1" fill="#D9D9D9"/>
<circle cx="233" cy="146" r="1" fill="#D9D9D9"/>
<circle cx="255" cy="146" r="1" fill="#D9D9D9"/>
<circle cx="277" cy="146" r="1" fill="#D9D9D9"/>
<circle cx="299" cy="146" r="1" fill="#D9D9D9"/>
<circle cx="321" cy="146" r="1" fill="#D9D9D9"/>
<circle cx="343" cy="146" r="1" fill="#D9D9D9"/>
<circle cx="365" cy="146" r="1" fill="#D9D9D9"/>
<circle cx="387" cy="146" r="1" fill="#D9D9D9"/>
<circle cx="13" cy="168" r="1" fill="#D9D9D9"/>
<circle cx="35" cy="168" r="1" fill="#D9D9D9"/>
<circle cx="57" cy="168" r="1" fill="#D9D9D9"/>
<circle cx="79" cy="168" r="1" fill="#D9D9D9"/>
<circle cx="101" cy="168" r="1" fill="#D9D9D9"/>
<circle cx="123" cy="168" r="1" fill="#D9D9D9"/>
<circle cx="145" cy="168" r="1" fill="#D9D9D9"/>
<circle cx="167" cy="168" r="1" fill="#D9D9D9"/>
<circle cx="189" cy="168" r="1" fill="#D9D9D9"/>
<circle cx="211" cy="168" r="1" fill="#D9D9D9"/>
<circle cx="233" cy="168" r="1" fill="#D9D9D9"/>
<circle cx="255" cy="168" r="1" fill="#D9D9D9"/>
<circle cx="277" cy="168" r="1" fill="#D9D9D9"/>
<circle cx="299" cy="168" r="1" fill="#D9D9D9"/>
<circle cx="321" cy="168" r="1" fill="#D9D9D9"/>
<circle cx="343" cy="168" r="1" fill="#D9D9D9"/>
<circle cx="365" cy="168" r="1" fill="#D9D9D9"/>
<circle cx="387" cy="168" r="1" fill="#D9D9D9"/>
<circle cx="13" cy="190" r="1" fill="#D9D9D9"/>
<circle cx="35" cy="190" r="1" fill="#D9D9D9"/>
<circle cx="57" cy="190" r="1" fill="#D9D9D9"/>
<circle cx="79" cy="190" r="1" fill="#D9D9D9"/>
<circle cx="101" cy="190" r="1" fill="#D9D9D9"/>
<circle cx="123" cy="190" r="1" fill="#D9D9D9"/>
<circle cx="145" cy="190" r="1" fill="#D9D9D9"/>
<circle cx="167" cy="190" r="1" fill="#D9D9D9"/>
<circle cx="189" cy="190" r="1" fill="#D9D9D9"/>
<circle cx="211" cy="190" r="1" fill="#D9D9D9"/>
<circle cx="233" cy="190" r="1" fill="#D9D9D9"/>
<circle cx="255" cy="190" r="1" fill="#D9D9D9"/>
<circle cx="277" cy="190" r="1" fill="#D9D9D9"/>
<circle cx="299" cy="190" r="1" fill="#D9D9D9"/>
<circle cx="321" cy="190" r="1" fill="#D9D9D9"/>
<circle cx="343" cy="190" r="1" fill="#D9D9D9"/>
<circle cx="365" cy="190" r="1" fill="#D9D9D9"/>
<circle cx="387" cy="190" r="1" fill="#D9D9D9"/>
<circle cx="13" cy="212" r="1" fill="#D9D9D9"/>
<circle cx="35" cy="212" r="1" fill="#D9D9D9"/>
<circle cx="57" cy="212" r="1" fill="#D9D9D9"/>
<circle cx="79" cy="212" r="1" fill="#D9D9D9"/>
<circle cx="101" cy="212" r="1" fill="#D9D9D9"/>
<circle cx="123" cy="212" r="1" fill="#D9D9D9"/>
<circle cx="145" cy="212" r="1" fill="#D9D9D9"/>
<circle cx="167" cy="212" r="1" fill="#D9D9D9"/>
<circle cx="189" cy="212" r="1" fill="#D9D9D9"/>
<circle cx="211" cy="212" r="1" fill="#D9D9D9"/>
<circle cx="233" cy="212" r="1" fill="#D9D9D9"/>
<circle cx="255" cy="212" r="1" fill="#D9D9D9"/>
<circle cx="277" cy="212" r="1" fill="#D9D9D9"/>
<circle cx="299" cy="212" r="1" fill="#D9D9D9"/>
<circle cx="321" cy="212" r="1" fill="#D9D9D9"/>
<circle cx="343" cy="212" r="1" fill="#D9D9D9"/>
<circle cx="365" cy="212" r="1" fill="#D9D9D9"/>
<circle cx="387" cy="212" r="1" fill="#D9D9D9"/>
<circle cx="13" cy="234" r="1" fill="#D9D9D9"/>
<circle cx="35" cy="234" r="1" fill="#D9D9D9"/>
<circle cx="57" cy="234" r="1" fill="#D9D9D9"/>
<circle cx="79" cy="234" r="1" fill="#D9D9D9"/>
<circle cx="101" cy="234" r="1" fill="#D9D9D9"/>
<circle cx="123" cy="234" r="1" fill="#D9D9D9"/>
<circle cx="145" cy="234" r="1" fill="#D9D9D9"/>
<circle cx="167" cy="234" r="1" fill="#D9D9D9"/>
<circle cx="189" cy="234" r="1" fill="#D9D9D9"/>
<circle cx="211" cy="234" r="1" fill="#D9D9D9"/>
<circle cx="233" cy="234" r="1" fill="#D9D9D9"/>
<circle cx="255" cy="234" r="1" fill="#D9D9D9"/>
<circle cx="277" cy="234" r="1" fill="#D9D9D9"/>
<circle cx="299" cy="234" r="1" fill="#D9D9D9"/>
<circle cx="321" cy="234" r="1" fill="#D9D9D9"/>
<circle cx="343" cy="234" r="1" fill="#D9D9D9"/>
<circle cx="365" cy="234" r="1" fill="#D9D9D9"/>
<circle cx="387" cy="234" r="1" fill="#D9D9D9"/>
<circle cx="13" cy="256" r="1" fill="#D9D9D9"/>
<circle cx="35" cy="256" r="1" fill="#D9D9D9"/>
<circle cx="57" cy="256" r="1" fill="#D9D9D9"/>
<circle cx="79" cy="256" r="1" fill="#D9D9D9"/>
<circle cx="101" cy="256" r="1" fill="#D9D9D9"/>
<circle cx="123" cy="256" r="1" fill="#D9D9D9"/>
<circle cx="145" cy="256" r="1" fill="#D9D9D9"/>
<circle cx="167" cy="256" r="1" fill="#D9D9D9"/>
<circle cx="189" cy="256" r="1" fill="#D9D9D9"/>
<circle cx="211" cy="256" r="1" fill="#D9D9D9"/>
<circle cx="233" cy="256" r="1" fill="#D9D9D9"/>
<circle cx="255" cy="256" r="1" fill="#D9D9D9"/>
<circle cx="277" cy="256" r="1" fill="#D9D9D9"/>
<circle cx="299" cy="256" r="1" fill="#D9D9D9"/>
<circle cx="321" cy="256" r="1" fill="#D9D9D9"/>
<circle cx="343" cy="256" r="1" fill="#D9D9D9"/>
<circle cx="365" cy="256" r="1" fill="#D9D9D9"/>
<circle cx="387" cy="256" r="1" fill="#D9D9D9"/>
<circle cx="13" cy="278" r="1" fill="#D9D9D9"/>
<circle cx="35" cy="278" r="1" fill="#D9D9D9"/>
<circle cx="57" cy="278" r="1" fill="#D9D9D9"/>
<circle cx="79" cy="278" r="1" fill="#D9D9D9"/>
<circle cx="101" cy="278" r="1" fill="#D9D9D9"/>
<circle cx="123" cy="278" r="1" fill="#D9D9D9"/>
<circle cx="145" cy="278" r="1" fill="#D9D9D9"/>
<circle cx="167" cy="278" r="1" fill="#D9D9D9"/>
<circle cx="189" cy="278" r="1" fill="#D9D9D9"/>
<circle cx="211" cy="278" r="1" fill="#D9D9D9"/>
<circle cx="233" cy="278" r="1" fill="#D9D9D9"/>
<circle cx="255" cy="278" r="1" fill="#D9D9D9"/>
<circle cx="277" cy="278" r="1" fill="#D9D9D9"/>
<circle cx="299" cy="278" r="1" fill="#D9D9D9"/>
<circle cx="321" cy="278" r="1" fill="#D9D9D9"/>
<circle cx="343" cy="278" r="1" fill="#D9D9D9"/>
<circle cx="365" cy="278" r="1" fill="#D9D9D9"/>
<circle cx="387" cy="278" r="1" fill="#D9D9D9"/>
<circle cx="13" cy="300" r="1" fill="#D9D9D9"/>
<circle cx="35" cy="300" r="1" fill="#D9D9D9"/>
<circle cx="57" cy="300" r="1" fill="#D9D9D9"/>
<circle cx="79" cy="300" r="1" fill="#D9D9D9"/>
<circle cx="101" cy="300" r="1" fill="#D9D9D9"/>
<circle cx="123" cy="300" r="1" fill="#D9D9D9"/>
<circle cx="145" cy="300" r="1" fill="#D9D9D9"/>
<circle cx="167" cy="300" r="1" fill="#D9D9D9"/>
<circle cx="189" cy="300" r="1" fill="#D9D9D9"/>
<circle cx="211" cy="300" r="1" fill="#D9D9D9"/>
<circle cx="233" cy="300" r="1" fill="#D9D9D9"/>
<circle cx="255" cy="300" r="1" fill="#D9D9D9"/>
<circle cx="277" cy="300" r="1" fill="#D9D9D9"/>
<circle cx="299" cy="300" r="1" fill="#D9D9D9"/>
<circle cx="321" cy="300" r="1" fill="#D9D9D9"/>
<circle cx="343" cy="300" r="1" fill="#D9D9D9"/>
<circle cx="365" cy="300" r="1" fill="#D9D9D9"/>
<circle cx="387" cy="300" r="1" fill="#D9D9D9"/>
<circle cx="13" cy="322" r="1" fill="#D9D9D9"/>
<circle cx="35" cy="322" r="1" fill="#D9D9D9"/>
<circle cx="57" cy="322" r="1" fill="#D9D9D9"/>
<circle cx="79" cy="322" r="1" fill="#D9D9D9"/>
<circle cx="101" cy="322" r="1" fill="#D9D9D9"/>
<circle cx="123" cy="322" r="1" fill="#D9D9D9"/>
<circle cx="145" cy="322" r="1" fill="#D9D9D9"/>
<circle cx="167" cy="322" r="1" fill="#D9D9D9"/>
<circle cx="189" cy="322" r="1" fill="#D9D9D9"/>
<circle cx="211" cy="322" r="1" fill="#D9D9D9"/>
<circle cx="233" cy="322" r="1" fill="#D9D9D9"/>
<circle cx="255" cy="322" r="1" fill="#D9D9D9"/>
<circle cx="277" cy="322" r="1" fill="#D9D9D9"/>
<circle cx="299" cy="322" r="1" fill="#D9D9D9"/>
<circle cx="321" cy="322" r="1" fill="#D9D9D9"/>
<circle cx="343" cy="322" r="1" fill="#D9D9D9"/>
<circle cx="365" cy="322" r="1" fill="#D9D9D9"/>
<circle cx="387" cy="322" r="1" fill="#D9D9D9"/>
<circle cx="13" cy="344" r="1" fill="#D9D9D9"/>
<circle cx="35" cy="344" r="1" fill="#D9D9D9"/>
<circle cx="57" cy="344" r="1" fill="#D9D9D9"/>
<circle cx="79" cy="344" r="1" fill="#D9D9D9"/>
<circle cx="101" cy="344" r="1" fill="#D9D9D9"/>
<circle cx="123" cy="344" r="1" fill="#D9D9D9"/>
<circle cx="145" cy="344" r="1" fill="#D9D9D9"/>
<circle cx="167" cy="344" r="1" fill="#D9D9D9"/>
<circle cx="189" cy="344" r="1" fill="#D9D9D9"/>
<circle cx="211" cy="344" r="1" fill="#D9D9D9"/>
<circle cx="233" cy="344" r="1" fill="#D9D9D9"/>
<circle cx="255" cy="344" r="1" fill="#D9D9D9"/>
<circle cx="277" cy="344" r="1" fill="#D9D9D9"/>
<circle cx="299" cy="344" r="1" fill="#D9D9D9"/>
<circle cx="321" cy="344" r="1" fill="#D9D9D9"/>
<circle cx="343" cy="344" r="1" fill="#D9D9D9"/>
<circle cx="365" cy="344" r="1" fill="#D9D9D9"/>
<circle cx="387" cy="344" r="1" fill="#D9D9D9"/>
<circle cx="13" cy="366" r="1" fill="#D9D9D9"/>
<circle cx="35" cy="366" r="1" fill="#D9D9D9"/>
<circle cx="57" cy="366" r="1" fill="#D9D9D9"/>
<circle cx="79" cy="366" r="1" fill="#D9D9D9"/>
<circle cx="101" cy="366" r="1" fill="#D9D9D9"/>
<circle cx="123" cy="366" r="1" fill="#D9D9D9"/>
<circle cx="145" cy="366" r="1" fill="#D9D9D9"/>
<circle cx="167" cy="366" r="1" fill="#D9D9D9"/>
<circle cx="189" cy="366" r="1" fill="#D9D9D9"/>
<circle cx="211" cy="366" r="1" fill="#D9D9D9"/>
<circle cx="233" cy="366" r="1" fill="#D9D9D9"/>
<circle cx="255" cy="366" r="1" fill="#D9D9D9"/>
<circle cx="277" cy="366" r="1" fill="#D9D9D9"/>
<circle cx="299" cy="366" r="1" fill="#D9D9D9"/>
<circle cx="321" cy="366" r="1" fill="#D9D9D9"/>
<circle cx="343" cy="366" r="1" fill="#D9D9D9"/>
<circle cx="365" cy="366" r="1" fill="#D9D9D9"/>
<circle cx="387" cy="366" r="1" fill="#D9D9D9"/>
</svg>
