<svg width="32" height="33" viewBox="0 0 32 33" fill="none" xmlns="http://www.w3.org/2000/svg">
<path d="M26.8889 8.48226V24.6879M5.11111 8.48226V24.6879M23.7778 5.24113H8.22222M23.7778 27.929H8.22222M4.48889 8.48226H5.73333C6.60452 8.48226 7.04012 8.48226 7.37287 8.30564C7.66557 8.15026 7.90354 7.90234 8.05268 7.59742C8.22222 7.25076 8.22222 6.79695 8.22222 5.88936V4.5929C8.22222 3.68531 8.22222 3.2315 8.05268 2.88484C7.90354 2.57992 7.66557 2.33201 7.37287 2.17663C7.04012 2 6.60452 2 5.73333 2H4.48889C3.6177 2 3.1821 2 2.84935 2.17663C2.55666 2.33201 2.31869 2.57992 2.16954 2.88484C2 3.2315 2 3.68531 2 4.5929V5.88936C2 6.79695 2 7.25076 2.16954 7.59742C2.31869 7.90234 2.55666 8.15026 2.84935 8.30564C3.1821 8.48226 3.6177 8.48226 4.48889 8.48226ZM4.48889 31.1702H5.73333C6.60452 31.1702 7.04012 31.1702 7.37287 30.9935C7.66557 30.8381 7.90354 30.5903 8.05268 30.2853C8.22222 29.9387 8.22222 29.4849 8.22222 28.5773V27.2808C8.22222 26.3731 8.22222 25.9194 8.05268 25.5727C7.90354 25.2678 7.66557 25.02 7.37287 24.8646C7.04012 24.6879 6.60452 24.6879 5.73333 24.6879H4.48889C3.6177 24.6879 3.1821 24.6879 2.84935 24.8646C2.55666 25.02 2.31869 25.2678 2.16954 25.5727C2 25.9194 2 26.3731 2 27.2808V28.5773C2 29.4849 2 29.9387 2.16954 30.2853C2.31869 30.5903 2.55666 30.8381 2.84935 30.9935C3.1821 31.1702 3.6177 31.1702 4.48889 31.1702ZM26.2667 8.48226H27.5111C28.3824 8.48226 28.8179 8.48226 29.1507 8.30564C29.4434 8.15026 29.6813 7.90234 29.8304 7.59742C30 7.25076 30 6.79695 30 5.88936V4.5929C30 3.68531 30 3.2315 29.8304 2.88484C29.6813 2.57992 29.4434 2.33201 29.1507 2.17663C28.8179 2 28.3824 2 27.5111 2H26.2667C25.3954 2 24.9598 2 24.6271 2.17663C24.3344 2.33201 24.0965 2.57992 23.9473 2.88484C23.7778 3.2315 23.7778 3.68531 23.7778 4.5929V5.88936C23.7778 6.79695 23.7778 7.25076 23.9473 7.59742C24.0965 7.90234 24.3344 8.15026 24.6271 8.30564C24.9598 8.48226 25.3954 8.48226 26.2667 8.48226ZM26.2667 31.1702H27.5111C28.3824 31.1702 28.8179 31.1702 29.1507 30.9935C29.4434 30.8381 29.6813 30.5903 29.8304 30.2853C30 29.9387 30 29.4849 30 28.5773V27.2808C30 26.3731 30 25.9194 29.8304 25.5727C29.6813 25.2678 29.4434 25.02 29.1507 24.8646C28.8179 24.6879 28.3824 24.6879 27.5111 24.6879H26.2667C25.3954 24.6879 24.9598 24.6879 24.6271 24.8646C24.3344 25.02 24.0965 25.2678 23.9473 25.5727C23.7778 25.9194 23.7778 26.3731 23.7778 27.2808V28.5773C23.7778 29.4849 23.7778 29.9387 23.9473 30.2853C24.0965 30.5903 24.3344 30.8381 24.6271 30.9935C24.9598 31.1702 25.3954 31.1702 26.2667 31.1702Z" stroke="black" stroke-width="3.24113" stroke-linecap="round" stroke-linejoin="round"/>
</svg>
