<svg width="50" height="50" viewBox="0 0 50 50" fill="none" xmlns="http://www.w3.org/2000/svg">
<path d="M20.8333 27.0835C21.7279 28.2795 22.8693 29.2691 24.1802 29.9854C25.491 30.7016 26.9406 31.1274 28.4304 31.2341C29.9204 31.3408 31.4158 31.1258 32.8152 30.6037C34.2147 30.0818 35.4856 29.2647 36.5416 28.2085L42.7916 21.9585C44.6891 19.9938 45.7389 17.3625 45.7154 14.6313C45.6916 11.9001 44.596 9.28747 42.6647 7.35613C40.7333 5.4248 38.1208 4.3293 35.3895 4.30557C32.6583 4.28182 30.027 5.33178 28.0625 7.22926L24.4791 10.7918M29.1666 22.9168C28.2718 21.7206 27.1304 20.7309 25.8195 20.0148C24.5087 19.2986 23.0593 18.8728 21.5693 18.766C20.0795 18.6593 18.5841 18.8743 17.1846 19.3964C15.7851 19.9184 14.5143 20.7354 13.4583 21.7918L7.20826 28.0418C5.31078 30.0064 4.26082 32.6377 4.28457 35.3689C4.3083 38.1002 5.4038 40.7127 7.33514 42.6441C9.26647 44.5754 11.8791 45.6708 14.6103 45.6945C17.3415 45.7183 19.9728 44.6685 21.9374 42.771L25.4999 39.2085" stroke="black" stroke-width="4.16667" stroke-linecap="round" stroke-linejoin="round"/>
</svg>
