<svg width="410" height="144" viewBox="0 0 410 144" fill="none" xmlns="http://www.w3.org/2000/svg">
<g clip-path="url(#clip0_1170_24)">
<rect width="410" height="144" rx="3" fill="white"/>
<g filter="url(#filter0_d_1170_24)">
<rect x="10" y="37" width="448" height="140" rx="3" fill="#111111"/>
<path d="M23.6307 62L20.3011 50.3636H22.9886L24.9148 58.4489H25.0114L27.1364 50.3636H29.4375L31.5568 58.4659H31.6591L33.5852 50.3636H36.2727L32.9432 62H30.5455L28.3295 54.392H28.2386L26.0284 62H23.6307ZM39.9645 56.9545V62H37.544V50.3636H39.8963V54.8125H39.9986C40.1955 54.2973 40.5137 53.8939 40.9531 53.6023C41.3925 53.3068 41.9437 53.1591 42.6065 53.1591C43.2126 53.1591 43.741 53.2917 44.1918 53.5568C44.6463 53.8182 44.9986 54.1951 45.2486 54.6875C45.5024 55.1761 45.6274 55.7614 45.6236 56.4432V62H43.2031V56.875C43.2069 56.3371 43.0705 55.9186 42.794 55.6193C42.5213 55.3201 42.1387 55.1705 41.6463 55.1705C41.3168 55.1705 41.0251 55.2405 40.7713 55.3807C40.5213 55.5208 40.3243 55.7254 40.1804 55.9943C40.0402 56.2595 39.9683 56.5795 39.9645 56.9545ZM50.017 62.1648C49.4602 62.1648 48.964 62.0682 48.5284 61.875C48.0928 61.678 47.7481 61.3883 47.4943 61.0057C47.2443 60.6193 47.1193 60.1383 47.1193 59.5625C47.1193 59.0777 47.2083 58.6705 47.3864 58.3409C47.5644 58.0114 47.8068 57.7462 48.1136 57.5455C48.4205 57.3447 48.7689 57.1932 49.1591 57.0909C49.553 56.9886 49.9659 56.9167 50.3977 56.875C50.9053 56.822 51.3144 56.7727 51.625 56.7273C51.9356 56.678 52.161 56.6061 52.3011 56.5114C52.4413 56.4167 52.5114 56.2765 52.5114 56.0909V56.0568C52.5114 55.697 52.3977 55.4186 52.1705 55.2216C51.947 55.0246 51.6288 54.9261 51.2159 54.9261C50.7803 54.9261 50.4337 55.0227 50.1761 55.2159C49.9186 55.4053 49.7481 55.6439 49.6648 55.9318L47.4261 55.75C47.5398 55.2197 47.7633 54.7614 48.0966 54.375C48.4299 53.9848 48.8598 53.6856 49.3864 53.4773C49.9167 53.2652 50.5303 53.1591 51.2273 53.1591C51.7121 53.1591 52.1761 53.2159 52.6193 53.3295C53.0663 53.4432 53.4621 53.6193 53.8068 53.858C54.1553 54.0966 54.4299 54.4034 54.6307 54.7784C54.8314 55.1496 54.9318 55.5947 54.9318 56.1136V62H52.6364V60.7898H52.5682C52.428 61.0625 52.2405 61.303 52.0057 61.5114C51.7708 61.7159 51.4886 61.8769 51.1591 61.9943C50.8295 62.108 50.4489 62.1648 50.017 62.1648ZM50.7102 60.4943C51.0663 60.4943 51.3807 60.4242 51.6534 60.2841C51.9261 60.1402 52.1402 59.947 52.2955 59.7045C52.4508 59.4621 52.5284 59.1875 52.5284 58.8807V57.9545C52.4527 58.0038 52.3485 58.0492 52.2159 58.0909C52.0871 58.1288 51.9413 58.1648 51.7784 58.1989C51.6155 58.2292 51.4527 58.2576 51.2898 58.2841C51.1269 58.3068 50.9792 58.3277 50.8466 58.3466C50.5625 58.3883 50.3144 58.4545 50.1023 58.5455C49.8902 58.6364 49.7254 58.7595 49.608 58.9148C49.4905 59.0663 49.4318 59.2557 49.4318 59.483C49.4318 59.8125 49.5511 60.0644 49.7898 60.2386C50.0322 60.4091 50.339 60.4943 50.7102 60.4943ZM61.4517 53.2727V55.0909H56.196V53.2727H61.4517ZM57.3892 51.1818H59.8097V59.3182C59.8097 59.5417 59.8438 59.7159 59.9119 59.8409C59.9801 59.9621 60.0748 60.0473 60.196 60.0966C60.321 60.1458 60.465 60.1705 60.6278 60.1705C60.7415 60.1705 60.8551 60.161 60.9688 60.142C61.0824 60.1193 61.1695 60.1023 61.2301 60.0909L61.6108 61.892C61.4896 61.9299 61.3191 61.9735 61.0994 62.0227C60.8797 62.0758 60.6127 62.108 60.2983 62.1193C59.715 62.142 59.2036 62.0644 58.7642 61.8864C58.3286 61.7083 57.9896 61.4318 57.7472 61.0568C57.5047 60.6818 57.3854 60.2083 57.3892 59.6364V51.1818ZM71.4247 53.2727V55.0909H66.0384V53.2727H71.4247ZM67.2713 62V52.642C67.2713 52.0095 67.3944 51.4848 67.6406 51.0682C67.8906 50.6515 68.2315 50.339 68.6634 50.1307C69.0952 49.9223 69.5857 49.8182 70.1349 49.8182C70.5062 49.8182 70.8452 49.8466 71.152 49.9034C71.4626 49.9602 71.6937 50.0114 71.8452 50.0568L71.4134 51.875C71.3187 51.8447 71.2012 51.8163 71.0611 51.7898C70.9247 51.7633 70.7846 51.75 70.6406 51.75C70.2846 51.75 70.0365 51.8333 69.8963 52C69.7562 52.1629 69.6861 52.392 69.6861 52.6875V62H67.2713ZM76.5682 62.1705C75.6705 62.1705 74.8977 61.9886 74.25 61.625C73.6061 61.2576 73.1098 60.7386 72.7614 60.0682C72.4129 59.3939 72.2386 58.5966 72.2386 57.6761C72.2386 56.7784 72.4129 55.9905 72.7614 55.3125C73.1098 54.6345 73.6004 54.1061 74.233 53.7273C74.8693 53.3485 75.6155 53.1591 76.4716 53.1591C77.0473 53.1591 77.5833 53.2519 78.0795 53.4375C78.5795 53.6193 79.0152 53.8939 79.3864 54.2614C79.7614 54.6288 80.053 55.0909 80.2614 55.6477C80.4697 56.2008 80.5739 56.8485 80.5739 57.5909V58.2557H73.2045V56.7557H78.2955C78.2955 56.4072 78.2197 56.0985 78.0682 55.8295C77.9167 55.5606 77.7064 55.3504 77.4375 55.1989C77.1723 55.0436 76.8636 54.9659 76.5114 54.9659C76.1439 54.9659 75.8182 55.0511 75.5341 55.2216C75.2538 55.3883 75.0341 55.6136 74.875 55.8977C74.7159 56.178 74.6345 56.4905 74.6307 56.8352V58.2614C74.6307 58.6932 74.7102 59.0663 74.8693 59.3807C75.0322 59.6951 75.2614 59.9375 75.5568 60.108C75.8523 60.2784 76.2027 60.3636 76.608 60.3636C76.8769 60.3636 77.1231 60.3258 77.3466 60.25C77.5701 60.1742 77.7614 60.0606 77.9205 59.9091C78.0795 59.7576 78.2008 59.572 78.2841 59.3523L80.5227 59.5C80.4091 60.0379 80.1761 60.5076 79.8239 60.9091C79.4754 61.3068 79.0246 61.6174 78.4716 61.8409C77.9223 62.0606 77.2879 62.1705 76.5682 62.1705ZM84.642 62.1648C84.0852 62.1648 83.589 62.0682 83.1534 61.875C82.7178 61.678 82.3731 61.3883 82.1193 61.0057C81.8693 60.6193 81.7443 60.1383 81.7443 59.5625C81.7443 59.0777 81.8333 58.6705 82.0114 58.3409C82.1894 58.0114 82.4318 57.7462 82.7386 57.5455C83.0455 57.3447 83.3939 57.1932 83.7841 57.0909C84.178 56.9886 84.5909 56.9167 85.0227 56.875C85.5303 56.822 85.9394 56.7727 86.25 56.7273C86.5606 56.678 86.786 56.6061 86.9261 56.5114C87.0663 56.4167 87.1364 56.2765 87.1364 56.0909V56.0568C87.1364 55.697 87.0227 55.4186 86.7955 55.2216C86.572 55.0246 86.2538 54.9261 85.8409 54.9261C85.4053 54.9261 85.0587 55.0227 84.8011 55.2159C84.5436 55.4053 84.3731 55.6439 84.2898 55.9318L82.0511 55.75C82.1648 55.2197 82.3883 54.7614 82.7216 54.375C83.0549 53.9848 83.4848 53.6856 84.0114 53.4773C84.5417 53.2652 85.1553 53.1591 85.8523 53.1591C86.3371 53.1591 86.8011 53.2159 87.2443 53.3295C87.6913 53.4432 88.0871 53.6193 88.4318 53.858C88.7803 54.0966 89.0549 54.4034 89.2557 54.7784C89.4564 55.1496 89.5568 55.5947 89.5568 56.1136V62H87.2614V60.7898H87.1932C87.053 61.0625 86.8655 61.303 86.6307 61.5114C86.3958 61.7159 86.1136 61.8769 85.7841 61.9943C85.4545 62.108 85.0739 62.1648 84.642 62.1648ZM85.3352 60.4943C85.6913 60.4943 86.0057 60.4242 86.2784 60.2841C86.5511 60.1402 86.7652 59.947 86.9205 59.7045C87.0758 59.4621 87.1534 59.1875 87.1534 58.8807V57.9545C87.0777 58.0038 86.9735 58.0492 86.8409 58.0909C86.7121 58.1288 86.5663 58.1648 86.4034 58.1989C86.2405 58.2292 86.0777 58.2576 85.9148 58.2841C85.7519 58.3068 85.6042 58.3277 85.4716 58.3466C85.1875 58.3883 84.9394 58.4545 84.7273 58.5455C84.5152 58.6364 84.3504 58.7595 84.233 58.9148C84.1155 59.0663 84.0568 59.2557 84.0568 59.483C84.0568 59.8125 84.1761 60.0644 84.4148 60.2386C84.6572 60.4091 84.964 60.4943 85.3352 60.4943ZM96.0767 53.2727V55.0909H90.821V53.2727H96.0767ZM92.0142 51.1818H94.4347V59.3182C94.4347 59.5417 94.4688 59.7159 94.5369 59.8409C94.6051 59.9621 94.6998 60.0473 94.821 60.0966C94.946 60.1458 95.09 60.1705 95.2528 60.1705C95.3665 60.1705 95.4801 60.161 95.5938 60.142C95.7074 60.1193 95.7945 60.1023 95.8551 60.0909L96.2358 61.892C96.1146 61.9299 95.9441 61.9735 95.7244 62.0227C95.5047 62.0758 95.2377 62.108 94.9233 62.1193C94.34 62.142 93.8286 62.0644 93.3892 61.8864C92.9536 61.7083 92.6146 61.4318 92.3722 61.0568C92.1297 60.6818 92.0104 60.2083 92.0142 59.6364V51.1818ZM103.25 58.2841V53.2727H105.67V62H103.347V60.4148H103.256C103.059 60.9261 102.731 61.3371 102.273 61.6477C101.818 61.9583 101.263 62.1136 100.608 62.1136C100.025 62.1136 99.5114 61.9811 99.0682 61.7159C98.625 61.4508 98.2784 61.0739 98.0284 60.5852C97.7822 60.0966 97.6572 59.5114 97.6534 58.8295V53.2727H100.074V58.3977C100.078 58.9129 100.216 59.3201 100.489 59.6193C100.761 59.9186 101.127 60.0682 101.585 60.0682C101.877 60.0682 102.15 60.0019 102.403 59.8693C102.657 59.733 102.862 59.5322 103.017 59.267C103.176 59.0019 103.254 58.6742 103.25 58.2841ZM107.607 62V53.2727H109.953V54.7955H110.044C110.203 54.2538 110.47 53.8447 110.845 53.5682C111.22 53.2879 111.652 53.1477 112.141 53.1477C112.262 53.1477 112.393 53.1553 112.533 53.1705C112.673 53.1856 112.796 53.2064 112.902 53.233V55.3807C112.788 55.3466 112.631 55.3163 112.43 55.2898C112.23 55.2633 112.046 55.25 111.879 55.25C111.523 55.25 111.205 55.3277 110.925 55.483C110.648 55.6345 110.429 55.8466 110.266 56.1193C110.107 56.392 110.027 56.7064 110.027 57.0625V62H107.607ZM117.724 62.1705C116.827 62.1705 116.054 61.9886 115.406 61.625C114.762 61.2576 114.266 60.7386 113.918 60.0682C113.569 59.3939 113.395 58.5966 113.395 57.6761C113.395 56.7784 113.569 55.9905 113.918 55.3125C114.266 54.6345 114.757 54.1061 115.389 53.7273C116.026 53.3485 116.772 53.1591 117.628 53.1591C118.204 53.1591 118.74 53.2519 119.236 53.4375C119.736 53.6193 120.171 53.8939 120.543 54.2614C120.918 54.6288 121.209 55.0909 121.418 55.6477C121.626 56.2008 121.73 56.8485 121.73 57.5909V58.2557H114.361V56.7557H119.452C119.452 56.4072 119.376 56.0985 119.224 55.8295C119.073 55.5606 118.863 55.3504 118.594 55.1989C118.329 55.0436 118.02 54.9659 117.668 54.9659C117.3 54.9659 116.974 55.0511 116.69 55.2216C116.41 55.3883 116.19 55.6136 116.031 55.8977C115.872 56.178 115.791 56.4905 115.787 56.8352V58.2614C115.787 58.6932 115.866 59.0663 116.026 59.3807C116.188 59.6951 116.418 59.9375 116.713 60.108C117.009 60.2784 117.359 60.3636 117.764 60.3636C118.033 60.3636 118.279 60.3258 118.503 60.25C118.726 60.1742 118.918 60.0606 119.077 59.9091C119.236 59.7576 119.357 59.572 119.44 59.3523L121.679 59.5C121.565 60.0379 121.332 60.5076 120.98 60.9091C120.632 61.3068 120.181 61.6174 119.628 61.8409C119.079 62.0606 118.444 62.1705 117.724 62.1705ZM130.571 55.7614L128.355 55.8977C128.317 55.7083 128.236 55.5379 128.111 55.3864C127.986 55.2311 127.821 55.108 127.616 55.017C127.416 54.9223 127.175 54.875 126.895 54.875C126.52 54.875 126.204 54.9545 125.946 55.1136C125.688 55.2689 125.56 55.4773 125.56 55.7386C125.56 55.947 125.643 56.1231 125.81 56.267C125.976 56.411 126.262 56.5265 126.668 56.6136L128.247 56.9318C129.096 57.1061 129.728 57.3864 130.145 57.7727C130.562 58.1591 130.77 58.6667 130.77 59.2955C130.77 59.8674 130.601 60.3693 130.264 60.8011C129.931 61.233 129.473 61.5701 128.889 61.8125C128.31 62.0511 127.641 62.1705 126.884 62.1705C125.728 62.1705 124.808 61.9299 124.122 61.4489C123.44 60.964 123.041 60.3049 122.923 59.4716L125.304 59.3466C125.376 59.6989 125.55 59.9678 125.827 60.1534C126.103 60.3352 126.457 60.4261 126.889 60.4261C127.313 60.4261 127.654 60.3447 127.912 60.1818C128.173 60.0152 128.306 59.8011 128.31 59.5398C128.306 59.3201 128.213 59.1402 128.031 59C127.849 58.8561 127.569 58.7462 127.19 58.6705L125.679 58.3693C124.827 58.1989 124.192 57.9034 123.776 57.483C123.363 57.0625 123.156 56.5265 123.156 55.875C123.156 55.3144 123.308 54.8314 123.611 54.4261C123.918 54.0208 124.348 53.7083 124.901 53.4886C125.457 53.2689 126.109 53.1591 126.855 53.1591C127.957 53.1591 128.825 53.392 129.457 53.858C130.094 54.3239 130.465 54.9583 130.571 55.7614ZM139.213 62.142C138.55 62.142 137.95 61.9716 137.412 61.6307C136.878 61.286 136.454 60.7803 136.139 60.1136C135.829 59.4432 135.673 58.6212 135.673 57.6477C135.673 56.6477 135.834 55.8163 136.156 55.1534C136.478 54.4867 136.906 53.9886 137.44 53.6591C137.978 53.3258 138.567 53.1591 139.207 53.1591C139.696 53.1591 140.103 53.2424 140.429 53.4091C140.759 53.572 141.024 53.7765 141.224 54.0227C141.429 54.2652 141.584 54.5038 141.69 54.7386H141.764V50.3636H144.179V62H141.793V60.6023H141.69C141.577 60.8447 141.416 61.0852 141.207 61.3239C141.003 61.5587 140.736 61.7538 140.406 61.9091C140.08 62.0644 139.683 62.142 139.213 62.142ZM139.98 60.2159C140.37 60.2159 140.7 60.1098 140.969 59.8977C141.241 59.6818 141.45 59.3807 141.594 58.9943C141.741 58.608 141.815 58.1553 141.815 57.6364C141.815 57.1174 141.743 56.6667 141.599 56.2841C141.455 55.9015 141.247 55.6061 140.974 55.3977C140.702 55.1894 140.37 55.0852 139.98 55.0852C139.582 55.0852 139.247 55.1932 138.974 55.4091C138.702 55.625 138.495 55.9242 138.355 56.3068C138.215 56.6894 138.145 57.1326 138.145 57.6364C138.145 58.1439 138.215 58.5928 138.355 58.983C138.499 59.3693 138.705 59.6723 138.974 59.892C139.247 60.108 139.582 60.2159 139.98 60.2159ZM150.112 62.1705C149.23 62.1705 148.466 61.983 147.822 61.608C147.182 61.2292 146.688 60.7027 146.339 60.0284C145.991 59.3504 145.817 58.5644 145.817 57.6705C145.817 56.7689 145.991 55.9811 146.339 55.3068C146.688 54.6288 147.182 54.1023 147.822 53.7273C148.466 53.3485 149.23 53.1591 150.112 53.1591C150.995 53.1591 151.756 53.3485 152.396 53.7273C153.04 54.1023 153.536 54.6288 153.885 55.3068C154.233 55.9811 154.408 56.7689 154.408 57.6705C154.408 58.5644 154.233 59.3504 153.885 60.0284C153.536 60.7027 153.04 61.2292 152.396 61.608C151.756 61.983 150.995 62.1705 150.112 62.1705ZM150.124 60.2955C150.525 60.2955 150.86 60.1818 151.129 59.9545C151.398 59.7235 151.601 59.4091 151.737 59.0114C151.877 58.6136 151.947 58.161 151.947 57.6534C151.947 57.1458 151.877 56.6932 151.737 56.2955C151.601 55.8977 151.398 55.5833 151.129 55.3523C150.86 55.1212 150.525 55.0057 150.124 55.0057C149.718 55.0057 149.377 55.1212 149.101 55.3523C148.828 55.5833 148.622 55.8977 148.482 56.2955C148.345 56.6932 148.277 57.1458 148.277 57.6534C148.277 58.161 148.345 58.6136 148.482 59.0114C148.622 59.4091 148.828 59.7235 149.101 59.9545C149.377 60.1818 149.718 60.2955 150.124 60.2955ZM161.179 65.2727C160.872 65.2727 160.584 65.2481 160.315 65.1989C160.05 65.1534 159.83 65.0947 159.656 65.0227L160.202 63.2159C160.486 63.303 160.741 63.3504 160.969 63.358C161.2 63.3655 161.399 63.3125 161.565 63.1989C161.736 63.0852 161.874 62.892 161.98 62.6193L162.122 62.25L158.991 53.2727H161.537L163.344 59.6818H163.435L165.259 53.2727H167.821L164.429 62.9432C164.266 63.4129 164.045 63.822 163.764 64.1705C163.488 64.5227 163.137 64.7936 162.713 64.983C162.289 65.1761 161.777 65.2727 161.179 65.2727ZM172.722 62.1705C171.839 62.1705 171.076 61.983 170.432 61.608C169.792 61.2292 169.297 60.7027 168.949 60.0284C168.6 59.3504 168.426 58.5644 168.426 57.6705C168.426 56.7689 168.6 55.9811 168.949 55.3068C169.297 54.6288 169.792 54.1023 170.432 53.7273C171.076 53.3485 171.839 53.1591 172.722 53.1591C173.604 53.1591 174.366 53.3485 175.006 53.7273C175.65 54.1023 176.146 54.6288 176.494 55.3068C176.843 55.9811 177.017 56.7689 177.017 57.6705C177.017 58.5644 176.843 59.3504 176.494 60.0284C176.146 60.7027 175.65 61.2292 175.006 61.608C174.366 61.983 173.604 62.1705 172.722 62.1705ZM172.733 60.2955C173.134 60.2955 173.47 60.1818 173.739 59.9545C174.008 59.7235 174.21 59.4091 174.347 59.0114C174.487 58.6136 174.557 58.161 174.557 57.6534C174.557 57.1458 174.487 56.6932 174.347 56.2955C174.21 55.8977 174.008 55.5833 173.739 55.3523C173.47 55.1212 173.134 55.0057 172.733 55.0057C172.328 55.0057 171.987 55.1212 171.71 55.3523C171.438 55.5833 171.231 55.8977 171.091 56.2955C170.955 56.6932 170.886 57.1458 170.886 57.6534C170.886 58.161 170.955 58.6136 171.091 59.0114C171.231 59.4091 171.438 59.7235 171.71 59.9545C171.987 60.1818 172.328 60.2955 172.733 60.2955ZM184.188 58.2841V53.2727H186.608V62H184.284V60.4148H184.193C183.996 60.9261 183.669 61.3371 183.21 61.6477C182.756 61.9583 182.201 62.1136 181.545 62.1136C180.962 62.1136 180.449 61.9811 180.006 61.7159C179.563 61.4508 179.216 61.0739 178.966 60.5852C178.72 60.0966 178.595 59.5114 178.591 58.8295V53.2727H181.011V58.3977C181.015 58.9129 181.153 59.3201 181.426 59.6193C181.699 59.9186 182.064 60.0682 182.523 60.0682C182.814 60.0682 183.087 60.0019 183.341 59.8693C183.595 59.733 183.799 59.5322 183.955 59.267C184.114 59.0019 184.191 58.6742 184.188 58.2841ZM196.94 53.2727V55.0909H191.554V53.2727H196.94ZM192.787 62V52.642C192.787 52.0095 192.91 51.4848 193.156 51.0682C193.406 50.6515 193.747 50.339 194.179 50.1307C194.611 49.9223 195.101 49.8182 195.651 49.8182C196.022 49.8182 196.361 49.8466 196.668 49.9034C196.978 49.9602 197.209 50.0114 197.361 50.0568L196.929 51.875C196.834 51.8447 196.717 51.8163 196.577 51.7898C196.44 51.7633 196.3 51.75 196.156 51.75C195.8 51.75 195.552 51.8333 195.412 52C195.272 52.1629 195.202 52.392 195.202 52.6875V62H192.787ZM198.419 62V53.2727H200.839V62H198.419ZM199.635 52.1477C199.275 52.1477 198.966 52.0284 198.709 51.7898C198.455 51.5473 198.328 51.2576 198.328 50.9205C198.328 50.5871 198.455 50.3011 198.709 50.0625C198.966 49.8201 199.275 49.6989 199.635 49.6989C199.995 49.6989 200.302 49.8201 200.555 50.0625C200.813 50.3011 200.942 50.5871 200.942 50.9205C200.942 51.2576 200.813 51.5473 200.555 51.7898C200.302 52.0284 199.995 52.1477 199.635 52.1477ZM205.199 56.9545V62H202.778V53.2727H205.085V54.8125H205.188C205.381 54.3049 205.705 53.9034 206.159 53.608C206.614 53.3087 207.165 53.1591 207.812 53.1591C208.419 53.1591 208.947 53.2917 209.398 53.5568C209.848 53.822 210.199 54.2008 210.449 54.6932C210.699 55.1818 210.824 55.7652 210.824 56.4432V62H208.403V56.875C208.407 56.3409 208.271 55.9242 207.994 55.625C207.718 55.322 207.337 55.1705 206.852 55.1705C206.527 55.1705 206.239 55.2405 205.989 55.3807C205.742 55.5208 205.549 55.7254 205.409 55.9943C205.273 56.2595 205.203 56.5795 205.199 56.9545ZM215.947 62.142C215.285 62.142 214.684 61.9716 214.146 61.6307C213.612 61.286 213.188 60.7803 212.874 60.1136C212.563 59.4432 212.408 58.6212 212.408 57.6477C212.408 56.6477 212.569 55.8163 212.891 55.1534C213.213 54.4867 213.641 53.9886 214.175 53.6591C214.713 53.3258 215.302 53.1591 215.942 53.1591C216.43 53.1591 216.838 53.2424 217.163 53.4091C217.493 53.572 217.758 53.7765 217.959 54.0227C218.163 54.2652 218.319 54.5038 218.425 54.7386H218.499V50.3636H220.913V62H218.527V60.6023H218.425C218.311 60.8447 218.15 61.0852 217.942 61.3239C217.737 61.5587 217.47 61.7538 217.141 61.9091C216.815 62.0644 216.417 62.142 215.947 62.142ZM216.714 60.2159C217.105 60.2159 217.434 60.1098 217.703 59.8977C217.976 59.6818 218.184 59.3807 218.328 58.9943C218.476 58.608 218.55 58.1553 218.55 57.6364C218.55 57.1174 218.478 56.6667 218.334 56.2841C218.19 55.9015 217.982 55.6061 217.709 55.3977C217.436 55.1894 217.105 55.0852 216.714 55.0852C216.317 55.0852 215.982 55.1932 215.709 55.4091C215.436 55.625 215.23 55.9242 215.089 56.3068C214.949 56.6894 214.879 57.1326 214.879 57.6364C214.879 58.1439 214.949 58.5928 215.089 58.983C215.233 59.3693 215.44 59.6723 215.709 59.892C215.982 60.108 216.317 60.2159 216.714 60.2159ZM232.203 58.2841V53.2727H234.624V62H232.3V60.4148H232.209C232.012 60.9261 231.684 61.3371 231.226 61.6477C230.771 61.9583 230.216 62.1136 229.561 62.1136C228.978 62.1136 228.464 61.9811 228.021 61.7159C227.578 61.4508 227.232 61.0739 226.982 60.5852C226.735 60.0966 226.61 59.5114 226.607 58.8295V53.2727H229.027V58.3977C229.031 58.9129 229.169 59.3201 229.442 59.6193C229.714 59.9186 230.08 60.0682 230.538 60.0682C230.83 60.0682 231.103 60.0019 231.357 59.8693C231.61 59.733 231.815 59.5322 231.97 59.267C232.129 59.0019 232.207 58.6742 232.203 58.2841ZM243.821 55.7614L241.605 55.8977C241.567 55.7083 241.486 55.5379 241.361 55.3864C241.236 55.2311 241.071 55.108 240.866 55.017C240.666 54.9223 240.425 54.875 240.145 54.875C239.77 54.875 239.454 54.9545 239.196 55.1136C238.938 55.2689 238.81 55.4773 238.81 55.7386C238.81 55.947 238.893 56.1231 239.06 56.267C239.226 56.411 239.512 56.5265 239.918 56.6136L241.497 56.9318C242.346 57.1061 242.978 57.3864 243.395 57.7727C243.812 58.1591 244.02 58.6667 244.02 59.2955C244.02 59.8674 243.851 60.3693 243.514 60.8011C243.181 61.233 242.723 61.5701 242.139 61.8125C241.56 62.0511 240.891 62.1705 240.134 62.1705C238.978 62.1705 238.058 61.9299 237.372 61.4489C236.69 60.964 236.291 60.3049 236.173 59.4716L238.554 59.3466C238.626 59.6989 238.8 59.9678 239.077 60.1534C239.353 60.3352 239.707 60.4261 240.139 60.4261C240.563 60.4261 240.904 60.3447 241.162 60.1818C241.423 60.0152 241.556 59.8011 241.56 59.5398C241.556 59.3201 241.463 59.1402 241.281 59C241.099 58.8561 240.819 58.7462 240.44 58.6705L238.929 58.3693C238.077 58.1989 237.442 57.9034 237.026 57.483C236.613 57.0625 236.406 56.5265 236.406 55.875C236.406 55.3144 236.558 54.8314 236.861 54.4261C237.168 54.0208 237.598 53.7083 238.151 53.4886C238.707 53.2689 239.359 53.1591 240.105 53.1591C241.207 53.1591 242.075 53.392 242.707 53.858C243.344 54.3239 243.715 54.9583 243.821 55.7614ZM249.521 62.1705C248.624 62.1705 247.851 61.9886 247.203 61.625C246.559 61.2576 246.063 60.7386 245.714 60.0682C245.366 59.3939 245.192 58.5966 245.192 57.6761C245.192 56.7784 245.366 55.9905 245.714 55.3125C246.063 54.6345 246.554 54.1061 247.186 53.7273C247.822 53.3485 248.569 53.1591 249.425 53.1591C250 53.1591 250.536 53.2519 251.033 53.4375C251.533 53.6193 251.968 53.8939 252.339 54.2614C252.714 54.6288 253.006 55.0909 253.214 55.6477C253.423 56.2008 253.527 56.8485 253.527 57.5909V58.2557H246.158V56.7557H251.249C251.249 56.4072 251.173 56.0985 251.021 55.8295C250.87 55.5606 250.66 55.3504 250.391 55.1989C250.125 55.0436 249.817 54.9659 249.464 54.9659C249.097 54.9659 248.771 55.0511 248.487 55.2216C248.207 55.3883 247.987 55.6136 247.828 55.8977C247.669 56.178 247.588 56.4905 247.584 56.8352V58.2614C247.584 58.6932 247.663 59.0663 247.822 59.3807C247.985 59.6951 248.214 59.9375 248.51 60.108C248.805 60.2784 249.156 60.3636 249.561 60.3636C249.83 60.3636 250.076 60.3258 250.3 60.25C250.523 60.1742 250.714 60.0606 250.874 59.9091C251.033 59.7576 251.154 59.572 251.237 59.3523L253.476 59.5C253.362 60.0379 253.129 60.5076 252.777 60.9091C252.429 61.3068 251.978 61.6174 251.425 61.8409C250.875 62.0606 250.241 62.1705 249.521 62.1705ZM259.8 53.2727V55.0909H254.413V53.2727H259.8ZM255.646 62V52.642C255.646 52.0095 255.769 51.4848 256.016 51.0682C256.266 50.6515 256.607 50.339 257.038 50.1307C257.47 49.9223 257.961 49.8182 258.51 49.8182C258.881 49.8182 259.22 49.8466 259.527 49.9034C259.838 49.9602 260.069 50.0114 260.22 50.0568L259.788 51.875C259.694 51.8447 259.576 51.8163 259.436 51.7898C259.3 51.7633 259.16 51.75 259.016 51.75C258.66 51.75 258.411 51.8333 258.271 52C258.131 52.1629 258.061 52.392 258.061 52.6875V62H255.646ZM266.875 58.2841V53.2727H269.295V62H266.972V60.4148H266.881C266.684 60.9261 266.356 61.3371 265.898 61.6477C265.443 61.9583 264.888 62.1136 264.233 62.1136C263.65 62.1136 263.136 61.9811 262.693 61.7159C262.25 61.4508 261.903 61.0739 261.653 60.5852C261.407 60.0966 261.282 59.5114 261.278 58.8295V53.2727H263.699V58.3977C263.703 58.9129 263.841 59.3201 264.114 59.6193C264.386 59.9186 264.752 60.0682 265.21 60.0682C265.502 60.0682 265.775 60.0019 266.028 59.8693C266.282 59.733 266.487 59.5322 266.642 59.267C266.801 59.0019 266.879 58.6742 266.875 58.2841ZM273.652 50.3636V62H271.232V50.3636H273.652ZM283.237 62.1705C282.355 62.1705 281.591 61.983 280.947 61.608C280.307 61.2292 279.813 60.7027 279.464 60.0284C279.116 59.3504 278.942 58.5644 278.942 57.6705C278.942 56.7689 279.116 55.9811 279.464 55.3068C279.813 54.6288 280.307 54.1023 280.947 53.7273C281.591 53.3485 282.355 53.1591 283.237 53.1591C284.12 53.1591 284.881 53.3485 285.521 53.7273C286.165 54.1023 286.661 54.6288 287.01 55.3068C287.358 55.9811 287.533 56.7689 287.533 57.6705C287.533 58.5644 287.358 59.3504 287.01 60.0284C286.661 60.7027 286.165 61.2292 285.521 61.608C284.881 61.983 284.12 62.1705 283.237 62.1705ZM283.249 60.2955C283.65 60.2955 283.985 60.1818 284.254 59.9545C284.523 59.7235 284.726 59.4091 284.862 59.0114C285.002 58.6136 285.072 58.161 285.072 57.6534C285.072 57.1458 285.002 56.6932 284.862 56.2955C284.726 55.8977 284.523 55.5833 284.254 55.3523C283.985 55.1212 283.65 55.0057 283.249 55.0057C282.843 55.0057 282.502 55.1212 282.226 55.3523C281.953 55.5833 281.747 55.8977 281.607 56.2955C281.47 56.6932 281.402 57.1458 281.402 57.6534C281.402 58.161 281.47 58.6136 281.607 59.0114C281.747 59.4091 281.953 59.7235 282.226 59.9545C282.502 60.1818 282.843 60.2955 283.249 60.2955ZM291.527 56.9545V62H289.107V53.2727H291.413V54.8125H291.516C291.709 54.3049 292.033 53.9034 292.487 53.608C292.942 53.3087 293.493 53.1591 294.141 53.1591C294.747 53.1591 295.275 53.2917 295.726 53.5568C296.177 53.822 296.527 54.2008 296.777 54.6932C297.027 55.1818 297.152 55.7652 297.152 56.4432V62H294.732V56.875C294.735 56.3409 294.599 55.9242 294.322 55.625C294.046 55.322 293.665 55.1705 293.18 55.1705C292.855 55.1705 292.567 55.2405 292.317 55.3807C292.071 55.5208 291.877 55.7254 291.737 55.9943C291.601 56.2595 291.531 56.5795 291.527 56.9545ZM306.706 62.1705C305.823 62.1705 305.06 61.983 304.416 61.608C303.776 61.2292 303.282 60.7027 302.933 60.0284C302.585 59.3504 302.411 58.5644 302.411 57.6705C302.411 56.7689 302.585 55.9811 302.933 55.3068C303.282 54.6288 303.776 54.1023 304.416 53.7273C305.06 53.3485 305.823 53.1591 306.706 53.1591C307.589 53.1591 308.35 53.3485 308.99 53.7273C309.634 54.1023 310.13 54.6288 310.479 55.3068C310.827 55.9811 311.001 56.7689 311.001 57.6705C311.001 58.5644 310.827 59.3504 310.479 60.0284C310.13 60.7027 309.634 61.2292 308.99 61.608C308.35 61.983 307.589 62.1705 306.706 62.1705ZM306.717 60.2955C307.119 60.2955 307.454 60.1818 307.723 59.9545C307.992 59.7235 308.195 59.4091 308.331 59.0114C308.471 58.6136 308.541 58.161 308.541 57.6534C308.541 57.1458 308.471 56.6932 308.331 56.2955C308.195 55.8977 307.992 55.5833 307.723 55.3523C307.454 55.1212 307.119 55.0057 306.717 55.0057C306.312 55.0057 305.971 55.1212 305.695 55.3523C305.422 55.5833 305.215 55.8977 305.075 56.2955C304.939 56.6932 304.871 57.1458 304.871 57.6534C304.871 58.161 304.939 58.6136 305.075 59.0114C305.215 59.4091 305.422 59.7235 305.695 59.9545C305.971 60.1818 306.312 60.2955 306.717 60.2955ZM318.172 58.2841V53.2727H320.592V62H318.268V60.4148H318.178C317.981 60.9261 317.653 61.3371 317.195 61.6477C316.74 61.9583 316.185 62.1136 315.53 62.1136C314.946 62.1136 314.433 61.9811 313.99 61.7159C313.547 61.4508 313.2 61.0739 312.95 60.5852C312.704 60.0966 312.579 59.5114 312.575 58.8295V53.2727H314.996V58.3977C315 58.9129 315.138 59.3201 315.411 59.6193C315.683 59.9186 316.049 60.0682 316.507 60.0682C316.799 60.0682 317.071 60.0019 317.325 59.8693C317.579 59.733 317.784 59.5322 317.939 59.267C318.098 59.0019 318.176 58.6742 318.172 58.2841ZM322.528 62V53.2727H324.875V54.7955H324.966C325.125 54.2538 325.392 53.8447 325.767 53.5682C326.142 53.2879 326.574 53.1477 327.062 53.1477C327.184 53.1477 327.314 53.1553 327.455 53.1705C327.595 53.1856 327.718 53.2064 327.824 53.233V55.3807C327.71 55.3466 327.553 55.3163 327.352 55.2898C327.152 55.2633 326.968 55.25 326.801 55.25C326.445 55.25 326.127 55.3277 325.847 55.483C325.57 55.6345 325.35 55.8466 325.188 56.1193C325.028 56.392 324.949 56.7064 324.949 57.0625V62H322.528ZM332.778 62V53.2727H335.125V54.7955H335.216C335.375 54.2538 335.642 53.8447 336.017 53.5682C336.392 53.2879 336.824 53.1477 337.312 53.1477C337.434 53.1477 337.564 53.1553 337.705 53.1705C337.845 53.1856 337.968 53.2064 338.074 53.233V55.3807C337.96 55.3466 337.803 55.3163 337.602 55.2898C337.402 55.2633 337.218 55.25 337.051 55.25C336.695 55.25 336.377 55.3277 336.097 55.483C335.82 55.6345 335.6 55.8466 335.438 56.1193C335.278 56.392 335.199 56.7064 335.199 57.0625V62H332.778ZM342.896 62.1705C341.999 62.1705 341.226 61.9886 340.578 61.625C339.934 61.2576 339.438 60.7386 339.089 60.0682C338.741 59.3939 338.567 58.5966 338.567 57.6761C338.567 56.7784 338.741 55.9905 339.089 55.3125C339.438 54.6345 339.929 54.1061 340.561 53.7273C341.197 53.3485 341.944 53.1591 342.8 53.1591C343.375 53.1591 343.911 53.2519 344.408 53.4375C344.908 53.6193 345.343 53.8939 345.714 54.2614C346.089 54.6288 346.381 55.0909 346.589 55.6477C346.798 56.2008 346.902 56.8485 346.902 57.5909V58.2557H339.533V56.7557H344.624C344.624 56.4072 344.548 56.0985 344.396 55.8295C344.245 55.5606 344.035 55.3504 343.766 55.1989C343.5 55.0436 343.192 54.9659 342.839 54.9659C342.472 54.9659 342.146 55.0511 341.862 55.2216C341.582 55.3883 341.362 55.6136 341.203 55.8977C341.044 56.178 340.963 56.4905 340.959 56.8352V58.2614C340.959 58.6932 341.038 59.0663 341.197 59.3807C341.36 59.6951 341.589 59.9375 341.885 60.108C342.18 60.2784 342.531 60.3636 342.936 60.3636C343.205 60.3636 343.451 60.3258 343.675 60.25C343.898 60.1742 344.089 60.0606 344.249 59.9091C344.408 59.7576 344.529 59.572 344.612 59.3523L346.851 59.5C346.737 60.0379 346.504 60.5076 346.152 60.9091C345.804 61.3068 345.353 61.6174 344.8 61.8409C344.25 62.0606 343.616 62.1705 342.896 62.1705ZM355.743 55.7614L353.527 55.8977C353.489 55.7083 353.408 55.5379 353.283 55.3864C353.158 55.2311 352.993 55.108 352.788 55.017C352.588 54.9223 352.347 54.875 352.067 54.875C351.692 54.875 351.375 54.9545 351.118 55.1136C350.86 55.2689 350.732 55.4773 350.732 55.7386C350.732 55.947 350.815 56.1231 350.982 56.267C351.148 56.411 351.434 56.5265 351.839 56.6136L353.419 56.9318C354.268 57.1061 354.9 57.3864 355.317 57.7727C355.733 58.1591 355.942 58.6667 355.942 59.2955C355.942 59.8674 355.773 60.3693 355.436 60.8011C355.103 61.233 354.644 61.5701 354.061 61.8125C353.482 62.0511 352.813 62.1705 352.055 62.1705C350.9 62.1705 349.98 61.9299 349.294 61.4489C348.612 60.964 348.213 60.3049 348.095 59.4716L350.476 59.3466C350.548 59.6989 350.722 59.9678 350.999 60.1534C351.275 60.3352 351.629 60.4261 352.061 60.4261C352.485 60.4261 352.826 60.3447 353.084 60.1818C353.345 60.0152 353.478 59.8011 353.482 59.5398C353.478 59.3201 353.385 59.1402 353.203 59C353.021 58.8561 352.741 58.7462 352.362 58.6705L350.851 58.3693C349.999 58.1989 349.364 57.9034 348.947 57.483C348.535 57.0625 348.328 56.5265 348.328 55.875C348.328 55.3144 348.48 54.8314 348.783 54.4261C349.089 54.0208 349.519 53.7083 350.072 53.4886C350.629 53.2689 351.281 53.1591 352.027 53.1591C353.129 53.1591 353.997 53.392 354.629 53.858C355.266 54.3239 355.637 54.9583 355.743 55.7614ZM361.443 62.1705C360.545 62.1705 359.773 61.9886 359.125 61.625C358.481 61.2576 357.985 60.7386 357.636 60.0682C357.288 59.3939 357.114 58.5966 357.114 57.6761C357.114 56.7784 357.288 55.9905 357.636 55.3125C357.985 54.6345 358.475 54.1061 359.108 53.7273C359.744 53.3485 360.491 53.1591 361.347 53.1591C361.922 53.1591 362.458 53.2519 362.955 53.4375C363.455 53.6193 363.89 53.8939 364.261 54.2614C364.636 54.6288 364.928 55.0909 365.136 55.6477C365.345 56.2008 365.449 56.8485 365.449 57.5909V58.2557H358.08V56.7557H363.17C363.17 56.4072 363.095 56.0985 362.943 55.8295C362.792 55.5606 362.581 55.3504 362.312 55.1989C362.047 55.0436 361.739 54.9659 361.386 54.9659C361.019 54.9659 360.693 55.0511 360.409 55.2216C360.129 55.3883 359.909 55.6136 359.75 55.8977C359.591 56.178 359.509 56.4905 359.506 56.8352V58.2614C359.506 58.6932 359.585 59.0663 359.744 59.3807C359.907 59.6951 360.136 59.9375 360.432 60.108C360.727 60.2784 361.078 60.3636 361.483 60.3636C361.752 60.3636 361.998 60.3258 362.222 60.25C362.445 60.1742 362.636 60.0606 362.795 59.9091C362.955 59.7576 363.076 59.572 363.159 59.3523L365.398 59.5C365.284 60.0379 365.051 60.5076 364.699 60.9091C364.35 61.3068 363.9 61.6174 363.347 61.8409C362.797 62.0606 362.163 62.1705 361.443 62.1705ZM369.517 62.1648C368.96 62.1648 368.464 62.0682 368.028 61.875C367.593 61.678 367.248 61.3883 366.994 61.0057C366.744 60.6193 366.619 60.1383 366.619 59.5625C366.619 59.0777 366.708 58.6705 366.886 58.3409C367.064 58.0114 367.307 57.7462 367.614 57.5455C367.92 57.3447 368.269 57.1932 368.659 57.0909C369.053 56.9886 369.466 56.9167 369.898 56.875C370.405 56.822 370.814 56.7727 371.125 56.7273C371.436 56.678 371.661 56.6061 371.801 56.5114C371.941 56.4167 372.011 56.2765 372.011 56.0909V56.0568C372.011 55.697 371.898 55.4186 371.67 55.2216C371.447 55.0246 371.129 54.9261 370.716 54.9261C370.28 54.9261 369.934 55.0227 369.676 55.2159C369.419 55.4053 369.248 55.6439 369.165 55.9318L366.926 55.75C367.04 55.2197 367.263 54.7614 367.597 54.375C367.93 53.9848 368.36 53.6856 368.886 53.4773C369.417 53.2652 370.03 53.1591 370.727 53.1591C371.212 53.1591 371.676 53.2159 372.119 53.3295C372.566 53.4432 372.962 53.6193 373.307 53.858C373.655 54.0966 373.93 54.4034 374.131 54.7784C374.331 55.1496 374.432 55.5947 374.432 56.1136V62H372.136V60.7898H372.068C371.928 61.0625 371.741 61.303 371.506 61.5114C371.271 61.7159 370.989 61.8769 370.659 61.9943C370.33 62.108 369.949 62.1648 369.517 62.1648ZM370.21 60.4943C370.566 60.4943 370.881 60.4242 371.153 60.2841C371.426 60.1402 371.64 59.947 371.795 59.7045C371.951 59.4621 372.028 59.1875 372.028 58.8807V57.9545C371.953 58.0038 371.848 58.0492 371.716 58.0909C371.587 58.1288 371.441 58.1648 371.278 58.1989C371.116 58.2292 370.953 58.2576 370.79 58.2841C370.627 58.3068 370.479 58.3277 370.347 58.3466C370.063 58.3883 369.814 58.4545 369.602 58.5455C369.39 58.6364 369.225 58.7595 369.108 58.9148C368.991 59.0663 368.932 59.2557 368.932 59.483C368.932 59.8125 369.051 60.0644 369.29 60.2386C369.532 60.4091 369.839 60.4943 370.21 60.4943ZM376.31 62V53.2727H378.656V54.7955H378.747C378.906 54.2538 379.173 53.8447 379.548 53.5682C379.923 53.2879 380.355 53.1477 380.844 53.1477C380.965 53.1477 381.096 53.1553 381.236 53.1705C381.376 53.1856 381.499 53.2064 381.605 53.233V55.3807C381.491 55.3466 381.334 55.3163 381.134 55.2898C380.933 55.2633 380.749 55.25 380.582 55.25C380.226 55.25 379.908 55.3277 379.628 55.483C379.351 55.6345 379.132 55.8466 378.969 56.1193C378.81 56.392 378.73 56.7064 378.73 57.0625V62H376.31ZM386.393 62.1705C385.5 62.1705 384.731 61.9811 384.087 61.6023C383.446 61.2197 382.954 60.6894 382.609 60.0114C382.268 59.3333 382.098 58.553 382.098 57.6705C382.098 56.7765 382.27 55.9924 382.615 55.3182C382.964 54.6402 383.458 54.1117 384.098 53.733C384.738 53.3504 385.5 53.1591 386.382 53.1591C387.143 53.1591 387.81 53.2973 388.382 53.5739C388.954 53.8504 389.407 54.2386 389.74 54.7386C390.073 55.2386 390.257 55.8258 390.291 56.5H388.007C387.943 56.0644 387.772 55.714 387.496 55.4489C387.223 55.1799 386.865 55.0455 386.422 55.0455C386.047 55.0455 385.719 55.1477 385.439 55.3523C385.162 55.553 384.946 55.8466 384.791 56.233C384.636 56.6193 384.558 57.0871 384.558 57.6364C384.558 58.1932 384.634 58.6667 384.786 59.0568C384.941 59.447 385.159 59.7443 385.439 59.9489C385.719 60.1534 386.047 60.2557 386.422 60.2557C386.698 60.2557 386.946 60.1989 387.166 60.0852C387.39 59.9716 387.573 59.8068 387.717 59.5909C387.865 59.3712 387.962 59.108 388.007 58.8011H390.291C390.253 59.4678 390.071 60.0549 389.746 60.5625C389.424 61.0663 388.979 61.4602 388.411 61.7443C387.842 62.0284 387.17 62.1705 386.393 62.1705ZM394.261 56.9545V62H391.841V50.3636H394.193V54.8125H394.295C394.492 54.2973 394.811 53.8939 395.25 53.6023C395.689 53.3068 396.241 53.1591 396.903 53.1591C397.509 53.1591 398.038 53.2917 398.489 53.5568C398.943 53.8182 399.295 54.1951 399.545 54.6875C399.799 55.1761 399.924 55.7614 399.92 56.4432V62H397.5V56.875C397.504 56.3371 397.367 55.9186 397.091 55.6193C396.818 55.3201 396.436 55.1705 395.943 55.1705C395.614 55.1705 395.322 55.2405 395.068 55.3807C394.818 55.5208 394.621 55.7254 394.477 55.9943C394.337 56.2595 394.265 56.5795 394.261 56.9545ZM405.528 65.2727V53.2727H407.915V54.7386H408.023C408.129 54.5038 408.282 54.2652 408.483 54.0227C408.688 53.7765 408.953 53.572 409.278 53.4091C409.608 53.2424 410.017 53.1591 410.506 53.1591C411.142 53.1591 411.729 53.3258 412.267 53.6591C412.805 53.9886 413.235 54.4867 413.557 55.1534C413.879 55.8163 414.04 56.6477 414.04 57.6477C414.04 58.6212 413.883 59.4432 413.568 60.1136C413.258 60.7803 412.833 61.286 412.295 61.6307C411.761 61.9716 411.163 62.142 410.5 62.142C410.03 62.142 409.631 62.0644 409.301 61.9091C408.975 61.7538 408.708 61.5587 408.5 61.3239C408.292 61.0852 408.133 60.8447 408.023 60.6023H407.949V65.2727H405.528ZM407.898 57.6364C407.898 58.1553 407.97 58.608 408.114 58.9943C408.258 59.3807 408.466 59.6818 408.739 59.8977C409.011 60.1098 409.343 60.2159 409.733 60.2159C410.127 60.2159 410.46 60.108 410.733 59.892C411.006 59.6723 411.212 59.3693 411.352 58.983C411.496 58.5928 411.568 58.1439 411.568 57.6364C411.568 57.1326 411.498 56.6894 411.358 56.3068C411.218 55.9242 411.011 55.625 410.739 55.4091C410.466 55.1932 410.131 55.0852 409.733 55.0852C409.339 55.0852 409.006 55.1894 408.733 55.3977C408.464 55.6061 408.258 55.9015 408.114 56.2841C407.97 56.6667 407.898 57.1174 407.898 57.6364ZM418.142 62.1648C417.585 62.1648 417.089 62.0682 416.653 61.875C416.218 61.678 415.873 61.3883 415.619 61.0057C415.369 60.6193 415.244 60.1383 415.244 59.5625C415.244 59.0777 415.333 58.6705 415.511 58.3409C415.689 58.0114 415.932 57.7462 416.239 57.5455C416.545 57.3447 416.894 57.1932 417.284 57.0909C417.678 56.9886 418.091 56.9167 418.523 56.875C419.03 56.822 419.439 56.7727 419.75 56.7273C420.061 56.678 420.286 56.6061 420.426 56.5114C420.566 56.4167 420.636 56.2765 420.636 56.0909V56.0568C420.636 55.697 420.523 55.4186 420.295 55.2216C420.072 55.0246 419.754 54.9261 419.341 54.9261C418.905 54.9261 418.559 55.0227 418.301 55.2159C418.044 55.4053 417.873 55.6439 417.79 55.9318L415.551 55.75C415.665 55.2197 415.888 54.7614 416.222 54.375C416.555 53.9848 416.985 53.6856 417.511 53.4773C418.042 53.2652 418.655 53.1591 419.352 53.1591C419.837 53.1591 420.301 53.2159 420.744 53.3295C421.191 53.4432 421.587 53.6193 421.932 53.858C422.28 54.0966 422.555 54.4034 422.756 54.7784C422.956 55.1496 423.057 55.5947 423.057 56.1136V62H420.761V60.7898H420.693C420.553 61.0625 420.366 61.303 420.131 61.5114C419.896 61.7159 419.614 61.8769 419.284 61.9943C418.955 62.108 418.574 62.1648 418.142 62.1648ZM418.835 60.4943C419.191 60.4943 419.506 60.4242 419.778 60.2841C420.051 60.1402 420.265 59.947 420.42 59.7045C420.576 59.4621 420.653 59.1875 420.653 58.8807V57.9545C420.578 58.0038 420.473 58.0492 420.341 58.0909C420.212 58.1288 420.066 58.1648 419.903 58.1989C419.741 58.2292 419.578 58.2576 419.415 58.2841C419.252 58.3068 419.104 58.3277 418.972 58.3466C418.688 58.3883 418.439 58.4545 418.227 58.5455C418.015 58.6364 417.85 58.7595 417.733 58.9148C417.616 59.0663 417.557 59.2557 417.557 59.483C417.557 59.8125 417.676 60.0644 417.915 60.2386C418.157 60.4091 418.464 60.4943 418.835 60.4943ZM428.866 65.4545C428.082 65.4545 427.41 65.3466 426.849 65.1307C426.293 64.9186 425.849 64.6288 425.52 64.2614C425.19 63.8939 424.976 63.4811 424.878 63.0227L427.116 62.7216C427.185 62.8958 427.293 63.0587 427.44 63.2102C427.588 63.3617 427.783 63.483 428.026 63.5739C428.272 63.6686 428.571 63.7159 428.923 63.7159C429.45 63.7159 429.884 63.5871 430.224 63.3295C430.569 63.0758 430.741 62.6496 430.741 62.0511V60.4545H430.639C430.533 60.697 430.374 60.9261 430.162 61.142C429.95 61.358 429.677 61.5341 429.344 61.6705C429.01 61.8068 428.613 61.875 428.151 61.875C427.495 61.875 426.899 61.7235 426.361 61.4205C425.827 61.1136 425.401 60.6458 425.082 60.017C424.768 59.3845 424.611 58.5852 424.611 57.6193C424.611 56.6307 424.772 55.8049 425.094 55.142C425.416 54.4792 425.844 53.983 426.378 53.6534C426.916 53.3239 427.505 53.1591 428.145 53.1591C428.634 53.1591 429.043 53.2424 429.372 53.4091C429.702 53.572 429.967 53.7765 430.168 54.0227C430.372 54.2652 430.529 54.5038 430.639 54.7386H430.73V53.2727H433.134V62.0852C433.134 62.8277 432.952 63.4489 432.588 63.9489C432.224 64.4489 431.721 64.8239 431.077 65.0739C430.437 65.3277 429.7 65.4545 428.866 65.4545ZM428.918 60.0568C429.308 60.0568 429.637 59.9602 429.906 59.767C430.179 59.5701 430.387 59.2898 430.531 58.9261C430.679 58.5587 430.753 58.1193 430.753 57.608C430.753 57.0966 430.681 56.6534 430.537 56.2784C430.393 55.8996 430.185 55.6061 429.912 55.3977C429.639 55.1894 429.308 55.0852 428.918 55.0852C428.52 55.0852 428.185 55.1932 427.912 55.4091C427.639 55.6212 427.433 55.9167 427.293 56.2955C427.152 56.6742 427.082 57.1117 427.082 57.608C427.082 58.1117 427.152 58.5473 427.293 58.9148C427.437 59.2784 427.643 59.5606 427.912 59.7614C428.185 59.9583 428.52 60.0568 428.918 60.0568ZM439.037 62.1705C438.139 62.1705 437.366 61.9886 436.719 61.625C436.075 61.2576 435.579 60.7386 435.23 60.0682C434.882 59.3939 434.707 58.5966 434.707 57.6761C434.707 56.7784 434.882 55.9905 435.23 55.3125C435.579 54.6345 436.069 54.1061 436.702 53.7273C437.338 53.3485 438.084 53.1591 438.94 53.1591C439.516 53.1591 440.052 53.2519 440.548 53.4375C441.048 53.6193 441.484 53.8939 441.855 54.2614C442.23 54.6288 442.522 55.0909 442.73 55.6477C442.938 56.2008 443.043 56.8485 443.043 57.5909V58.2557H435.673V56.7557H440.764C440.764 56.4072 440.688 56.0985 440.537 55.8295C440.385 55.5606 440.175 55.3504 439.906 55.1989C439.641 55.0436 439.332 54.9659 438.98 54.9659C438.613 54.9659 438.287 55.0511 438.003 55.2216C437.723 55.3883 437.503 55.6136 437.344 55.8977C437.185 56.178 437.103 56.4905 437.099 56.8352V58.2614C437.099 58.6932 437.179 59.0663 437.338 59.3807C437.501 59.6951 437.73 59.9375 438.026 60.108C438.321 60.2784 438.671 60.3636 439.077 60.3636C439.346 60.3636 439.592 60.3258 439.815 60.25C440.039 60.1742 440.23 60.0606 440.389 59.9091C440.548 59.7576 440.67 59.572 440.753 59.3523L442.991 59.5C442.878 60.0379 442.645 60.5076 442.293 60.9091C441.944 61.3068 441.493 61.6174 440.94 61.8409C440.391 62.0606 439.757 62.1705 439.037 62.1705Z" fill="white" fill-opacity="0.8"/>
<rect x="20.5" y="81.5" width="427" height="29" rx="1.5" fill="#222222"/>
<path d="M35.868 98.14H32.22L31.548 100H30.396L33.42 91.684H34.68L37.692 100H36.54L35.868 98.14ZM35.556 97.252L34.044 93.028L32.532 97.252H35.556ZM38.6019 96.688C38.6019 96.016 38.7379 95.428 39.0099 94.924C39.2819 94.412 39.6539 94.016 40.1259 93.736C40.6059 93.456 41.1419 93.316 41.7339 93.316C42.2459 93.316 42.7219 93.436 43.1619 93.676C43.6019 93.908 43.9379 94.216 44.1699 94.6V91.12H45.2739V100H44.1699V98.764C43.9539 99.156 43.6339 99.48 43.2099 99.736C42.7859 99.984 42.2899 100.108 41.7219 100.108C41.1379 100.108 40.6059 99.964 40.1259 99.676C39.6539 99.388 39.2819 98.984 39.0099 98.464C38.7379 97.944 38.6019 97.352 38.6019 96.688ZM44.1699 96.7C44.1699 96.204 44.0699 95.772 43.8699 95.404C43.6699 95.036 43.3979 94.756 43.0539 94.564C42.7179 94.364 42.3459 94.264 41.9379 94.264C41.5299 94.264 41.1579 94.36 40.8219 94.552C40.4859 94.744 40.2179 95.024 40.0179 95.392C39.8179 95.76 39.7179 96.192 39.7179 96.688C39.7179 97.192 39.8179 97.632 40.0179 98.008C40.2179 98.376 40.4859 98.66 40.8219 98.86C41.1579 99.052 41.5299 99.148 41.9379 99.148C42.3459 99.148 42.7179 99.052 43.0539 98.86C43.3979 98.66 43.6699 98.376 43.8699 98.008C44.0699 97.632 44.1699 97.196 44.1699 96.7ZM46.7113 96.688C46.7113 96.016 46.8473 95.428 47.1193 94.924C47.3913 94.412 47.7633 94.016 48.2353 93.736C48.7153 93.456 49.2513 93.316 49.8433 93.316C50.3553 93.316 50.8313 93.436 51.2713 93.676C51.7113 93.908 52.0473 94.216 52.2793 94.6V91.12H53.3833V100H52.2793V98.764C52.0633 99.156 51.7433 99.48 51.3193 99.736C50.8953 99.984 50.3993 100.108 49.8313 100.108C49.2473 100.108 48.7153 99.964 48.2353 99.676C47.7633 99.388 47.3913 98.984 47.1193 98.464C46.8473 97.944 46.7113 97.352 46.7113 96.688ZM52.2793 96.7C52.2793 96.204 52.1793 95.772 51.9793 95.404C51.7793 95.036 51.5073 94.756 51.1633 94.564C50.8273 94.364 50.4553 94.264 50.0473 94.264C49.6393 94.264 49.2673 94.36 48.9313 94.552C48.5953 94.744 48.3273 95.024 48.1273 95.392C47.9273 95.76 47.8273 96.192 47.8273 96.688C47.8273 97.192 47.9273 97.632 48.1273 98.008C48.3273 98.376 48.5953 98.66 48.9313 98.86C49.2673 99.052 49.6393 99.148 50.0473 99.148C50.4553 99.148 50.8273 99.052 51.1633 98.86C51.5073 98.66 51.7793 98.376 51.9793 98.008C52.1793 97.632 52.2793 97.196 52.2793 96.7ZM55.7927 92.356C55.5847 92.356 55.4087 92.284 55.2647 92.14C55.1207 91.996 55.0487 91.82 55.0487 91.612C55.0487 91.404 55.1207 91.228 55.2647 91.084C55.4087 90.94 55.5847 90.868 55.7927 90.868C55.9927 90.868 56.1607 90.94 56.2967 91.084C56.4407 91.228 56.5127 91.404 56.5127 91.612C56.5127 91.82 56.4407 91.996 56.2967 92.14C56.1607 92.284 55.9927 92.356 55.7927 92.356ZM56.3207 93.424V100H55.2287V93.424H56.3207ZM61.3858 93.304C62.1858 93.304 62.8338 93.548 63.3298 94.036C63.8258 94.516 64.0738 95.212 64.0738 96.124V100H62.9938V96.28C62.9938 95.624 62.8298 95.124 62.5018 94.78C62.1738 94.428 61.7258 94.252 61.1578 94.252C60.5818 94.252 60.1218 94.432 59.7778 94.792C59.4418 95.152 59.2738 95.676 59.2738 96.364V100H58.1818V93.424H59.2738V94.36C59.4898 94.024 59.7818 93.764 60.1498 93.58C60.5258 93.396 60.9378 93.304 61.3858 93.304ZM68.5696 93.316C69.1376 93.316 69.6336 93.44 70.0576 93.688C70.4896 93.936 70.8096 94.248 71.0176 94.624V93.424H72.1216V100.144C72.1216 100.744 71.9936 101.276 71.7376 101.74C71.4816 102.212 71.1136 102.58 70.6336 102.844C70.1616 103.108 69.6096 103.24 68.9776 103.24C68.1136 103.24 67.3936 103.036 66.8176 102.628C66.2416 102.22 65.9016 101.664 65.7976 100.96H66.8776C66.9976 101.36 67.2456 101.68 67.6216 101.92C67.9976 102.168 68.4496 102.292 68.9776 102.292C69.5776 102.292 70.0656 102.104 70.4416 101.728C70.8256 101.352 71.0176 100.824 71.0176 100.144V98.764C70.8016 99.148 70.4816 99.468 70.0576 99.724C69.6336 99.98 69.1376 100.108 68.5696 100.108C67.9856 100.108 67.4536 99.964 66.9736 99.676C66.5016 99.388 66.1296 98.984 65.8576 98.464C65.5856 97.944 65.4496 97.352 65.4496 96.688C65.4496 96.016 65.5856 95.428 65.8576 94.924C66.1296 94.412 66.5016 94.016 66.9736 93.736C67.4536 93.456 67.9856 93.316 68.5696 93.316ZM71.0176 96.7C71.0176 96.204 70.9176 95.772 70.7176 95.404C70.5176 95.036 70.2456 94.756 69.9016 94.564C69.5656 94.364 69.1936 94.264 68.7856 94.264C68.3776 94.264 68.0056 94.36 67.6696 94.552C67.3336 94.744 67.0656 95.024 66.8656 95.392C66.6656 95.76 66.5656 96.192 66.5656 96.688C66.5656 97.192 66.6656 97.632 66.8656 98.008C67.0656 98.376 67.3336 98.66 67.6696 98.86C68.0056 99.052 68.3776 99.148 68.7856 99.148C69.1936 99.148 69.5656 99.052 69.9016 98.86C70.2456 98.66 70.5176 98.376 70.7176 98.008C70.9176 97.632 71.0176 97.196 71.0176 96.7ZM78.2582 94.492C78.4502 94.116 78.7222 93.824 79.0742 93.616C79.4342 93.408 79.8702 93.304 80.3822 93.304V94.432H80.0942C78.8702 94.432 78.2582 95.096 78.2582 96.424V100H77.1662V93.424H78.2582V94.492ZM87.6428 96.46C87.6428 96.668 87.6308 96.888 87.6068 97.12H82.3508C82.3908 97.768 82.6108 98.276 83.0108 98.644C83.4188 99.004 83.9108 99.184 84.4868 99.184C84.9588 99.184 85.3508 99.076 85.6628 98.86C85.9828 98.636 86.2068 98.34 86.3348 97.972H87.5108C87.3348 98.604 86.9828 99.12 86.4548 99.52C85.9268 99.912 85.2708 100.108 84.4868 100.108C83.8628 100.108 83.3028 99.968 82.8068 99.688C82.3188 99.408 81.9348 99.012 81.6548 98.5C81.3748 97.98 81.2348 97.38 81.2348 96.7C81.2348 96.02 81.3708 95.424 81.6428 94.912C81.9148 94.4 82.2948 94.008 82.7828 93.736C83.2788 93.456 83.8468 93.316 84.4868 93.316C85.1108 93.316 85.6628 93.452 86.1428 93.724C86.6228 93.996 86.9908 94.372 87.2468 94.852C87.5108 95.324 87.6428 95.86 87.6428 96.46ZM86.5148 96.232C86.5148 95.816 86.4228 95.46 86.2388 95.164C86.0548 94.86 85.8028 94.632 85.4828 94.48C85.1708 94.32 84.8228 94.24 84.4388 94.24C83.8868 94.24 83.4148 94.416 83.0228 94.768C82.6388 95.12 82.4188 95.608 82.3628 96.232H86.5148ZM91.4122 100.108C90.9082 100.108 90.4562 100.024 90.0562 99.856C89.6562 99.68 89.3402 99.44 89.1082 99.136C88.8762 98.824 88.7482 98.468 88.7242 98.068H89.8522C89.8842 98.396 90.0362 98.664 90.3082 98.872C90.5882 99.08 90.9522 99.184 91.4002 99.184C91.8162 99.184 92.1442 99.092 92.3842 98.908C92.6242 98.724 92.7442 98.492 92.7442 98.212C92.7442 97.924 92.6162 97.712 92.3602 97.576C92.1042 97.432 91.7082 97.292 91.1722 97.156C90.6842 97.028 90.2842 96.9 89.9722 96.772C89.6682 96.636 89.4042 96.44 89.1802 96.184C88.9642 95.92 88.8562 95.576 88.8562 95.152C88.8562 94.816 88.9562 94.508 89.1562 94.228C89.3562 93.948 89.6402 93.728 90.0082 93.568C90.3762 93.4 90.7962 93.316 91.2682 93.316C91.9962 93.316 92.5842 93.5 93.0322 93.868C93.4802 94.236 93.7202 94.74 93.7522 95.38H92.6602C92.6362 95.036 92.4962 94.76 92.2402 94.552C91.9922 94.344 91.6562 94.24 91.2322 94.24C90.8402 94.24 90.5282 94.324 90.2962 94.492C90.0642 94.66 89.9482 94.88 89.9482 95.152C89.9482 95.368 90.0162 95.548 90.1522 95.692C90.2962 95.828 90.4722 95.94 90.6802 96.028C90.8962 96.108 91.1922 96.2 91.5682 96.304C92.0402 96.432 92.4242 96.56 92.7202 96.688C93.0162 96.808 93.2682 96.992 93.4762 97.24C93.6922 97.488 93.8042 97.812 93.8122 98.212C93.8122 98.572 93.7122 98.896 93.5122 99.184C93.3122 99.472 93.0282 99.7 92.6602 99.868C92.3002 100.028 91.8842 100.108 91.4122 100.108ZM101.354 96.46C101.354 96.668 101.342 96.888 101.318 97.12H96.0617C96.1017 97.768 96.3217 98.276 96.7217 98.644C97.1297 99.004 97.6217 99.184 98.1977 99.184C98.6697 99.184 99.0617 99.076 99.3737 98.86C99.6937 98.636 99.9177 98.34 100.046 97.972H101.222C101.046 98.604 100.694 99.12 100.166 99.52C99.6377 99.912 98.9817 100.108 98.1977 100.108C97.5737 100.108 97.0137 99.968 96.5177 99.688C96.0297 99.408 95.6457 99.012 95.3657 98.5C95.0857 97.98 94.9457 97.38 94.9457 96.7C94.9457 96.02 95.0817 95.424 95.3537 94.912C95.6257 94.4 96.0057 94.008 96.4937 93.736C96.9897 93.456 97.5577 93.316 98.1977 93.316C98.8217 93.316 99.3737 93.452 99.8537 93.724C100.334 93.996 100.702 94.372 100.958 94.852C101.222 95.324 101.354 95.86 101.354 96.46ZM100.226 96.232C100.226 95.816 100.134 95.46 99.9497 95.164C99.7657 94.86 99.5137 94.632 99.1937 94.48C98.8817 94.32 98.5337 94.24 98.1497 94.24C97.5977 94.24 97.1257 94.416 96.7337 94.768C96.3497 95.12 96.1297 95.608 96.0737 96.232H100.226ZM102.387 96.688C102.387 96.016 102.523 95.428 102.795 94.924C103.067 94.412 103.439 94.016 103.911 93.736C104.391 93.456 104.923 93.316 105.507 93.316C106.083 93.316 106.583 93.44 107.007 93.688C107.431 93.936 107.747 94.248 107.955 94.624V93.424H109.059V100H107.955V98.776C107.739 99.16 107.415 99.48 106.983 99.736C106.559 99.984 106.063 100.108 105.495 100.108C104.911 100.108 104.383 99.964 103.911 99.676C103.439 99.388 103.067 98.984 102.795 98.464C102.523 97.944 102.387 97.352 102.387 96.688ZM107.955 96.7C107.955 96.204 107.855 95.772 107.655 95.404C107.455 95.036 107.183 94.756 106.839 94.564C106.503 94.364 106.131 94.264 105.723 94.264C105.315 94.264 104.943 94.36 104.607 94.552C104.271 94.744 104.003 95.024 103.803 95.392C103.603 95.76 103.503 96.192 103.503 96.688C103.503 97.192 103.603 97.632 103.803 98.008C104.003 98.376 104.271 98.66 104.607 98.86C104.943 99.052 105.315 99.148 105.723 99.148C106.131 99.148 106.503 99.052 106.839 98.86C107.183 98.66 107.455 98.376 107.655 98.008C107.855 97.632 107.955 97.196 107.955 96.7ZM111.996 94.492C112.188 94.116 112.46 93.824 112.812 93.616C113.172 93.408 113.608 93.304 114.12 93.304V94.432H113.832C112.608 94.432 111.996 95.096 111.996 96.424V100H110.904V93.424H111.996V94.492ZM114.973 96.7C114.973 96.02 115.109 95.428 115.381 94.924C115.653 94.412 116.029 94.016 116.509 93.736C116.997 93.456 117.553 93.316 118.177 93.316C118.985 93.316 119.649 93.512 120.169 93.904C120.697 94.296 121.045 94.84 121.213 95.536H120.037C119.925 95.136 119.705 94.82 119.377 94.588C119.057 94.356 118.657 94.24 118.177 94.24C117.553 94.24 117.049 94.456 116.665 94.888C116.281 95.312 116.089 95.916 116.089 96.7C116.089 97.492 116.281 98.104 116.665 98.536C117.049 98.968 117.553 99.184 118.177 99.184C118.657 99.184 119.057 99.072 119.377 98.848C119.697 98.624 119.917 98.304 120.037 97.888H121.213C121.037 98.56 120.685 99.1 120.157 99.508C119.629 99.908 118.969 100.108 118.177 100.108C117.553 100.108 116.997 99.968 116.509 99.688C116.029 99.408 115.653 99.012 115.381 98.5C115.109 97.988 114.973 97.388 114.973 96.7ZM125.934 93.304C126.43 93.304 126.878 93.412 127.278 93.628C127.678 93.836 127.99 94.152 128.214 94.576C128.446 95 128.562 95.516 128.562 96.124V100H127.482V96.28C127.482 95.624 127.318 95.124 126.99 94.78C126.662 94.428 126.214 94.252 125.646 94.252C125.07 94.252 124.61 94.432 124.266 94.792C123.93 95.152 123.762 95.676 123.762 96.364V100H122.67V91.12H123.762V94.36C123.978 94.024 124.274 93.764 124.65 93.58C125.034 93.396 125.462 93.304 125.934 93.304ZM133.137 96.688C133.137 96.016 133.273 95.428 133.545 94.924C133.817 94.412 134.189 94.016 134.661 93.736C135.141 93.456 135.677 93.316 136.269 93.316C136.781 93.316 137.257 93.436 137.697 93.676C138.137 93.908 138.473 94.216 138.705 94.6V91.12H139.809V100H138.705V98.764C138.489 99.156 138.169 99.48 137.745 99.736C137.321 99.984 136.825 100.108 136.257 100.108C135.673 100.108 135.141 99.964 134.661 99.676C134.189 99.388 133.817 98.984 133.545 98.464C133.273 97.944 133.137 97.352 133.137 96.688ZM138.705 96.7C138.705 96.204 138.605 95.772 138.405 95.404C138.205 95.036 137.933 94.756 137.589 94.564C137.253 94.364 136.881 94.264 136.473 94.264C136.065 94.264 135.693 94.36 135.357 94.552C135.021 94.744 134.753 95.024 134.553 95.392C134.353 95.76 134.253 96.192 134.253 96.688C134.253 97.192 134.353 97.632 134.553 98.008C134.753 98.376 135.021 98.66 135.357 98.86C135.693 99.052 136.065 99.148 136.473 99.148C136.881 99.148 137.253 99.052 137.589 98.86C137.933 98.66 138.205 98.376 138.405 98.008C138.605 97.632 138.705 97.196 138.705 96.7ZM147.654 96.46C147.654 96.668 147.642 96.888 147.618 97.12H142.362C142.402 97.768 142.622 98.276 143.022 98.644C143.43 99.004 143.922 99.184 144.498 99.184C144.97 99.184 145.362 99.076 145.674 98.86C145.994 98.636 146.218 98.34 146.346 97.972H147.522C147.346 98.604 146.994 99.12 146.466 99.52C145.938 99.912 145.282 100.108 144.498 100.108C143.874 100.108 143.314 99.968 142.818 99.688C142.33 99.408 141.946 99.012 141.666 98.5C141.386 97.98 141.246 97.38 141.246 96.7C141.246 96.02 141.382 95.424 141.654 94.912C141.926 94.4 142.306 94.008 142.794 93.736C143.29 93.456 143.858 93.316 144.498 93.316C145.122 93.316 145.674 93.452 146.154 93.724C146.634 93.996 147.002 94.372 147.258 94.852C147.522 95.324 147.654 95.86 147.654 96.46ZM146.526 96.232C146.526 95.816 146.434 95.46 146.25 95.164C146.066 94.86 145.814 94.632 145.494 94.48C145.182 94.32 144.834 94.24 144.45 94.24C143.898 94.24 143.426 94.416 143.034 94.768C142.65 95.12 142.43 95.608 142.374 96.232H146.526ZM151.424 100.108C150.92 100.108 150.468 100.024 150.068 99.856C149.668 99.68 149.352 99.44 149.12 99.136C148.888 98.824 148.76 98.468 148.736 98.068H149.864C149.896 98.396 150.048 98.664 150.32 98.872C150.6 99.08 150.964 99.184 151.412 99.184C151.828 99.184 152.156 99.092 152.396 98.908C152.636 98.724 152.756 98.492 152.756 98.212C152.756 97.924 152.628 97.712 152.372 97.576C152.116 97.432 151.72 97.292 151.184 97.156C150.696 97.028 150.296 96.9 149.984 96.772C149.68 96.636 149.416 96.44 149.192 96.184C148.976 95.92 148.868 95.576 148.868 95.152C148.868 94.816 148.968 94.508 149.168 94.228C149.368 93.948 149.652 93.728 150.02 93.568C150.388 93.4 150.808 93.316 151.28 93.316C152.008 93.316 152.596 93.5 153.044 93.868C153.492 94.236 153.732 94.74 153.764 95.38H152.672C152.648 95.036 152.508 94.76 152.252 94.552C152.004 94.344 151.668 94.24 151.244 94.24C150.852 94.24 150.54 94.324 150.308 94.492C150.076 94.66 149.96 94.88 149.96 95.152C149.96 95.368 150.028 95.548 150.164 95.692C150.308 95.828 150.484 95.94 150.692 96.028C150.908 96.108 151.204 96.2 151.58 96.304C152.052 96.432 152.436 96.56 152.732 96.688C153.028 96.808 153.28 96.992 153.488 97.24C153.704 97.488 153.816 97.812 153.824 98.212C153.824 98.572 153.724 98.896 153.524 99.184C153.324 99.472 153.04 99.7 152.672 99.868C152.312 100.028 151.896 100.108 151.424 100.108ZM154.957 96.7C154.957 96.02 155.093 95.428 155.365 94.924C155.637 94.412 156.013 94.016 156.493 93.736C156.981 93.456 157.537 93.316 158.161 93.316C158.969 93.316 159.633 93.512 160.153 93.904C160.681 94.296 161.029 94.84 161.197 95.536H160.021C159.909 95.136 159.689 94.82 159.361 94.588C159.041 94.356 158.641 94.24 158.161 94.24C157.537 94.24 157.033 94.456 156.649 94.888C156.265 95.312 156.073 95.916 156.073 96.7C156.073 97.492 156.265 98.104 156.649 98.536C157.033 98.968 157.537 99.184 158.161 99.184C158.641 99.184 159.041 99.072 159.361 98.848C159.681 98.624 159.901 98.304 160.021 97.888H161.197C161.021 98.56 160.669 99.1 160.141 99.508C159.613 99.908 158.953 100.108 158.161 100.108C157.537 100.108 156.981 99.968 156.493 99.688C156.013 99.408 155.637 99.012 155.365 98.5C155.093 97.988 154.957 97.388 154.957 96.7ZM163.746 94.492C163.938 94.116 164.21 93.824 164.562 93.616C164.922 93.408 165.358 93.304 165.87 93.304V94.432H165.582C164.358 94.432 163.746 95.096 163.746 96.424V100H162.654V93.424H163.746V94.492ZM167.695 92.356C167.487 92.356 167.311 92.284 167.167 92.14C167.023 91.996 166.951 91.82 166.951 91.612C166.951 91.404 167.023 91.228 167.167 91.084C167.311 90.94 167.487 90.868 167.695 90.868C167.895 90.868 168.063 90.94 168.199 91.084C168.343 91.228 168.415 91.404 168.415 91.612C168.415 91.82 168.343 91.996 168.199 92.14C168.063 92.284 167.895 92.356 167.695 92.356ZM168.223 93.424V100H167.131V93.424H168.223ZM171.176 94.636C171.392 94.26 171.712 93.948 172.136 93.7C172.568 93.444 173.068 93.316 173.636 93.316C174.22 93.316 174.748 93.456 175.22 93.736C175.7 94.016 176.076 94.412 176.348 94.924C176.62 95.428 176.756 96.016 176.756 96.688C176.756 97.352 176.62 97.944 176.348 98.464C176.076 98.984 175.7 99.388 175.22 99.676C174.748 99.964 174.22 100.108 173.636 100.108C173.076 100.108 172.58 99.984 172.148 99.736C171.724 99.48 171.4 99.164 171.176 98.788V103.12H170.084V93.424H171.176V94.636ZM175.64 96.688C175.64 96.192 175.54 95.76 175.34 95.392C175.14 95.024 174.868 94.744 174.524 94.552C174.188 94.36 173.816 94.264 173.408 94.264C173.008 94.264 172.636 94.364 172.292 94.564C171.956 94.756 171.684 95.04 171.476 95.416C171.276 95.784 171.176 96.212 171.176 96.7C171.176 97.196 171.276 97.632 171.476 98.008C171.684 98.376 171.956 98.66 172.292 98.86C172.636 99.052 173.008 99.148 173.408 99.148C173.816 99.148 174.188 99.052 174.524 98.86C174.868 98.66 175.14 98.376 175.34 98.008C175.54 97.632 175.64 97.192 175.64 96.688ZM179.526 94.324V98.2C179.526 98.52 179.594 98.748 179.73 98.884C179.866 99.012 180.102 99.076 180.438 99.076H181.242V100H180.258C179.65 100 179.194 99.86 178.89 99.58C178.586 99.3 178.434 98.84 178.434 98.2V94.324H177.582V93.424H178.434V91.768H179.526V93.424H181.242V94.324H179.526ZM183.129 92.356C182.921 92.356 182.745 92.284 182.601 92.14C182.457 91.996 182.385 91.82 182.385 91.612C182.385 91.404 182.457 91.228 182.601 91.084C182.745 90.94 182.921 90.868 183.129 90.868C183.329 90.868 183.497 90.94 183.633 91.084C183.777 91.228 183.849 91.404 183.849 91.612C183.849 91.82 183.777 91.996 183.633 92.14C183.497 92.284 183.329 92.356 183.129 92.356ZM183.657 93.424V100H182.565V93.424H183.657ZM188.386 100.108C187.77 100.108 187.21 99.968 186.706 99.688C186.21 99.408 185.818 99.012 185.53 98.5C185.25 97.98 185.11 97.38 185.11 96.7C185.11 96.028 185.254 95.436 185.542 94.924C185.838 94.404 186.238 94.008 186.742 93.736C187.246 93.456 187.81 93.316 188.434 93.316C189.058 93.316 189.622 93.456 190.126 93.736C190.63 94.008 191.026 94.4 191.314 94.912C191.61 95.424 191.758 96.02 191.758 96.7C191.758 97.38 191.606 97.98 191.302 98.5C191.006 99.012 190.602 99.408 190.09 99.688C189.578 99.968 189.01 100.108 188.386 100.108ZM188.386 99.148C188.778 99.148 189.146 99.056 189.49 98.872C189.834 98.688 190.11 98.412 190.318 98.044C190.534 97.676 190.642 97.228 190.642 96.7C190.642 96.172 190.538 95.724 190.33 95.356C190.122 94.988 189.85 94.716 189.514 94.54C189.178 94.356 188.814 94.264 188.422 94.264C188.022 94.264 187.654 94.356 187.318 94.54C186.99 94.716 186.726 94.988 186.526 95.356C186.326 95.724 186.226 96.172 186.226 96.7C186.226 97.236 186.322 97.688 186.514 98.056C186.714 98.424 186.978 98.7 187.306 98.884C187.634 99.06 187.994 99.148 188.386 99.148ZM196.398 93.304C197.198 93.304 197.846 93.548 198.342 94.036C198.838 94.516 199.086 95.212 199.086 96.124V100H198.006V96.28C198.006 95.624 197.842 95.124 197.514 94.78C197.186 94.428 196.738 94.252 196.17 94.252C195.594 94.252 195.134 94.432 194.79 94.792C194.454 95.152 194.286 95.676 194.286 96.364V100H193.194V93.424H194.286V94.36C194.502 94.024 194.794 93.764 195.162 93.58C195.538 93.396 195.95 93.304 196.398 93.304ZM203.197 100.108C202.693 100.108 202.241 100.024 201.841 99.856C201.441 99.68 201.125 99.44 200.893 99.136C200.661 98.824 200.533 98.468 200.509 98.068H201.637C201.669 98.396 201.821 98.664 202.093 98.872C202.373 99.08 202.737 99.184 203.185 99.184C203.601 99.184 203.929 99.092 204.169 98.908C204.409 98.724 204.529 98.492 204.529 98.212C204.529 97.924 204.401 97.712 204.145 97.576C203.889 97.432 203.493 97.292 202.957 97.156C202.469 97.028 202.069 96.9 201.757 96.772C201.453 96.636 201.189 96.44 200.965 96.184C200.749 95.92 200.641 95.576 200.641 95.152C200.641 94.816 200.741 94.508 200.941 94.228C201.141 93.948 201.425 93.728 201.793 93.568C202.161 93.4 202.581 93.316 203.053 93.316C203.781 93.316 204.369 93.5 204.817 93.868C205.265 94.236 205.505 94.74 205.537 95.38H204.445C204.421 95.036 204.281 94.76 204.025 94.552C203.777 94.344 203.441 94.24 203.017 94.24C202.625 94.24 202.313 94.324 202.081 94.492C201.849 94.66 201.733 94.88 201.733 95.152C201.733 95.368 201.801 95.548 201.937 95.692C202.081 95.828 202.257 95.94 202.465 96.028C202.681 96.108 202.977 96.2 203.353 96.304C203.825 96.432 204.209 96.56 204.505 96.688C204.801 96.808 205.053 96.992 205.261 97.24C205.477 97.488 205.589 97.812 205.597 98.212C205.597 98.572 205.497 98.896 205.297 99.184C205.097 99.472 204.813 99.7 204.445 99.868C204.085 100.028 203.669 100.108 203.197 100.108Z" fill="#888888"/>
<rect x="20.5" y="81.5" width="427" height="29" rx="1.5" stroke="#333333"/>
<rect x="20.5" y="121.5" width="427" height="29" rx="1.5" fill="#222222"/>
<path d="M30.516 135.812C30.516 134.996 30.7 134.264 31.068 133.616C31.436 132.96 31.936 132.448 32.568 132.08C33.208 131.712 33.916 131.528 34.692 131.528C35.604 131.528 36.4 131.748 37.08 132.188C37.76 132.628 38.256 133.252 38.568 134.06H37.26C37.028 133.556 36.692 133.168 36.252 132.896C35.82 132.624 35.3 132.488 34.692 132.488C34.108 132.488 33.584 132.624 33.12 132.896C32.656 133.168 32.292 133.556 32.028 134.06C31.764 134.556 31.632 135.14 31.632 135.812C31.632 136.476 31.764 137.06 32.028 137.564C32.292 138.06 32.656 138.444 33.12 138.716C33.584 138.988 34.108 139.124 34.692 139.124C35.3 139.124 35.82 138.992 36.252 138.728C36.692 138.456 37.028 138.068 37.26 137.564H38.568C38.256 138.364 37.76 138.984 37.08 139.424C36.4 139.856 35.604 140.072 34.692 140.072C33.916 140.072 33.208 139.892 32.568 139.532C31.936 139.164 31.436 138.656 31.068 138.008C30.7 137.36 30.516 136.628 30.516 135.812ZM41.2855 134.492C41.4775 134.116 41.7495 133.824 42.1015 133.616C42.4615 133.408 42.8975 133.304 43.4095 133.304V134.432H43.1215C41.8975 134.432 41.2855 135.096 41.2855 136.424V140H40.1935V133.424H41.2855V134.492ZM50.6701 136.46C50.6701 136.668 50.6581 136.888 50.6341 137.12H45.3781C45.4181 137.768 45.6381 138.276 46.0381 138.644C46.4461 139.004 46.9381 139.184 47.5141 139.184C47.9861 139.184 48.3781 139.076 48.6901 138.86C49.0101 138.636 49.2341 138.34 49.3621 137.972H50.5381C50.3621 138.604 50.0101 139.12 49.4821 139.52C48.9541 139.912 48.2981 140.108 47.5141 140.108C46.8901 140.108 46.3301 139.968 45.8341 139.688C45.3461 139.408 44.9621 139.012 44.6821 138.5C44.4021 137.98 44.2621 137.38 44.2621 136.7C44.2621 136.02 44.3981 135.424 44.6701 134.912C44.9421 134.4 45.3221 134.008 45.8101 133.736C46.3061 133.456 46.8741 133.316 47.5141 133.316C48.1381 133.316 48.6901 133.452 49.1701 133.724C49.6501 133.996 50.0181 134.372 50.2741 134.852C50.5381 135.324 50.6701 135.86 50.6701 136.46ZM49.5421 136.232C49.5421 135.816 49.4501 135.46 49.2661 135.164C49.0821 134.86 48.8301 134.632 48.5101 134.48C48.1981 134.32 47.8501 134.24 47.4661 134.24C46.9141 134.24 46.4421 134.416 46.0501 134.768C45.6661 135.12 45.4461 135.608 45.3901 136.232H49.5421ZM51.7035 136.688C51.7035 136.016 51.8395 135.428 52.1115 134.924C52.3835 134.412 52.7555 134.016 53.2275 133.736C53.7075 133.456 54.2395 133.316 54.8235 133.316C55.3995 133.316 55.8995 133.44 56.3235 133.688C56.7475 133.936 57.0635 134.248 57.2715 134.624V133.424H58.3755V140H57.2715V138.776C57.0555 139.16 56.7315 139.48 56.2995 139.736C55.8755 139.984 55.3795 140.108 54.8115 140.108C54.2275 140.108 53.6995 139.964 53.2275 139.676C52.7555 139.388 52.3835 138.984 52.1115 138.464C51.8395 137.944 51.7035 137.352 51.7035 136.688ZM57.2715 136.7C57.2715 136.204 57.1715 135.772 56.9715 135.404C56.7715 135.036 56.4995 134.756 56.1555 134.564C55.8195 134.364 55.4475 134.264 55.0395 134.264C54.6315 134.264 54.2595 134.36 53.9235 134.552C53.5875 134.744 53.3195 135.024 53.1195 135.392C52.9195 135.76 52.8195 136.192 52.8195 136.688C52.8195 137.192 52.9195 137.632 53.1195 138.008C53.3195 138.376 53.5875 138.66 53.9235 138.86C54.2595 139.052 54.6315 139.148 55.0395 139.148C55.4475 139.148 55.8195 139.052 56.1555 138.86C56.4995 138.66 56.7715 138.376 56.9715 138.008C57.1715 137.632 57.2715 137.196 57.2715 136.7ZM61.5529 134.324V138.2C61.5529 138.52 61.6209 138.748 61.7569 138.884C61.8929 139.012 62.1289 139.076 62.4649 139.076H63.2689V140H62.2849C61.6769 140 61.2209 139.86 60.9169 139.58C60.6129 139.3 60.4609 138.84 60.4609 138.2V134.324H59.6089V133.424H60.4609V131.768H61.5529V133.424H63.2689V134.324H61.5529ZM65.156 132.356C64.948 132.356 64.772 132.284 64.628 132.14C64.484 131.996 64.412 131.82 64.412 131.612C64.412 131.404 64.484 131.228 64.628 131.084C64.772 130.94 64.948 130.868 65.156 130.868C65.356 130.868 65.524 130.94 65.66 131.084C65.804 131.228 65.876 131.404 65.876 131.612C65.876 131.82 65.804 131.996 65.66 132.14C65.524 132.284 65.356 132.356 65.156 132.356ZM65.684 133.424V140H64.592V133.424H65.684ZM70.7491 133.304C71.5491 133.304 72.1971 133.548 72.6931 134.036C73.1891 134.516 73.4371 135.212 73.4371 136.124V140H72.3571V136.28C72.3571 135.624 72.1931 135.124 71.8651 134.78C71.5371 134.428 71.0891 134.252 70.5211 134.252C69.9451 134.252 69.4851 134.432 69.1411 134.792C68.8051 135.152 68.6371 135.676 68.6371 136.364V140H67.5451V133.424H68.6371V134.36C68.8531 134.024 69.1451 133.764 69.5131 133.58C69.8891 133.396 70.3011 133.304 70.7491 133.304ZM77.9329 133.316C78.5009 133.316 78.9969 133.44 79.4209 133.688C79.8529 133.936 80.1729 134.248 80.3809 134.624V133.424H81.4849V140.144C81.4849 140.744 81.3569 141.276 81.1009 141.74C80.8449 142.212 80.4769 142.58 79.9969 142.844C79.5249 143.108 78.9729 143.24 78.3409 143.24C77.4769 143.24 76.7569 143.036 76.1809 142.628C75.6049 142.22 75.2649 141.664 75.1609 140.96H76.2409C76.3609 141.36 76.6089 141.68 76.9849 141.92C77.3609 142.168 77.8129 142.292 78.3409 142.292C78.9409 142.292 79.4289 142.104 79.8049 141.728C80.1889 141.352 80.3809 140.824 80.3809 140.144V138.764C80.1649 139.148 79.8449 139.468 79.4209 139.724C78.9969 139.98 78.5009 140.108 77.9329 140.108C77.3489 140.108 76.8169 139.964 76.3369 139.676C75.8649 139.388 75.4929 138.984 75.2209 138.464C74.9489 137.944 74.8129 137.352 74.8129 136.688C74.8129 136.016 74.9489 135.428 75.2209 134.924C75.4929 134.412 75.8649 134.016 76.3369 133.736C76.8169 133.456 77.3489 133.316 77.9329 133.316ZM80.3809 136.7C80.3809 136.204 80.2809 135.772 80.0809 135.404C79.8809 135.036 79.6089 134.756 79.2649 134.564C78.9289 134.364 78.5569 134.264 78.1489 134.264C77.7409 134.264 77.3689 134.36 77.0329 134.552C76.6969 134.744 76.4289 135.024 76.2289 135.392C76.0289 135.76 75.9289 136.192 75.9289 136.688C75.9289 137.192 76.0289 137.632 76.2289 138.008C76.4289 138.376 76.6969 138.66 77.0329 138.86C77.3689 139.052 77.7409 139.148 78.1489 139.148C78.5569 139.148 78.9289 139.052 79.2649 138.86C79.6089 138.66 79.8809 138.376 80.0809 138.008C80.2809 137.632 80.3809 137.196 80.3809 136.7ZM86.1215 136.688C86.1215 136.016 86.2575 135.428 86.5295 134.924C86.8015 134.412 87.1735 134.016 87.6455 133.736C88.1255 133.456 88.6615 133.316 89.2535 133.316C89.8215 133.316 90.3175 133.444 90.7415 133.7C91.1735 133.948 91.4895 134.256 91.6895 134.624V133.424H92.7935V143.12H91.6895V138.788C91.4815 139.156 91.1615 139.468 90.7295 139.724C90.2975 139.98 89.7935 140.108 89.2175 140.108C88.6415 140.108 88.1175 139.964 87.6455 139.676C87.1735 139.388 86.8015 138.984 86.5295 138.464C86.2575 137.944 86.1215 137.352 86.1215 136.688ZM91.6895 136.7C91.6895 136.204 91.5895 135.772 91.3895 135.404C91.1895 135.036 90.9175 134.756 90.5735 134.564C90.2375 134.364 89.8655 134.264 89.4575 134.264C89.0495 134.264 88.6775 134.36 88.3415 134.552C88.0055 134.744 87.7375 135.024 87.5375 135.392C87.3375 135.76 87.2375 136.192 87.2375 136.688C87.2375 137.192 87.3375 137.632 87.5375 138.008C87.7375 138.376 88.0055 138.66 88.3415 138.86C88.6775 139.052 89.0495 139.148 89.4575 139.148C89.8655 139.148 90.2375 139.052 90.5735 138.86C90.9175 138.66 91.1895 138.376 91.3895 138.008C91.5895 137.632 91.6895 137.196 91.6895 136.7ZM100.471 133.424V140H99.3788V139.028C99.1708 139.364 98.8788 139.628 98.5028 139.82C98.1348 140.004 97.7268 140.096 97.2788 140.096C96.7668 140.096 96.3068 139.992 95.8988 139.784C95.4908 139.568 95.1668 139.248 94.9268 138.824C94.6948 138.4 94.5788 137.884 94.5788 137.276V133.424H95.6588V137.132C95.6588 137.78 95.8228 138.28 96.1508 138.632C96.4788 138.976 96.9268 139.148 97.4948 139.148C98.0788 139.148 98.5388 138.968 98.8748 138.608C99.2108 138.248 99.3788 137.724 99.3788 137.036V133.424H100.471ZM108.315 136.46C108.315 136.668 108.303 136.888 108.279 137.12H103.023C103.063 137.768 103.283 138.276 103.683 138.644C104.091 139.004 104.583 139.184 105.159 139.184C105.631 139.184 106.023 139.076 106.335 138.86C106.655 138.636 106.879 138.34 107.007 137.972H108.183C108.007 138.604 107.655 139.12 107.127 139.52C106.599 139.912 105.943 140.108 105.159 140.108C104.535 140.108 103.975 139.968 103.479 139.688C102.991 139.408 102.607 139.012 102.327 138.5C102.047 137.98 101.907 137.38 101.907 136.7C101.907 136.02 102.043 135.424 102.315 134.912C102.587 134.4 102.967 134.008 103.455 133.736C103.951 133.456 104.519 133.316 105.159 133.316C105.783 133.316 106.335 133.452 106.815 133.724C107.295 133.996 107.663 134.372 107.919 134.852C108.183 135.324 108.315 135.86 108.315 136.46ZM107.187 136.232C107.187 135.816 107.095 135.46 106.911 135.164C106.727 134.86 106.475 134.632 106.155 134.48C105.843 134.32 105.495 134.24 105.111 134.24C104.559 134.24 104.087 134.416 103.695 134.768C103.311 135.12 103.091 135.608 103.035 136.232H107.187ZM112.084 140.108C111.58 140.108 111.128 140.024 110.728 139.856C110.328 139.68 110.012 139.44 109.78 139.136C109.548 138.824 109.42 138.468 109.396 138.068H110.524C110.556 138.396 110.708 138.664 110.98 138.872C111.26 139.08 111.624 139.184 112.072 139.184C112.488 139.184 112.816 139.092 113.056 138.908C113.296 138.724 113.416 138.492 113.416 138.212C113.416 137.924 113.288 137.712 113.032 137.576C112.776 137.432 112.38 137.292 111.844 137.156C111.356 137.028 110.956 136.9 110.644 136.772C110.34 136.636 110.076 136.44 109.852 136.184C109.636 135.92 109.528 135.576 109.528 135.152C109.528 134.816 109.628 134.508 109.828 134.228C110.028 133.948 110.312 133.728 110.68 133.568C111.048 133.4 111.468 133.316 111.94 133.316C112.668 133.316 113.256 133.5 113.704 133.868C114.152 134.236 114.392 134.74 114.424 135.38H113.332C113.308 135.036 113.168 134.76 112.912 134.552C112.664 134.344 112.328 134.24 111.904 134.24C111.512 134.24 111.2 134.324 110.968 134.492C110.736 134.66 110.62 134.88 110.62 135.152C110.62 135.368 110.688 135.548 110.824 135.692C110.968 135.828 111.144 135.94 111.352 136.028C111.568 136.108 111.864 136.2 112.24 136.304C112.712 136.432 113.096 136.56 113.392 136.688C113.688 136.808 113.94 136.992 114.148 137.24C114.364 137.488 114.476 137.812 114.484 138.212C114.484 138.572 114.384 138.896 114.184 139.184C113.984 139.472 113.7 139.7 113.332 139.868C112.972 140.028 112.556 140.108 112.084 140.108ZM117.358 134.324V138.2C117.358 138.52 117.426 138.748 117.562 138.884C117.698 139.012 117.934 139.076 118.27 139.076H119.074V140H118.09C117.482 140 117.026 139.86 116.722 139.58C116.418 139.3 116.266 138.84 116.266 138.2V134.324H115.414V133.424H116.266V131.768H117.358V133.424H119.074V134.324H117.358ZM120.961 132.356C120.753 132.356 120.577 132.284 120.433 132.14C120.289 131.996 120.217 131.82 120.217 131.612C120.217 131.404 120.289 131.228 120.433 131.084C120.577 130.94 120.753 130.868 120.961 130.868C121.161 130.868 121.329 130.94 121.465 131.084C121.609 131.228 121.681 131.404 121.681 131.612C121.681 131.82 121.609 131.996 121.465 132.14C121.329 132.284 121.161 132.356 120.961 132.356ZM121.489 133.424V140H120.397V133.424H121.489ZM126.218 140.108C125.602 140.108 125.042 139.968 124.538 139.688C124.042 139.408 123.65 139.012 123.362 138.5C123.082 137.98 122.942 137.38 122.942 136.7C122.942 136.028 123.086 135.436 123.374 134.924C123.67 134.404 124.07 134.008 124.574 133.736C125.078 133.456 125.642 133.316 126.266 133.316C126.89 133.316 127.454 133.456 127.958 133.736C128.462 134.008 128.858 134.4 129.146 134.912C129.442 135.424 129.59 136.02 129.59 136.7C129.59 137.38 129.438 137.98 129.134 138.5C128.838 139.012 128.434 139.408 127.922 139.688C127.41 139.968 126.842 140.108 126.218 140.108ZM126.218 139.148C126.61 139.148 126.978 139.056 127.322 138.872C127.666 138.688 127.942 138.412 128.15 138.044C128.366 137.676 128.474 137.228 128.474 136.7C128.474 136.172 128.37 135.724 128.162 135.356C127.954 134.988 127.682 134.716 127.346 134.54C127.01 134.356 126.646 134.264 126.254 134.264C125.854 134.264 125.486 134.356 125.15 134.54C124.822 134.716 124.558 134.988 124.358 135.356C124.158 135.724 124.058 136.172 124.058 136.7C124.058 137.236 124.154 137.688 124.346 138.056C124.546 138.424 124.81 138.7 125.138 138.884C125.466 139.06 125.826 139.148 126.218 139.148ZM134.23 133.304C135.03 133.304 135.678 133.548 136.174 134.036C136.67 134.516 136.918 135.212 136.918 136.124V140H135.838V136.28C135.838 135.624 135.674 135.124 135.346 134.78C135.018 134.428 134.57 134.252 134.002 134.252C133.426 134.252 132.966 134.432 132.622 134.792C132.286 135.152 132.118 135.676 132.118 136.364V140H131.026V133.424H132.118V134.36C132.334 134.024 132.626 133.764 132.994 133.58C133.37 133.396 133.782 133.304 134.23 133.304ZM141.029 140.108C140.525 140.108 140.073 140.024 139.673 139.856C139.273 139.68 138.957 139.44 138.725 139.136C138.493 138.824 138.365 138.468 138.341 138.068H139.469C139.501 138.396 139.653 138.664 139.925 138.872C140.205 139.08 140.569 139.184 141.017 139.184C141.433 139.184 141.761 139.092 142.001 138.908C142.241 138.724 142.361 138.492 142.361 138.212C142.361 137.924 142.233 137.712 141.977 137.576C141.721 137.432 141.325 137.292 140.789 137.156C140.301 137.028 139.901 136.9 139.589 136.772C139.285 136.636 139.021 136.44 138.797 136.184C138.581 135.92 138.473 135.576 138.473 135.152C138.473 134.816 138.573 134.508 138.773 134.228C138.973 133.948 139.257 133.728 139.625 133.568C139.993 133.4 140.413 133.316 140.885 133.316C141.613 133.316 142.201 133.5 142.649 133.868C143.097 134.236 143.337 134.74 143.369 135.38H142.277C142.253 135.036 142.113 134.76 141.857 134.552C141.609 134.344 141.273 134.24 140.849 134.24C140.457 134.24 140.145 134.324 139.913 134.492C139.681 134.66 139.565 134.88 139.565 135.152C139.565 135.368 139.633 135.548 139.769 135.692C139.913 135.828 140.089 135.94 140.297 136.028C140.513 136.108 140.809 136.2 141.185 136.304C141.657 136.432 142.041 136.56 142.337 136.688C142.633 136.808 142.885 136.992 143.093 137.24C143.309 137.488 143.421 137.812 143.429 138.212C143.429 138.572 143.329 138.896 143.129 139.184C142.929 139.472 142.645 139.7 142.277 139.868C141.917 140.028 141.501 140.108 141.029 140.108Z" fill="#888888"/>
<rect x="20.5" y="121.5" width="427" height="29" rx="1.5" stroke="#333333"/>
</g>
</g>
<defs>
<filter id="filter0_d_1170_24" x="2" y="29" width="464" height="156" filterUnits="userSpaceOnUse" color-interpolation-filters="sRGB">
<feFlood flood-opacity="0" result="BackgroundImageFix"/>
<feColorMatrix in="SourceAlpha" type="matrix" values="0 0 0 0 0 0 0 0 0 0 0 0 0 0 0 0 0 0 127 0" result="hardAlpha"/>
<feMorphology radius="4" operator="dilate" in="SourceAlpha" result="effect1_dropShadow_1170_24"/>
<feOffset/>
<feGaussianBlur stdDeviation="2"/>
<feComposite in2="hardAlpha" operator="out"/>
<feColorMatrix type="matrix" values="0 0 0 0 0.788235 0 0 0 0 0.788235 0 0 0 0 0.788235 0 0 0 0.25 0"/>
<feBlend mode="normal" in2="BackgroundImageFix" result="effect1_dropShadow_1170_24"/>
<feBlend mode="normal" in="SourceGraphic" in2="effect1_dropShadow_1170_24" result="shape"/>
</filter>
<clipPath id="clip0_1170_24">
<rect width="410" height="144" rx="3" fill="white"/>
</clipPath>
</defs>
</svg>
