<svg width="430" height="164" viewBox="0 0 430 164" fill="none" xmlns="http://www.w3.org/2000/svg">
<g clip-path="url(#clip0_1170_57)">
<rect width="430" height="164" rx="3" fill="#222222"/>
<g filter="url(#filter0_d_1170_57)">
<g clip-path="url(#clip1_1170_57)">
<rect x="33" y="21" width="500" height="208.5" rx="10" fill="#111111"/>
<path d="M45.642 48.5L43.2557 39.7727H44.3295L46.1534 46.8807H46.2386L48.0966 39.7727H49.2898L51.1477 46.8807H51.233L53.0568 39.7727H54.1307L51.7443 48.5H50.6534L48.7273 41.5455H48.6591L46.733 48.5H45.642ZM56.3168 44.5625V48.5H55.3111V39.7727H56.3168V42.9773H56.402C56.5554 42.6392 56.7855 42.3707 57.0923 42.1719C57.402 41.9702 57.8139 41.8693 58.3281 41.8693C58.7741 41.8693 59.1648 41.9588 59.5 42.1378C59.8352 42.3139 60.0952 42.5852 60.2798 42.9517C60.4673 43.3153 60.5611 43.7784 60.5611 44.3409V48.5H59.5554V44.4091C59.5554 43.8892 59.4205 43.4872 59.1506 43.2031C58.8835 42.9162 58.5128 42.7727 58.0384 42.7727C57.7088 42.7727 57.4134 42.8423 57.152 42.9815C56.8935 43.1207 56.6889 43.3239 56.5384 43.5909C56.3906 43.858 56.3168 44.1818 56.3168 44.5625ZM64.3271 48.6534C63.9123 48.6534 63.5359 48.5753 63.1978 48.419C62.8597 48.2599 62.5913 48.0312 62.3924 47.733C62.1935 47.4318 62.0941 47.0682 62.0941 46.642C62.0941 46.267 62.168 45.9631 62.3157 45.7301C62.4634 45.4943 62.6609 45.3097 62.908 45.1761C63.1552 45.0426 63.4279 44.9432 63.7262 44.8778C64.0273 44.8097 64.3299 44.7557 64.6339 44.7159C65.0316 44.6648 65.354 44.6264 65.6012 44.6009C65.8512 44.5724 66.033 44.5256 66.1467 44.4602C66.2631 44.3949 66.3214 44.2812 66.3214 44.1193V44.0852C66.3214 43.6648 66.2063 43.3381 65.9762 43.1051C65.7489 42.8722 65.4038 42.7557 64.9407 42.7557C64.4606 42.7557 64.0842 42.8608 63.8114 43.071C63.5387 43.2812 63.3469 43.5057 63.2362 43.7443L62.2816 43.4034C62.4521 43.0057 62.6793 42.696 62.9634 42.4744C63.2504 42.25 63.5629 42.0937 63.9009 42.0057C64.2418 41.9148 64.5771 41.8693 64.9066 41.8693C65.1168 41.8693 65.3583 41.8949 65.631 41.946C65.9066 41.9943 66.1722 42.0952 66.4279 42.2486C66.6864 42.402 66.9009 42.6335 67.0714 42.9432C67.2418 43.2528 67.3271 43.6676 67.3271 44.1875V48.5H66.3214V47.6136H66.2702C66.2021 47.7557 66.0884 47.9077 65.9293 48.0696C65.7702 48.2315 65.5586 48.3693 65.2944 48.483C65.0302 48.5966 64.7077 48.6534 64.3271 48.6534ZM64.4805 47.75C64.8782 47.75 65.2134 47.6719 65.4862 47.5156C65.7617 47.3594 65.9691 47.1577 66.1083 46.9105C66.2504 46.6634 66.3214 46.4034 66.3214 46.1307V45.2102C66.2788 45.2614 66.185 45.3082 66.0401 45.3509C65.8981 45.3906 65.7333 45.4261 65.5458 45.4574C65.3612 45.4858 65.1808 45.5114 65.0046 45.5341C64.8313 45.554 64.6907 45.571 64.5827 45.5852C64.3214 45.6193 64.0771 45.6747 63.8498 45.7514C63.6254 45.8253 63.4435 45.9375 63.3043 46.0881C63.168 46.2358 63.0998 46.4375 63.0998 46.6932C63.0998 47.0426 63.229 47.3068 63.4876 47.4858C63.7489 47.6619 64.0799 47.75 64.4805 47.75ZM72.0092 41.9545V42.8068H68.6172V41.9545H72.0092ZM69.6058 40.3864H70.6115V46.625C70.6115 46.9091 70.6527 47.1222 70.7351 47.2642C70.8203 47.4034 70.9283 47.4972 71.0589 47.5455C71.1925 47.5909 71.3331 47.6136 71.4808 47.6136C71.5916 47.6136 71.6825 47.608 71.7536 47.5966C71.8246 47.5824 71.8814 47.571 71.924 47.5625L72.1286 48.4659C72.0604 48.4915 71.9652 48.517 71.843 48.5426C71.7209 48.571 71.5661 48.5852 71.3786 48.5852C71.0945 48.5852 70.8161 48.5241 70.5433 48.402C70.2734 48.2798 70.049 48.0938 69.87 47.8438C69.6939 47.5938 69.6058 47.2784 69.6058 46.8977V40.3864ZM79.8118 41.9545V42.8068H76.2834V41.9545H79.8118ZM77.3402 48.5V41.0511C77.3402 40.6761 77.4283 40.3636 77.6044 40.1136C77.7805 39.8636 78.0092 39.6761 78.2905 39.5511C78.5717 39.4261 78.8686 39.3636 79.1811 39.3636C79.4283 39.3636 79.63 39.3835 79.7862 39.4233C79.9425 39.4631 80.0589 39.5 80.1357 39.5341L79.8459 40.4034C79.7947 40.3864 79.7237 40.3651 79.6328 40.3395C79.5447 40.3139 79.4283 40.3011 79.2834 40.3011C78.951 40.3011 78.7109 40.3849 78.5632 40.5526C78.4183 40.7202 78.3459 40.9659 78.3459 41.2898V48.5H77.3402ZM83.696 48.6364C83.0653 48.6364 82.5213 48.4972 82.0639 48.2188C81.6094 47.9375 81.2585 47.5455 81.0114 47.0426C80.767 46.5369 80.6449 45.9489 80.6449 45.2784C80.6449 44.608 80.767 44.017 81.0114 43.5057C81.2585 42.9915 81.6023 42.5909 82.0426 42.304C82.4858 42.0142 83.0028 41.8693 83.5938 41.8693C83.9347 41.8693 84.2713 41.9261 84.6037 42.0398C84.9361 42.1534 85.2386 42.3381 85.5114 42.5938C85.7841 42.8466 86.0014 43.1818 86.1634 43.5994C86.3253 44.017 86.4062 44.5312 86.4062 45.142V45.5682H81.3608V44.6989H85.3835C85.3835 44.3295 85.3097 44 85.1619 43.7102C85.017 43.4205 84.8097 43.1918 84.5398 43.0241C84.2727 42.8565 83.9574 42.7727 83.5938 42.7727C83.1932 42.7727 82.8466 42.8722 82.554 43.071C82.2642 43.267 82.0412 43.5227 81.8849 43.8381C81.7287 44.1534 81.6506 44.4915 81.6506 44.8523V45.4318C81.6506 45.9261 81.7358 46.3452 81.9062 46.6889C82.0795 47.0298 82.3196 47.2898 82.6264 47.4688C82.9332 47.6449 83.2898 47.733 83.696 47.733C83.9602 47.733 84.1989 47.696 84.4119 47.6222C84.6278 47.5455 84.8139 47.4318 84.9702 47.2812C85.1264 47.1278 85.2472 46.9375 85.3324 46.7102L86.304 46.983C86.2017 47.3125 86.0298 47.6023 85.7884 47.8523C85.5469 48.0994 85.2486 48.2926 84.8935 48.4318C84.5384 48.5682 84.1392 48.6364 83.696 48.6364ZM89.8622 48.6534C89.4474 48.6534 89.071 48.5753 88.733 48.419C88.3949 48.2599 88.1264 48.0312 87.9276 47.733C87.7287 47.4318 87.6293 47.0682 87.6293 46.642C87.6293 46.267 87.7031 45.9631 87.8509 45.7301C87.9986 45.4943 88.196 45.3097 88.4432 45.1761C88.6903 45.0426 88.9631 44.9432 89.2614 44.8778C89.5625 44.8097 89.8651 44.7557 90.169 44.7159C90.5668 44.6648 90.8892 44.6264 91.1364 44.6009C91.3864 44.5724 91.5682 44.5256 91.6818 44.4602C91.7983 44.3949 91.8565 44.2812 91.8565 44.1193V44.0852C91.8565 43.6648 91.7415 43.3381 91.5114 43.1051C91.2841 42.8722 90.9389 42.7557 90.4759 42.7557C89.9957 42.7557 89.6193 42.8608 89.3466 43.071C89.0739 43.2812 88.8821 43.5057 88.7713 43.7443L87.8168 43.4034C87.9872 43.0057 88.2145 42.696 88.4986 42.4744C88.7855 42.25 89.098 42.0937 89.4361 42.0057C89.777 41.9148 90.1122 41.8693 90.4418 41.8693C90.652 41.8693 90.8935 41.8949 91.1662 41.946C91.4418 41.9943 91.7074 42.0952 91.9631 42.2486C92.2216 42.402 92.4361 42.6335 92.6065 42.9432C92.777 43.2528 92.8622 43.6676 92.8622 44.1875V48.5H91.8565V47.6136H91.8054C91.7372 47.7557 91.6236 47.9077 91.4645 48.0696C91.3054 48.2315 91.0938 48.3693 90.8295 48.483C90.5653 48.5966 90.2429 48.6534 89.8622 48.6534ZM90.0156 47.75C90.4134 47.75 90.7486 47.6719 91.0213 47.5156C91.2969 47.3594 91.5043 47.1577 91.6435 46.9105C91.7855 46.6634 91.8565 46.4034 91.8565 46.1307V45.2102C91.8139 45.2614 91.7202 45.3082 91.5753 45.3509C91.4332 45.3906 91.2685 45.4261 91.081 45.4574C90.8963 45.4858 90.7159 45.5114 90.5398 45.5341C90.3665 45.554 90.2259 45.571 90.1179 45.5852C89.8565 45.6193 89.6122 45.6747 89.3849 45.7514C89.1605 45.8253 88.9787 45.9375 88.8395 46.0881C88.7031 46.2358 88.6349 46.4375 88.6349 46.6932C88.6349 47.0426 88.7642 47.3068 89.0227 47.4858C89.2841 47.6619 89.6151 47.75 90.0156 47.75ZM97.5444 41.9545V42.8068H94.1523V41.9545H97.5444ZM95.141 40.3864H96.1467V46.625C96.1467 46.9091 96.1879 47.1222 96.2702 47.2642C96.3555 47.4034 96.4634 47.4972 96.5941 47.5455C96.7276 47.5909 96.8683 47.6136 97.016 47.6136C97.1268 47.6136 97.2177 47.608 97.2887 47.5966C97.3597 47.5824 97.4165 47.571 97.4592 47.5625L97.6637 48.4659C97.5955 48.4915 97.5004 48.517 97.3782 48.5426C97.256 48.571 97.1012 48.5852 96.9137 48.5852C96.6296 48.5852 96.3512 48.5241 96.0785 48.402C95.8086 48.2798 95.5842 48.0938 95.4052 47.8438C95.229 47.5938 95.141 47.2784 95.141 46.8977V40.3864ZM103.182 45.8239V41.9545H104.188V48.5H103.182V47.392H103.114C102.961 47.7244 102.722 48.0071 102.398 48.2401C102.074 48.4702 101.665 48.5852 101.171 48.5852C100.762 48.5852 100.398 48.4957 100.08 48.3168C99.7617 48.1349 99.5117 47.8622 99.3299 47.4986C99.1481 47.1321 99.0572 46.6705 99.0572 46.1136V41.9545H100.063V46.0455C100.063 46.5227 100.196 46.9034 100.463 47.1875C100.733 47.4716 101.077 47.6136 101.495 47.6136C101.745 47.6136 101.999 47.5497 102.257 47.4219C102.519 47.294 102.738 47.098 102.914 46.8338C103.093 46.5696 103.182 46.233 103.182 45.8239ZM106.03 48.5V41.9545H107.001V42.9432H107.07C107.189 42.6193 107.405 42.3565 107.717 42.1548C108.03 41.9531 108.382 41.8523 108.774 41.8523C108.848 41.8523 108.94 41.8537 109.051 41.8565C109.162 41.8594 109.246 41.8636 109.303 41.8693V42.892C109.268 42.8835 109.19 42.8707 109.068 42.8537C108.949 42.8338 108.822 42.8239 108.689 42.8239C108.371 42.8239 108.087 42.8906 107.837 43.0241C107.589 43.1548 107.393 43.3366 107.249 43.5696C107.107 43.7997 107.036 44.0625 107.036 44.358V48.5H106.03ZM113.04 48.6364C112.409 48.6364 111.865 48.4972 111.408 48.2188C110.953 47.9375 110.602 47.5455 110.355 47.0426C110.111 46.5369 109.989 45.9489 109.989 45.2784C109.989 44.608 110.111 44.017 110.355 43.5057C110.602 42.9915 110.946 42.5909 111.386 42.304C111.83 42.0142 112.347 41.8693 112.938 41.8693C113.278 41.8693 113.615 41.9261 113.947 42.0398C114.28 42.1534 114.582 42.3381 114.855 42.5938C115.128 42.8466 115.345 43.1818 115.507 43.5994C115.669 44.017 115.75 44.5312 115.75 45.142V45.5682H110.705V44.6989H114.727C114.727 44.3295 114.653 44 114.506 43.7102C114.361 43.4205 114.153 43.1918 113.884 43.0241C113.616 42.8565 113.301 42.7727 112.938 42.7727C112.537 42.7727 112.19 42.8722 111.898 43.071C111.608 43.267 111.385 43.5227 111.229 43.8381C111.072 44.1534 110.994 44.4915 110.994 44.8523V45.4318C110.994 45.9261 111.08 46.3452 111.25 46.6889C111.423 47.0298 111.663 47.2898 111.97 47.4688C112.277 47.6449 112.634 47.733 113.04 47.733C113.304 47.733 113.543 47.696 113.756 47.6222C113.972 47.5455 114.158 47.4318 114.314 47.2812C114.47 47.1278 114.591 46.9375 114.676 46.7102L115.648 46.983C115.545 47.3125 115.374 47.6023 115.132 47.8523C114.891 48.0994 114.592 48.2926 114.237 48.4318C113.882 48.5682 113.483 48.6364 113.04 48.6364ZM121.916 43.4205L121.013 43.6761C120.956 43.5256 120.872 43.3793 120.761 43.2372C120.653 43.0923 120.506 42.973 120.318 42.8793C120.131 42.7855 119.891 42.7386 119.598 42.7386C119.197 42.7386 118.864 42.831 118.597 43.0156C118.332 43.1974 118.2 43.429 118.2 43.7102C118.2 43.9602 118.291 44.1577 118.473 44.3026C118.655 44.4474 118.939 44.5682 119.325 44.6648L120.297 44.9034C120.882 45.0455 121.318 45.2628 121.605 45.5554C121.892 45.8452 122.036 46.2187 122.036 46.6761C122.036 47.0511 121.928 47.3864 121.712 47.6818C121.499 47.9773 121.2 48.2102 120.817 48.3807C120.433 48.5511 119.987 48.6364 119.479 48.6364C118.811 48.6364 118.259 48.4915 117.821 48.2017C117.384 47.9119 117.107 47.4886 116.99 46.9318L117.945 46.6932C118.036 47.0455 118.207 47.3097 118.46 47.4858C118.716 47.6619 119.05 47.75 119.462 47.75C119.93 47.75 120.303 47.6506 120.578 47.4517C120.857 47.25 120.996 47.0085 120.996 46.7273C120.996 46.5 120.916 46.3097 120.757 46.1562C120.598 46 120.354 45.8835 120.024 45.8068L118.933 45.5511C118.334 45.4091 117.893 45.1889 117.612 44.8906C117.334 44.5895 117.195 44.2131 117.195 43.7614C117.195 43.392 117.298 43.0653 117.506 42.7812C117.716 42.4972 118.001 42.2741 118.362 42.1122C118.726 41.9503 119.138 41.8693 119.598 41.8693C120.246 41.8693 120.754 42.0114 121.124 42.2955C121.496 42.5795 121.76 42.9545 121.916 43.4205ZM129.396 48.6364C128.85 48.6364 128.369 48.4986 127.951 48.223C127.534 47.9446 127.207 47.5526 126.971 47.0469C126.735 46.5384 126.618 45.9375 126.618 45.2443C126.618 44.5568 126.735 43.9602 126.971 43.4545C127.207 42.9489 127.535 42.5582 127.956 42.2827C128.376 42.0071 128.862 41.8693 129.413 41.8693C129.839 41.8693 130.176 41.9403 130.423 42.0824C130.673 42.2216 130.863 42.3807 130.994 42.5597C131.127 42.7358 131.231 42.8807 131.305 42.9943H131.39V39.7727H132.396V48.5H131.424V47.4943H131.305C131.231 47.6136 131.126 47.7642 130.99 47.946C130.853 48.125 130.659 48.2855 130.406 48.4276C130.153 48.5668 129.816 48.6364 129.396 48.6364ZM129.532 47.733C129.936 47.733 130.277 47.6278 130.555 47.4176C130.833 47.2045 131.045 46.9105 131.19 46.5355C131.335 46.1577 131.407 45.7216 131.407 45.2273C131.407 44.7386 131.336 44.3111 131.194 43.9446C131.052 43.5753 130.842 43.2884 130.564 43.0838C130.285 42.8764 129.941 42.7727 129.532 42.7727C129.106 42.7727 128.751 42.8821 128.467 43.1009C128.186 43.3168 127.974 43.6108 127.832 43.983C127.693 44.3523 127.623 44.767 127.623 45.2273C127.623 45.6932 127.694 46.1165 127.836 46.4972C127.981 46.875 128.194 47.1761 128.475 47.4006C128.76 47.6222 129.112 47.733 129.532 47.733ZM137.037 48.6364C136.446 48.6364 135.927 48.4957 135.481 48.2145C135.038 47.9332 134.691 47.5398 134.441 47.0341C134.194 46.5284 134.071 45.9375 134.071 45.2614C134.071 44.5795 134.194 43.9844 134.441 43.4759C134.691 42.9673 135.038 42.5724 135.481 42.2912C135.927 42.0099 136.446 41.8693 137.037 41.8693C137.627 41.8693 138.145 42.0099 138.588 42.2912C139.034 42.5724 139.38 42.9673 139.627 43.4759C139.877 43.9844 140.002 44.5795 140.002 45.2614C140.002 45.9375 139.877 46.5284 139.627 47.0341C139.38 47.5398 139.034 47.9332 138.588 48.2145C138.145 48.4957 137.627 48.6364 137.037 48.6364ZM137.037 47.733C137.485 47.733 137.855 47.6179 138.145 47.3878C138.434 47.1577 138.649 46.8551 138.788 46.4801C138.927 46.1051 138.997 45.6989 138.997 45.2614C138.997 44.8239 138.927 44.4162 138.788 44.0384C138.649 43.6605 138.434 43.3551 138.145 43.1222C137.855 42.8892 137.485 42.7727 137.037 42.7727C136.588 42.7727 136.218 42.8892 135.929 43.1222C135.639 43.3551 135.424 43.6605 135.285 44.0384C135.146 44.4162 135.076 44.8239 135.076 45.2614C135.076 45.6989 135.146 46.1051 135.285 46.4801C135.424 46.8551 135.639 47.1577 135.929 47.3878C136.218 47.6179 136.588 47.733 137.037 47.733ZM145.56 50.9545C145.39 50.9545 145.238 50.9403 145.104 50.9119C144.971 50.8864 144.879 50.8608 144.827 50.8352L145.083 49.9489C145.327 50.0114 145.543 50.0341 145.731 50.017C145.918 50 146.085 49.9162 146.229 49.7656C146.377 49.6179 146.512 49.3778 146.634 49.0455L146.822 48.5341L144.401 41.9545H145.492L147.299 47.1705H147.367L149.174 41.9545H150.265L147.487 49.4545C147.362 49.7926 147.207 50.0724 147.022 50.294C146.837 50.5185 146.623 50.6847 146.379 50.7926C146.137 50.9006 145.864 50.9545 145.56 50.9545ZM154.017 48.6364C153.426 48.6364 152.908 48.4957 152.462 48.2145C152.018 47.9332 151.672 47.5398 151.422 47.0341C151.175 46.5284 151.051 45.9375 151.051 45.2614C151.051 44.5795 151.175 43.9844 151.422 43.4759C151.672 42.9673 152.018 42.5724 152.462 42.2912C152.908 42.0099 153.426 41.8693 154.017 41.8693C154.608 41.8693 155.125 42.0099 155.568 42.2912C156.014 42.5724 156.361 42.9673 156.608 43.4759C156.858 43.9844 156.983 44.5795 156.983 45.2614C156.983 45.9375 156.858 46.5284 156.608 47.0341C156.361 47.5398 156.014 47.9332 155.568 48.2145C155.125 48.4957 154.608 48.6364 154.017 48.6364ZM154.017 47.733C154.466 47.733 154.835 47.6179 155.125 47.3878C155.415 47.1577 155.629 46.8551 155.768 46.4801C155.908 46.1051 155.977 45.6989 155.977 45.2614C155.977 44.8239 155.908 44.4162 155.768 44.0384C155.629 43.6605 155.415 43.3551 155.125 43.1222C154.835 42.8892 154.466 42.7727 154.017 42.7727C153.568 42.7727 153.199 42.8892 152.909 43.1222C152.619 43.3551 152.405 43.6605 152.266 44.0384C152.126 44.4162 152.057 44.8239 152.057 45.2614C152.057 45.6989 152.126 46.1051 152.266 46.4801C152.405 46.8551 152.619 47.1577 152.909 47.3878C153.199 47.6179 153.568 47.733 154.017 47.733ZM162.643 45.8239V41.9545H163.649V48.5H162.643V47.392H162.575C162.422 47.7244 162.183 48.0071 161.859 48.2401C161.535 48.4702 161.126 48.5852 160.632 48.5852C160.223 48.5852 159.859 48.4957 159.541 48.3168C159.223 48.1349 158.973 47.8622 158.791 47.4986C158.609 47.1321 158.518 46.6705 158.518 46.1136V41.9545H159.524V46.0455C159.524 46.5227 159.657 46.9034 159.924 47.1875C160.194 47.4716 160.538 47.6136 160.956 47.6136C161.206 47.6136 161.46 47.5497 161.718 47.4219C161.98 47.294 162.199 47.098 162.375 46.8338C162.554 46.5696 162.643 46.233 162.643 45.8239ZM171.781 41.9545V42.8068H168.252V41.9545H171.781ZM169.309 48.5V41.0511C169.309 40.6761 169.397 40.3636 169.573 40.1136C169.749 39.8636 169.978 39.6761 170.259 39.5511C170.54 39.4261 170.837 39.3636 171.15 39.3636C171.397 39.3636 171.599 39.3835 171.755 39.4233C171.911 39.4631 172.028 39.5 172.104 39.5341L171.815 40.4034C171.763 40.3864 171.692 40.3651 171.602 40.3395C171.513 40.3139 171.397 40.3011 171.252 40.3011C170.92 40.3011 170.68 40.3849 170.532 40.5526C170.387 40.7202 170.315 40.9659 170.315 41.2898V48.5H169.309ZM173.19 48.5V41.9545H174.196V48.5H173.19ZM173.701 40.8636C173.505 40.8636 173.336 40.7969 173.194 40.6634C173.055 40.5298 172.985 40.3693 172.985 40.1818C172.985 39.9943 173.055 39.8338 173.194 39.7003C173.336 39.5668 173.505 39.5 173.701 39.5C173.897 39.5 174.065 39.5668 174.204 39.7003C174.346 39.8338 174.417 39.9943 174.417 40.1818C174.417 40.3693 174.346 40.5298 174.204 40.6634C174.065 40.7969 173.897 40.8636 173.701 40.8636ZM177.043 44.5625V48.5H176.038V41.9545H177.009V42.9773H177.094C177.248 42.6449 177.481 42.3778 177.793 42.1761C178.106 41.9716 178.509 41.8693 179.004 41.8693C179.447 41.8693 179.835 41.9602 180.167 42.142C180.499 42.321 180.758 42.5938 180.942 42.9602C181.127 43.3239 181.219 43.7841 181.219 44.3409V48.5H180.214V44.4091C180.214 43.8949 180.08 43.4943 179.813 43.2074C179.546 42.9176 179.18 42.7727 178.714 42.7727C178.393 42.7727 178.106 42.8423 177.853 42.9815C177.603 43.1207 177.406 43.3239 177.261 43.5909C177.116 43.858 177.043 44.1818 177.043 44.5625ZM185.529 48.6364C184.983 48.6364 184.502 48.4986 184.084 48.223C183.667 47.9446 183.34 47.5526 183.104 47.0469C182.868 46.5384 182.75 45.9375 182.75 45.2443C182.75 44.5568 182.868 43.9602 183.104 43.4545C183.34 42.9489 183.668 42.5582 184.088 42.2827C184.509 42.0071 184.995 41.8693 185.546 41.8693C185.972 41.8693 186.309 41.9403 186.556 42.0824C186.806 42.2216 186.996 42.3807 187.127 42.5597C187.26 42.7358 187.364 42.8807 187.438 42.9943H187.523V39.7727H188.529V48.5H187.557V47.4943H187.438C187.364 47.6136 187.259 47.7642 187.123 47.946C186.986 48.125 186.792 48.2855 186.539 48.4276C186.286 48.5668 185.949 48.6364 185.529 48.6364ZM185.665 47.733C186.069 47.733 186.409 47.6278 186.688 47.4176C186.966 47.2045 187.178 46.9105 187.323 46.5355C187.468 46.1577 187.54 45.7216 187.54 45.2273C187.54 44.7386 187.469 44.3111 187.327 43.9446C187.185 43.5753 186.975 43.2884 186.696 43.0838C186.418 42.8764 186.074 42.7727 185.665 42.7727C185.239 42.7727 184.884 42.8821 184.6 43.1009C184.319 43.3168 184.107 43.6108 183.965 43.983C183.826 44.3523 183.756 44.767 183.756 45.2273C183.756 45.6932 183.827 46.1165 183.969 46.4972C184.114 46.875 184.327 47.1761 184.608 47.4006C184.892 47.6222 185.245 47.733 185.665 47.733ZM198.01 45.8239V41.9545H199.016V48.5H198.01V47.392H197.942C197.789 47.7244 197.55 48.0071 197.226 48.2401C196.902 48.4702 196.493 48.5852 195.999 48.5852C195.59 48.5852 195.226 48.4957 194.908 48.3168C194.59 48.1349 194.34 47.8622 194.158 47.4986C193.976 47.1321 193.885 46.6705 193.885 46.1136V41.9545H194.891V46.0455C194.891 46.5227 195.025 46.9034 195.292 47.1875C195.561 47.4716 195.905 47.6136 196.323 47.6136C196.573 47.6136 196.827 47.5497 197.086 47.4219C197.347 47.294 197.566 47.098 197.742 46.8338C197.921 46.5696 198.01 46.233 198.01 45.8239ZM205.494 43.4205L204.591 43.6761C204.534 43.5256 204.45 43.3793 204.339 43.2372C204.232 43.0923 204.084 42.973 203.896 42.8793C203.709 42.7855 203.469 42.7386 203.176 42.7386C202.776 42.7386 202.442 42.831 202.175 43.0156C201.911 43.1974 201.778 43.429 201.778 43.7102C201.778 43.9602 201.869 44.1577 202.051 44.3026C202.233 44.4474 202.517 44.5682 202.903 44.6648L203.875 44.9034C204.46 45.0455 204.896 45.2628 205.183 45.5554C205.47 45.8452 205.614 46.2187 205.614 46.6761C205.614 47.0511 205.506 47.3864 205.29 47.6818C205.077 47.9773 204.778 48.2102 204.395 48.3807C204.011 48.5511 203.565 48.6364 203.057 48.6364C202.389 48.6364 201.837 48.4915 201.399 48.2017C200.962 47.9119 200.685 47.4886 200.568 46.9318L201.523 46.6932C201.614 47.0455 201.786 47.3097 202.038 47.4858C202.294 47.6619 202.628 47.75 203.04 47.75C203.509 47.75 203.881 47.6506 204.156 47.4517C204.435 47.25 204.574 47.0085 204.574 46.7273C204.574 46.5 204.494 46.3097 204.335 46.1562C204.176 46 203.932 45.8835 203.602 45.8068L202.511 45.5511C201.912 45.4091 201.472 45.1889 201.19 44.8906C200.912 44.5895 200.773 44.2131 200.773 43.7614C200.773 43.392 200.876 43.0653 201.084 42.7812C201.294 42.4972 201.58 42.2741 201.94 42.1122C202.304 41.9503 202.716 41.8693 203.176 41.8693C203.824 41.8693 204.332 42.0114 204.702 42.2955C205.074 42.5795 205.338 42.9545 205.494 43.4205ZM209.872 48.6364C209.241 48.6364 208.697 48.4972 208.24 48.2188C207.785 47.9375 207.434 47.5455 207.187 47.0426C206.943 46.5369 206.821 45.9489 206.821 45.2784C206.821 44.608 206.943 44.017 207.187 43.5057C207.434 42.9915 207.778 42.5909 208.218 42.304C208.662 42.0142 209.179 41.8693 209.77 41.8693C210.11 41.8693 210.447 41.9261 210.779 42.0398C211.112 42.1534 211.414 42.3381 211.687 42.5938C211.96 42.8466 212.177 43.1818 212.339 43.5994C212.501 44.017 212.582 44.5312 212.582 45.142V45.5682H207.537V44.6989H211.559C211.559 44.3295 211.485 44 211.338 43.7102C211.193 43.4205 210.985 43.1918 210.716 43.0241C210.449 42.8565 210.133 42.7727 209.77 42.7727C209.369 42.7727 209.022 42.8722 208.73 43.071C208.44 43.267 208.217 43.5227 208.061 43.8381C207.904 44.1534 207.826 44.4915 207.826 44.8523V45.4318C207.826 45.9261 207.912 46.3452 208.082 46.6889C208.255 47.0298 208.495 47.2898 208.802 47.4688C209.109 47.6449 209.466 47.733 209.872 47.733C210.136 47.733 210.375 47.696 210.588 47.6222C210.804 47.5455 210.99 47.4318 211.146 47.2812C211.302 47.1278 211.423 46.9375 211.508 46.7102L212.48 46.983C212.377 47.3125 212.206 47.6023 211.964 47.8523C211.723 48.0994 211.424 48.2926 211.069 48.4318C210.714 48.5682 210.315 48.6364 209.872 48.6364ZM217.027 41.9545V42.8068H213.498V41.9545H217.027ZM214.555 48.5V41.0511C214.555 40.6761 214.643 40.3636 214.819 40.1136C214.995 39.8636 215.224 39.6761 215.505 39.5511C215.787 39.4261 216.083 39.3636 216.396 39.3636C216.643 39.3636 216.845 39.3835 217.001 39.4233C217.157 39.4631 217.274 39.5 217.35 39.5341L217.061 40.4034C217.01 40.3864 216.939 40.3651 216.848 40.3395C216.76 40.3139 216.643 40.3011 216.498 40.3011C216.166 40.3011 215.926 40.3849 215.778 40.5526C215.633 40.7202 215.561 40.9659 215.561 41.2898V48.5H214.555ZM222.561 45.8239V41.9545H223.567V48.5H222.561V47.392H222.493C222.339 47.7244 222.101 48.0071 221.777 48.2401C221.453 48.4702 221.044 48.5852 220.55 48.5852C220.141 48.5852 219.777 48.4957 219.459 48.3168C219.141 48.1349 218.891 47.8622 218.709 47.4986C218.527 47.1321 218.436 46.6705 218.436 46.1136V41.9545H219.442V46.0455C219.442 46.5227 219.575 46.9034 219.842 47.1875C220.112 47.4716 220.456 47.6136 220.874 47.6136C221.124 47.6136 221.378 47.5497 221.636 47.4219C221.898 47.294 222.116 47.098 222.293 46.8338C222.472 46.5696 222.561 46.233 222.561 45.8239ZM226.414 39.7727V48.5H225.409V39.7727H226.414ZM234.29 48.6364C233.7 48.6364 233.181 48.4957 232.735 48.2145C232.292 47.9332 231.945 47.5398 231.695 47.0341C231.448 46.5284 231.325 45.9375 231.325 45.2614C231.325 44.5795 231.448 43.9844 231.695 43.4759C231.945 42.9673 232.292 42.5724 232.735 42.2912C233.181 42.0099 233.7 41.8693 234.29 41.8693C234.881 41.8693 235.398 42.0099 235.842 42.2912C236.288 42.5724 236.634 42.9673 236.881 43.4759C237.131 43.9844 237.256 44.5795 237.256 45.2614C237.256 45.9375 237.131 46.5284 236.881 47.0341C236.634 47.5398 236.288 47.9332 235.842 48.2145C235.398 48.4957 234.881 48.6364 234.29 48.6364ZM234.29 47.733C234.739 47.733 235.109 47.6179 235.398 47.3878C235.688 47.1577 235.903 46.8551 236.042 46.4801C236.181 46.1051 236.251 45.6989 236.251 45.2614C236.251 44.8239 236.181 44.4162 236.042 44.0384C235.903 43.6605 235.688 43.3551 235.398 43.1222C235.109 42.8892 234.739 42.7727 234.29 42.7727C233.842 42.7727 233.472 42.8892 233.183 43.1222C232.893 43.3551 232.678 43.6605 232.539 44.0384C232.4 44.4162 232.33 44.8239 232.33 45.2614C232.33 45.6989 232.4 46.1051 232.539 46.4801C232.678 46.8551 232.893 47.1577 233.183 47.3878C233.472 47.6179 233.842 47.733 234.29 47.733ZM239.797 44.5625V48.5H238.792V41.9545H239.763V42.9773H239.848C240.002 42.6449 240.235 42.3778 240.547 42.1761C240.86 41.9716 241.263 41.8693 241.757 41.8693C242.201 41.8693 242.588 41.9602 242.921 42.142C243.253 42.321 243.512 42.5938 243.696 42.9602C243.881 43.3239 243.973 43.7841 243.973 44.3409V48.5H242.968V44.4091C242.968 43.8949 242.834 43.4943 242.567 43.2074C242.3 42.9176 241.934 42.7727 241.468 42.7727C241.147 42.7727 240.86 42.8423 240.607 42.9815C240.357 43.1207 240.159 43.3239 240.015 43.5909C239.87 43.858 239.797 44.1818 239.797 44.5625ZM251.845 48.6364C251.254 48.6364 250.736 48.4957 250.29 48.2145C249.847 47.9332 249.5 47.5398 249.25 47.0341C249.003 46.5284 248.879 45.9375 248.879 45.2614C248.879 44.5795 249.003 43.9844 249.25 43.4759C249.5 42.9673 249.847 42.5724 250.29 42.2912C250.736 42.0099 251.254 41.8693 251.845 41.8693C252.436 41.8693 252.953 42.0099 253.396 42.2912C253.842 42.5724 254.189 42.9673 254.436 43.4759C254.686 43.9844 254.811 44.5795 254.811 45.2614C254.811 45.9375 254.686 46.5284 254.436 47.0341C254.189 47.5398 253.842 47.9332 253.396 48.2145C252.953 48.4957 252.436 48.6364 251.845 48.6364ZM251.845 47.733C252.294 47.733 252.663 47.6179 252.953 47.3878C253.243 47.1577 253.457 46.8551 253.597 46.4801C253.736 46.1051 253.805 45.6989 253.805 45.2614C253.805 44.8239 253.736 44.4162 253.597 44.0384C253.457 43.6605 253.243 43.3551 252.953 43.1222C252.663 42.8892 252.294 42.7727 251.845 42.7727C251.396 42.7727 251.027 42.8892 250.737 43.1222C250.447 43.3551 250.233 43.6605 250.094 44.0384C249.955 44.4162 249.885 44.8239 249.885 45.2614C249.885 45.6989 249.955 46.1051 250.094 46.4801C250.233 46.8551 250.447 47.1577 250.737 47.3878C251.027 47.6179 251.396 47.733 251.845 47.733ZM260.471 45.8239V41.9545H261.477V48.5H260.471V47.392H260.403C260.25 47.7244 260.011 48.0071 259.687 48.2401C259.363 48.4702 258.954 48.5852 258.46 48.5852C258.051 48.5852 257.687 48.4957 257.369 48.3168C257.051 48.1349 256.801 47.8622 256.619 47.4986C256.437 47.1321 256.346 46.6705 256.346 46.1136V41.9545H257.352V46.0455C257.352 46.5227 257.485 46.9034 257.752 47.1875C258.022 47.4716 258.366 47.6136 258.784 47.6136C259.034 47.6136 259.288 47.5497 259.547 47.4219C259.808 47.294 260.027 47.098 260.203 46.8338C260.382 46.5696 260.471 46.233 260.471 45.8239ZM263.319 48.5V41.9545H264.29V42.9432H264.359C264.478 42.6193 264.694 42.3565 265.006 42.1548C265.319 41.9531 265.671 41.8523 266.063 41.8523C266.137 41.8523 266.229 41.8537 266.34 41.8565C266.451 41.8594 266.535 41.8636 266.592 41.8693V42.892C266.558 42.8835 266.479 42.8707 266.357 42.8537C266.238 42.8338 266.112 42.8239 265.978 42.8239C265.66 42.8239 265.376 42.8906 265.126 43.0241C264.879 43.1548 264.683 43.3366 264.538 43.5696C264.396 43.7997 264.325 44.0625 264.325 44.358V48.5H263.319ZM271.159 48.5V41.9545H272.13V42.9432H272.199C272.318 42.6193 272.534 42.3565 272.846 42.1548C273.159 41.9531 273.511 41.8523 273.903 41.8523C273.977 41.8523 274.069 41.8537 274.18 41.8565C274.291 41.8594 274.375 41.8636 274.431 41.8693V42.892C274.397 42.8835 274.319 42.8707 274.197 42.8537C274.078 42.8338 273.951 42.8239 273.818 42.8239C273.5 42.8239 273.216 42.8906 272.966 43.0241C272.718 43.1548 272.522 43.3366 272.377 43.5696C272.235 43.7997 272.164 44.0625 272.164 44.358V48.5H271.159ZM278.169 48.6364C277.538 48.6364 276.994 48.4972 276.537 48.2188C276.082 47.9375 275.731 47.5455 275.484 47.0426C275.24 46.5369 275.118 45.9489 275.118 45.2784C275.118 44.608 275.24 44.017 275.484 43.5057C275.731 42.9915 276.075 42.5909 276.515 42.304C276.958 42.0142 277.475 41.8693 278.066 41.8693C278.407 41.8693 278.744 41.9261 279.076 42.0398C279.409 42.1534 279.711 42.3381 279.984 42.5938C280.257 42.8466 280.474 43.1818 280.636 43.5994C280.798 44.017 280.879 44.5312 280.879 45.142V45.5682H275.833V44.6989H279.856C279.856 44.3295 279.782 44 279.635 43.7102C279.49 43.4205 279.282 43.1918 279.012 43.0241C278.745 42.8565 278.43 42.7727 278.066 42.7727C277.666 42.7727 277.319 42.8722 277.027 43.071C276.737 43.267 276.514 43.5227 276.358 43.8381C276.201 44.1534 276.123 44.4915 276.123 44.8523V45.4318C276.123 45.9261 276.208 46.3452 276.379 46.6889C276.552 47.0298 276.792 47.2898 277.099 47.4688C277.406 47.6449 277.762 47.733 278.169 47.733C278.433 47.733 278.672 47.696 278.885 47.6222C279.1 47.5455 279.287 47.4318 279.443 47.2812C279.599 47.1278 279.72 46.9375 279.805 46.7102L280.777 46.983C280.674 47.3125 280.502 47.6023 280.261 47.8523C280.02 48.0994 279.721 48.2926 279.366 48.4318C279.011 48.5682 278.612 48.6364 278.169 48.6364ZM287.045 43.4205L286.142 43.6761C286.085 43.5256 286.001 43.3793 285.89 43.2372C285.782 43.0923 285.635 42.973 285.447 42.8793C285.26 42.7855 285.02 42.7386 284.727 42.7386C284.326 42.7386 283.993 42.831 283.725 43.0156C283.461 43.1974 283.329 43.429 283.329 43.7102C283.329 43.9602 283.42 44.1577 283.602 44.3026C283.784 44.4474 284.068 44.5682 284.454 44.6648L285.426 44.9034C286.011 45.0455 286.447 45.2628 286.734 45.5554C287.021 45.8452 287.164 46.2187 287.164 46.6761C287.164 47.0511 287.056 47.3864 286.841 47.6818C286.627 47.9773 286.329 48.2102 285.946 48.3807C285.562 48.5511 285.116 48.6364 284.608 48.6364C283.94 48.6364 283.387 48.4915 282.95 48.2017C282.512 47.9119 282.235 47.4886 282.119 46.9318L283.074 46.6932C283.164 47.0455 283.336 47.3097 283.589 47.4858C283.845 47.6619 284.179 47.75 284.591 47.75C285.059 47.75 285.431 47.6506 285.707 47.4517C285.985 47.25 286.125 47.0085 286.125 46.7273C286.125 46.5 286.045 46.3097 285.886 46.1562C285.727 46 285.483 45.8835 285.153 45.8068L284.062 45.5511C283.463 45.4091 283.022 45.1889 282.741 44.8906C282.463 44.5895 282.324 44.2131 282.324 43.7614C282.324 43.392 282.427 43.0653 282.635 42.7812C282.845 42.4972 283.13 42.2741 283.491 42.1122C283.855 41.9503 284.267 41.8693 284.727 41.8693C285.375 41.8693 285.883 42.0114 286.252 42.2955C286.625 42.5795 286.889 42.9545 287.045 43.4205ZM291.423 48.6364C290.792 48.6364 290.248 48.4972 289.79 48.2188C289.336 47.9375 288.985 47.5455 288.738 47.0426C288.494 46.5369 288.371 45.9489 288.371 45.2784C288.371 44.608 288.494 44.017 288.738 43.5057C288.985 42.9915 289.329 42.5909 289.769 42.304C290.212 42.0142 290.729 41.8693 291.32 41.8693C291.661 41.8693 291.998 41.9261 292.33 42.0398C292.663 42.1534 292.965 42.3381 293.238 42.5938C293.511 42.8466 293.728 43.1818 293.89 43.5994C294.052 44.017 294.133 44.5312 294.133 45.142V45.5682H289.087V44.6989H293.11C293.11 44.3295 293.036 44 292.888 43.7102C292.744 43.4205 292.536 43.1918 292.266 43.0241C291.999 42.8565 291.684 42.7727 291.32 42.7727C290.92 42.7727 290.573 42.8722 290.281 43.071C289.991 43.267 289.768 43.5227 289.612 43.8381C289.455 44.1534 289.377 44.4915 289.377 44.8523V45.4318C289.377 45.9261 289.462 46.3452 289.633 46.6889C289.806 47.0298 290.046 47.2898 290.353 47.4688C290.66 47.6449 291.016 47.733 291.423 47.733C291.687 47.733 291.925 47.696 292.138 47.6222C292.354 47.5455 292.54 47.4318 292.697 47.2812C292.853 47.1278 292.974 46.9375 293.059 46.7102L294.031 46.983C293.928 47.3125 293.756 47.6023 293.515 47.8523C293.273 48.0994 292.975 48.2926 292.62 48.4318C292.265 48.5682 291.866 48.6364 291.423 48.6364ZM297.589 48.6534C297.174 48.6534 296.798 48.5753 296.46 48.419C296.121 48.2599 295.853 48.0312 295.654 47.733C295.455 47.4318 295.356 47.0682 295.356 46.642C295.356 46.267 295.43 45.9631 295.577 45.7301C295.725 45.4943 295.923 45.3097 296.17 45.1761C296.417 45.0426 296.69 44.9432 296.988 44.8778C297.289 44.8097 297.592 44.7557 297.896 44.7159C298.293 44.6648 298.616 44.6264 298.863 44.6009C299.113 44.5724 299.295 44.5256 299.408 44.4602C299.525 44.3949 299.583 44.2812 299.583 44.1193V44.0852C299.583 43.6648 299.468 43.3381 299.238 43.1051C299.011 42.8722 298.665 42.7557 298.202 42.7557C297.722 42.7557 297.346 42.8608 297.073 43.071C296.8 43.2812 296.609 43.5057 296.498 43.7443L295.543 43.4034C295.714 43.0057 295.941 42.696 296.225 42.4744C296.512 42.25 296.825 42.0937 297.163 42.0057C297.504 41.9148 297.839 41.8693 298.168 41.8693C298.379 41.8693 298.62 41.8949 298.893 41.946C299.168 41.9943 299.434 42.0952 299.69 42.2486C299.948 42.402 300.163 42.6335 300.333 42.9432C300.504 43.2528 300.589 43.6676 300.589 44.1875V48.5H299.583V47.6136H299.532C299.464 47.7557 299.35 47.9077 299.191 48.0696C299.032 48.2315 298.82 48.3693 298.556 48.483C298.292 48.5966 297.969 48.6534 297.589 48.6534ZM297.742 47.75C298.14 47.75 298.475 47.6719 298.748 47.5156C299.023 47.3594 299.231 47.1577 299.37 46.9105C299.512 46.6634 299.583 46.4034 299.583 46.1307V45.2102C299.54 45.2614 299.447 45.3082 299.302 45.3509C299.16 45.3906 298.995 45.4261 298.808 45.4574C298.623 45.4858 298.442 45.5114 298.266 45.5341C298.093 45.554 297.952 45.571 297.844 45.5852C297.583 45.6193 297.339 45.6747 297.112 45.7514C296.887 45.8253 296.705 45.9375 296.566 46.0881C296.43 46.2358 296.362 46.4375 296.362 46.6932C296.362 47.0426 296.491 47.3068 296.749 47.4858C297.011 47.6619 297.342 47.75 297.742 47.75ZM302.424 48.5V41.9545H303.396V42.9432H303.464C303.583 42.6193 303.799 42.3565 304.112 42.1548C304.424 41.9531 304.777 41.8523 305.169 41.8523C305.243 41.8523 305.335 41.8537 305.446 41.8565C305.556 41.8594 305.64 41.8636 305.697 41.8693V42.892C305.663 42.8835 305.585 42.8707 305.463 42.8537C305.343 42.8338 305.217 42.8239 305.083 42.8239C304.765 42.8239 304.481 42.8906 304.231 43.0241C303.984 43.1548 303.788 43.3366 303.643 43.5696C303.501 43.7997 303.43 44.0625 303.43 44.358V48.5H302.424ZM309.349 48.6364C308.735 48.6364 308.207 48.4915 307.764 48.2017C307.321 47.9119 306.98 47.5128 306.741 47.0043C306.502 46.4957 306.383 45.9148 306.383 45.2614C306.383 44.5966 306.505 44.0099 306.75 43.5014C306.997 42.9901 307.341 42.5909 307.781 42.304C308.224 42.0142 308.741 41.8693 309.332 41.8693C309.792 41.8693 310.207 41.9545 310.576 42.125C310.946 42.2955 311.248 42.5341 311.484 42.8409C311.72 43.1477 311.866 43.5057 311.923 43.9148H310.917C310.841 43.6165 310.67 43.3523 310.406 43.1222C310.145 42.8892 309.792 42.7727 309.349 42.7727C308.957 42.7727 308.613 42.875 308.318 43.0795C308.025 43.2812 307.797 43.5668 307.632 43.9361C307.47 44.3026 307.389 44.733 307.389 45.2273C307.389 45.733 307.468 46.1733 307.627 46.5483C307.789 46.9233 308.017 47.2145 308.309 47.4219C308.605 47.6293 308.951 47.733 309.349 47.733C309.61 47.733 309.848 47.6875 310.061 47.5966C310.274 47.5057 310.454 47.375 310.602 47.2045C310.75 47.0341 310.855 46.8295 310.917 46.5909H311.923C311.866 46.9773 311.725 47.3253 311.501 47.6349C311.279 47.9418 310.985 48.1861 310.619 48.3679C310.255 48.5469 309.832 48.6364 309.349 48.6364ZM314.399 44.5625V48.5H313.393V39.7727H314.399V42.9773H314.484C314.637 42.6392 314.868 42.3707 315.174 42.1719C315.484 41.9702 315.896 41.8693 316.41 41.8693C316.856 41.8693 317.247 41.9588 317.582 42.1378C317.917 42.3139 318.177 42.5852 318.362 42.9517C318.549 43.3153 318.643 43.7784 318.643 44.3409V48.5H317.637V44.4091C317.637 43.8892 317.502 43.4872 317.233 43.2031C316.966 42.9162 316.595 42.7727 316.12 42.7727C315.791 42.7727 315.495 42.8423 315.234 42.9815C314.975 43.1207 314.771 43.3239 314.62 43.5909C314.473 43.858 314.399 44.1818 314.399 44.5625ZM323.858 50.9545V41.9545H324.83V42.9943H324.949C325.023 42.8807 325.125 42.7358 325.256 42.5597C325.389 42.3807 325.58 42.2216 325.827 42.0824C326.077 41.9403 326.415 41.8693 326.841 41.8693C327.392 41.8693 327.878 42.0071 328.298 42.2827C328.719 42.5582 329.047 42.9489 329.283 43.4545C329.518 43.9602 329.636 44.5568 329.636 45.2443C329.636 45.9375 329.518 46.5384 329.283 47.0469C329.047 47.5526 328.72 47.9446 328.303 48.223C327.885 48.4986 327.403 48.6364 326.858 48.6364C326.438 48.6364 326.101 48.5668 325.848 48.4276C325.595 48.2855 325.401 48.125 325.264 47.946C325.128 47.7642 325.023 47.6136 324.949 47.4943H324.864V50.9545H323.858ZM324.847 45.2273C324.847 45.7216 324.919 46.1577 325.064 46.5355C325.209 46.9105 325.42 47.2045 325.699 47.4176C325.977 47.6278 326.318 47.733 326.722 47.733C327.142 47.733 327.493 47.6222 327.774 47.4006C328.058 47.1761 328.271 46.875 328.413 46.4972C328.558 46.1165 328.631 45.6932 328.631 45.2273C328.631 44.767 328.56 44.3523 328.418 43.983C328.278 43.6108 328.067 43.3168 327.783 43.1009C327.501 42.8821 327.148 42.7727 326.722 42.7727C326.313 42.7727 325.969 42.8764 325.69 43.0838C325.412 43.2884 325.202 43.5753 325.06 43.9446C324.918 44.3111 324.847 44.7386 324.847 45.2273ZM333.097 48.6534C332.682 48.6534 332.305 48.5753 331.967 48.419C331.629 48.2599 331.361 48.0312 331.162 47.733C330.963 47.4318 330.864 47.0682 330.864 46.642C330.864 46.267 330.938 45.9631 331.085 45.7301C331.233 45.4943 331.43 45.3097 331.678 45.1761C331.925 45.0426 332.197 44.9432 332.496 44.8778C332.797 44.8097 333.099 44.7557 333.403 44.7159C333.801 44.6648 334.124 44.6264 334.371 44.6009C334.621 44.5724 334.803 44.5256 334.916 44.4602C335.033 44.3949 335.091 44.2812 335.091 44.1193V44.0852C335.091 43.6648 334.976 43.3381 334.746 43.1051C334.518 42.8722 334.173 42.7557 333.71 42.7557C333.23 42.7557 332.854 42.8608 332.581 43.071C332.308 43.2812 332.116 43.5057 332.006 43.7443L331.051 43.4034C331.222 43.0057 331.449 42.696 331.733 42.4744C332.02 42.25 332.332 42.0937 332.67 42.0057C333.011 41.9148 333.347 41.8693 333.676 41.8693C333.886 41.8693 334.128 41.8949 334.401 41.946C334.676 41.9943 334.942 42.0952 335.197 42.2486C335.456 42.402 335.67 42.6335 335.841 42.9432C336.011 43.2528 336.097 43.6676 336.097 44.1875V48.5H335.091V47.6136H335.04C334.972 47.7557 334.858 47.9077 334.699 48.0696C334.54 48.2315 334.328 48.3693 334.064 48.483C333.8 48.5966 333.477 48.6534 333.097 48.6534ZM333.25 47.75C333.648 47.75 333.983 47.6719 334.256 47.5156C334.531 47.3594 334.739 47.1577 334.878 46.9105C335.02 46.6634 335.091 46.4034 335.091 46.1307V45.2102C335.048 45.2614 334.955 45.3082 334.81 45.3509C334.668 45.3906 334.503 45.4261 334.315 45.4574C334.131 45.4858 333.95 45.5114 333.774 45.5341C333.601 45.554 333.46 45.571 333.352 45.5852C333.091 45.6193 332.847 45.6747 332.619 45.7514C332.395 45.8253 332.213 45.9375 332.074 46.0881C331.938 46.2358 331.869 46.4375 331.869 46.6932C331.869 47.0426 331.999 47.3068 332.257 47.4858C332.518 47.6619 332.849 47.75 333.25 47.75ZM340.574 51.0909C340.088 51.0909 339.671 51.0284 339.321 50.9034C338.972 50.7812 338.681 50.6193 338.448 50.4176C338.218 50.2188 338.034 50.0057 337.898 49.7784L338.699 49.2159C338.79 49.3352 338.905 49.4716 339.044 49.625C339.184 49.7812 339.374 49.9162 339.615 50.0298C339.86 50.1463 340.179 50.2045 340.574 50.2045C341.103 50.2045 341.539 50.0767 341.882 49.821C342.226 49.5653 342.398 49.1648 342.398 48.6193V47.2898H342.313C342.239 47.4091 342.134 47.5568 341.998 47.733C341.864 47.9062 341.671 48.0611 341.418 48.1974C341.168 48.331 340.83 48.3977 340.404 48.3977C339.875 48.3977 339.401 48.2727 338.98 48.0227C338.563 47.7727 338.232 47.4091 337.988 46.9318C337.746 46.4545 337.625 45.875 337.625 45.1932C337.625 44.5227 337.743 43.9389 337.979 43.4418C338.215 42.9418 338.543 42.5554 338.963 42.2827C339.384 42.0071 339.87 41.8693 340.421 41.8693C340.847 41.8693 341.185 41.9403 341.435 42.0824C341.688 42.2216 341.881 42.3807 342.015 42.5597C342.151 42.7358 342.256 42.8807 342.33 42.9943H342.432V41.9545H343.404V48.6875C343.404 49.25 343.276 49.7074 343.02 50.0597C342.767 50.4148 342.426 50.6747 341.998 50.8395C341.571 51.0071 341.097 51.0909 340.574 51.0909ZM340.54 47.4943C340.944 47.4943 341.284 47.402 341.563 47.2173C341.841 47.0327 342.053 46.767 342.198 46.4205C342.343 46.0739 342.415 45.6591 342.415 45.1761C342.415 44.7045 342.344 44.2884 342.202 43.9276C342.06 43.5668 341.85 43.2841 341.571 43.0795C341.293 42.875 340.949 42.7727 340.54 42.7727C340.114 42.7727 339.759 42.8807 339.475 43.0966C339.194 43.3125 338.982 43.6023 338.84 43.9659C338.701 44.3295 338.631 44.733 338.631 45.1761C338.631 45.6307 338.702 46.0327 338.844 46.3821C338.989 46.7287 339.202 47.0014 339.483 47.2003C339.767 47.3963 340.12 47.4943 340.54 47.4943ZM347.989 48.6364C347.358 48.6364 346.814 48.4972 346.357 48.2188C345.902 47.9375 345.551 47.5455 345.304 47.0426C345.06 46.5369 344.938 45.9489 344.938 45.2784C344.938 44.608 345.06 44.017 345.304 43.5057C345.551 42.9915 345.895 42.5909 346.336 42.304C346.779 42.0142 347.296 41.8693 347.887 41.8693C348.228 41.8693 348.564 41.9261 348.897 42.0398C349.229 42.1534 349.532 42.3381 349.804 42.5938C350.077 42.8466 350.294 43.1818 350.456 43.5994C350.618 44.017 350.699 44.5312 350.699 45.142V45.5682H345.654V44.6989H349.676C349.676 44.3295 349.603 44 349.455 43.7102C349.31 43.4205 349.103 43.1918 348.833 43.0241C348.566 42.8565 348.25 42.7727 347.887 42.7727C347.486 42.7727 347.14 42.8722 346.847 43.071C346.557 43.267 346.334 43.5227 346.178 43.8381C346.022 44.1534 345.944 44.4915 345.944 44.8523V45.4318C345.944 45.9261 346.029 46.3452 346.199 46.6889C346.373 47.0298 346.613 47.2898 346.919 47.4688C347.226 47.6449 347.583 47.733 347.989 47.733C348.253 47.733 348.492 47.696 348.705 47.6222C348.921 47.5455 349.107 47.4318 349.263 47.2812C349.419 47.1278 349.54 46.9375 349.625 46.7102L350.597 46.983C350.495 47.3125 350.323 47.6023 350.081 47.8523C349.84 48.0994 349.542 48.2926 349.186 48.4318C348.831 48.5682 348.432 48.6364 347.989 48.6364ZM353.542 46.0455V45.9943C353.547 45.4517 353.604 45.0199 353.712 44.6989C353.82 44.3778 353.973 44.1179 354.172 43.919C354.371 43.7202 354.61 43.5369 354.888 43.3693C355.056 43.267 355.206 43.1463 355.34 43.0071C355.473 42.8651 355.578 42.7017 355.655 42.517C355.735 42.3324 355.775 42.1278 355.775 41.9034C355.775 41.625 355.709 41.3835 355.578 41.179C355.448 40.9744 355.273 40.8168 355.054 40.706C354.836 40.5952 354.593 40.5398 354.326 40.5398C354.093 40.5398 353.868 40.5881 353.652 40.6847C353.436 40.7812 353.256 40.9332 353.111 41.1406C352.966 41.348 352.882 41.6193 352.86 41.9545H351.786C351.809 41.4716 351.934 41.0582 352.161 40.7145C352.391 40.3707 352.694 40.108 353.069 39.9261C353.446 39.7443 353.865 39.6534 354.326 39.6534C354.826 39.6534 355.26 39.7528 355.63 39.9517C356.002 40.1506 356.289 40.4233 356.49 40.7699C356.695 41.1165 356.797 41.5114 356.797 41.9545C356.797 42.267 356.749 42.5497 356.652 42.8026C356.559 43.0554 356.422 43.2812 356.243 43.4801C356.067 43.679 355.854 43.8551 355.604 44.0085C355.354 44.1648 355.154 44.3295 355.003 44.5028C354.853 44.6733 354.743 44.8764 354.675 45.1122C354.607 45.348 354.57 45.642 354.564 45.9943V46.0455H353.542ZM354.087 48.5682C353.877 48.5682 353.696 48.4929 353.546 48.3423C353.395 48.1918 353.32 48.0114 353.32 47.8011C353.32 47.5909 353.395 47.4105 353.546 47.2599C353.696 47.1094 353.877 47.0341 354.087 47.0341C354.297 47.0341 354.478 47.1094 354.628 47.2599C354.779 47.4105 354.854 47.5909 354.854 47.8011C354.854 47.9403 354.819 48.0682 354.748 48.1847C354.679 48.3011 354.587 48.3949 354.471 48.4659C354.357 48.5341 354.229 48.5682 354.087 48.5682Z" fill="white" fill-opacity="0.8"/>
<path d="M43.7045 63.6818H44.5455L46.5227 68.5114H46.5909L48.5682 63.6818H49.4091V69.5H48.75V65.0795H48.6932L46.875 69.5H46.2386L44.4205 65.0795H44.3636V69.5H43.7045V63.6818ZM53.4808 67.7159V65.1364H54.1513V69.5H53.4808V68.7614H53.4354C53.3331 68.983 53.174 69.1714 52.9581 69.3267C52.7422 69.4801 52.4695 69.5568 52.1399 69.5568C51.8672 69.5568 51.6248 69.4972 51.4126 69.3778C51.2005 69.2566 51.0339 69.0748 50.9126 68.8324C50.7914 68.5881 50.7308 68.2803 50.7308 67.9091V65.1364H51.4013V67.8636C51.4013 68.1818 51.4903 68.4356 51.6683 68.625C51.8482 68.8144 52.0774 68.9091 52.3558 68.9091C52.5225 68.9091 52.692 68.8665 52.8643 68.7812C53.0386 68.696 53.1844 68.5653 53.3018 68.3892C53.4212 68.2131 53.4808 67.9886 53.4808 67.7159ZM56.0497 63.6818V69.5H55.3793V63.6818H56.0497ZM59.1754 65.1364V65.7045H56.9141V65.1364H59.1754ZM57.5732 64.0909H58.2436V68.25C58.2436 68.4394 58.2711 68.5814 58.326 68.6761C58.3828 68.7689 58.4548 68.8314 58.5419 68.8636C58.6309 68.8939 58.7247 68.9091 58.8232 68.9091C58.897 68.9091 58.9576 68.9053 59.005 68.8977C59.0523 68.8883 59.0902 68.8807 59.1186 68.875L59.255 69.4773C59.2095 69.4943 59.1461 69.5114 59.0646 69.5284C58.9832 69.5473 58.88 69.5568 58.755 69.5568C58.5656 69.5568 58.38 69.5161 58.1982 69.4347C58.0182 69.3532 57.8686 69.2292 57.7493 69.0625C57.6319 68.8958 57.5732 68.6856 57.5732 68.4318V64.0909ZM60.1839 69.5V65.1364H60.8544V69.5H60.1839ZM60.5249 64.4091C60.3942 64.4091 60.2815 64.3646 60.1868 64.2756C60.094 64.1866 60.0476 64.0795 60.0476 63.9545C60.0476 63.8295 60.094 63.7225 60.1868 63.6335C60.2815 63.5445 60.3942 63.5 60.5249 63.5C60.6555 63.5 60.7673 63.5445 60.8601 63.6335C60.9548 63.7225 61.0021 63.8295 61.0021 63.9545C61.0021 64.0795 60.9548 64.1866 60.8601 64.2756C60.7673 64.3646 60.6555 64.4091 60.5249 64.4091ZM67.4233 66.1136L66.821 66.2841C66.7831 66.1837 66.7273 66.0862 66.6534 65.9915C66.5814 65.8949 66.483 65.8153 66.358 65.7528C66.233 65.6903 66.0729 65.6591 65.8778 65.6591C65.6108 65.6591 65.3883 65.7206 65.2102 65.8438C65.0341 65.965 64.946 66.1193 64.946 66.3068C64.946 66.4735 65.0066 66.6051 65.1278 66.7017C65.2491 66.7983 65.4384 66.8788 65.696 66.9432L66.3438 67.1023C66.7339 67.197 67.0246 67.3419 67.2159 67.5369C67.4072 67.7301 67.5028 67.9792 67.5028 68.2841C67.5028 68.5341 67.4309 68.7576 67.2869 68.9545C67.1449 69.1515 66.946 69.3068 66.6903 69.4205C66.4347 69.5341 66.1373 69.5909 65.7983 69.5909C65.3532 69.5909 64.9848 69.4943 64.6932 69.3011C64.4015 69.108 64.2169 68.8258 64.1392 68.4545L64.7756 68.2955C64.8362 68.5303 64.9508 68.7064 65.1193 68.8239C65.2898 68.9413 65.5123 69 65.7869 69C66.0994 69 66.3475 68.9337 66.5312 68.8011C66.7169 68.6667 66.8097 68.5057 66.8097 68.3182C66.8097 68.1667 66.7566 68.0398 66.6506 67.9375C66.5445 67.8333 66.3816 67.7557 66.1619 67.7045L65.4347 67.5341C65.035 67.4394 64.7415 67.2926 64.554 67.0938C64.3684 66.893 64.2756 66.642 64.2756 66.3409C64.2756 66.0947 64.3447 65.8769 64.483 65.6875C64.6231 65.4981 64.8134 65.3494 65.054 65.2415C65.2964 65.1335 65.571 65.0795 65.8778 65.0795C66.3097 65.0795 66.6487 65.1742 66.8949 65.3636C67.143 65.553 67.3191 65.803 67.4233 66.1136ZM70.3416 69.5909C69.9212 69.5909 69.5585 69.4981 69.2536 69.3125C68.9505 69.125 68.7166 68.8636 68.5518 68.5284C68.389 68.1913 68.3075 67.7992 68.3075 67.3523C68.3075 66.9053 68.389 66.5114 68.5518 66.1705C68.7166 65.8277 68.9458 65.5606 69.2393 65.3693C69.5348 65.1761 69.8795 65.0795 70.2734 65.0795C70.5007 65.0795 70.7251 65.1174 70.9467 65.1932C71.1683 65.2689 71.37 65.392 71.5518 65.5625C71.7337 65.7311 71.8786 65.9545 71.9865 66.233C72.0945 66.5114 72.1484 66.8542 72.1484 67.2614V67.5455H68.7848V66.9659H71.4666C71.4666 66.7197 71.4174 66.5 71.3189 66.3068C71.2223 66.1136 71.084 65.9612 70.9041 65.8494C70.7261 65.7377 70.5159 65.6818 70.2734 65.6818C70.0064 65.6818 69.7753 65.7481 69.5803 65.8807C69.3871 66.0114 69.2384 66.1818 69.1342 66.392C69.0301 66.6023 68.978 66.8277 68.978 67.0682V67.4545C68.978 67.7841 69.0348 68.0634 69.1484 68.2926C69.264 68.5199 69.424 68.6932 69.6286 68.8125C69.8331 68.9299 70.0708 68.9886 70.3416 68.9886C70.5178 68.9886 70.6768 68.964 70.8189 68.9148C70.9628 68.8636 71.0869 68.7879 71.1911 68.6875C71.2952 68.5852 71.3757 68.4583 71.4325 68.3068L72.0803 68.4886C72.0121 68.7083 71.8975 68.9015 71.7365 69.0682C71.5755 69.233 71.3767 69.3617 71.1399 69.4545C70.9032 69.5455 70.6371 69.5909 70.3416 69.5909ZM73.8388 63.6818V69.5H73.1683V63.6818H73.8388ZM76.8963 69.5909C76.4759 69.5909 76.1132 69.4981 75.8082 69.3125C75.5052 69.125 75.2713 68.8636 75.1065 68.5284C74.9437 68.1913 74.8622 67.7992 74.8622 67.3523C74.8622 66.9053 74.9437 66.5114 75.1065 66.1705C75.2713 65.8277 75.5005 65.5606 75.794 65.3693C76.0895 65.1761 76.4342 65.0795 76.8281 65.0795C77.0554 65.0795 77.2798 65.1174 77.5014 65.1932C77.723 65.2689 77.9247 65.392 78.1065 65.5625C78.2884 65.7311 78.4332 65.9545 78.5412 66.233C78.6491 66.5114 78.7031 66.8542 78.7031 67.2614V67.5455H75.3395V66.9659H78.0213C78.0213 66.7197 77.9721 66.5 77.8736 66.3068C77.777 66.1136 77.6387 65.9612 77.4588 65.8494C77.2808 65.7377 77.0705 65.6818 76.8281 65.6818C76.5611 65.6818 76.33 65.7481 76.1349 65.8807C75.9418 66.0114 75.7931 66.1818 75.6889 66.392C75.5848 66.6023 75.5327 66.8277 75.5327 67.0682V67.4545C75.5327 67.7841 75.5895 68.0634 75.7031 68.2926C75.8187 68.5199 75.9787 68.6932 76.1832 68.8125C76.3878 68.9299 76.6255 68.9886 76.8963 68.9886C77.0724 68.9886 77.2315 68.964 77.3736 68.9148C77.5175 68.8636 77.6416 68.7879 77.7457 68.6875C77.8499 68.5852 77.9304 68.4583 77.9872 68.3068L78.6349 68.4886C78.5668 68.7083 78.4522 68.9015 78.2912 69.0682C78.1302 69.233 77.9313 69.3617 77.6946 69.4545C77.4579 69.5455 77.1918 69.5909 76.8963 69.5909ZM81.4957 69.5909C81.0866 69.5909 80.7344 69.4943 80.4389 69.3011C80.1435 69.108 79.9162 68.8419 79.7571 68.5028C79.598 68.1638 79.5185 67.7765 79.5185 67.3409C79.5185 66.8977 79.5999 66.5066 79.7628 66.1676C79.9276 65.8267 80.1567 65.5606 80.4503 65.3693C80.7457 65.1761 81.0904 65.0795 81.4844 65.0795C81.7912 65.0795 82.0677 65.1364 82.3139 65.25C82.5601 65.3636 82.7618 65.5227 82.919 65.7273C83.0762 65.9318 83.1738 66.1705 83.2116 66.4432H82.5412C82.4901 66.2443 82.3764 66.0682 82.2003 65.9148C82.026 65.7595 81.7912 65.6818 81.4957 65.6818C81.2344 65.6818 81.0052 65.75 80.8082 65.8864C80.6132 66.0208 80.4607 66.2112 80.3509 66.4574C80.2429 66.7017 80.1889 66.9886 80.1889 67.3182C80.1889 67.6553 80.242 67.9489 80.348 68.1989C80.456 68.4489 80.6075 68.643 80.8026 68.7812C80.9995 68.9195 81.2306 68.9886 81.4957 68.9886C81.67 68.9886 81.8281 68.9583 81.9702 68.8977C82.1122 68.8371 82.2325 68.75 82.331 68.6364C82.4295 68.5227 82.4995 68.3864 82.5412 68.2273H83.2116C83.1738 68.4848 83.08 68.7169 82.9304 68.9233C82.7827 69.1278 82.5866 69.2907 82.3423 69.4119C82.0999 69.5312 81.8177 69.5909 81.4957 69.5909ZM86.0895 65.1364V65.7045H83.8281V65.1364H86.0895ZM84.4872 64.0909H85.1577V68.25C85.1577 68.4394 85.1851 68.5814 85.2401 68.6761C85.2969 68.7689 85.3688 68.8314 85.456 68.8636C85.545 68.8939 85.6387 68.9091 85.7372 68.9091C85.8111 68.9091 85.8717 68.9053 85.919 68.8977C85.9664 68.8883 86.0043 68.8807 86.0327 68.875L86.169 69.4773C86.1236 69.4943 86.0601 69.5114 85.9787 69.5284C85.8973 69.5473 85.794 69.5568 85.669 69.5568C85.4796 69.5568 85.294 69.5161 85.1122 69.4347C84.9323 69.3532 84.7827 69.2292 84.6634 69.0625C84.5459 68.8958 84.4872 68.6856 84.4872 68.4318V64.0909Z" fill="#C9C9C9"/>
<path d="M533 86H33V88H533V86Z" fill="#222222" mask="url(#path-4-inside-1_1170_57)"/>
<g clip-path="url(#clip2_1170_57)">
<path d="M43.9432 105H43.2045L45.3409 99.1818H46.0682L48.2045 105H47.4659L45.7273 100.102H45.6818L43.9432 105ZM44.2159 102.727H47.1932V103.352H44.2159V102.727ZM50.6676 105.091C50.304 105.091 49.983 104.999 49.7045 104.815C49.4261 104.63 49.2083 104.368 49.0511 104.031C48.8939 103.692 48.8153 103.292 48.8153 102.83C48.8153 102.371 48.8939 101.973 49.0511 101.636C49.2083 101.299 49.4271 101.039 49.7074 100.855C49.9877 100.671 50.3116 100.58 50.679 100.58C50.9631 100.58 51.1875 100.627 51.3523 100.722C51.5189 100.814 51.6458 100.92 51.733 101.04C51.822 101.157 51.8911 101.254 51.9403 101.33H51.9972V99.1818H52.6676V105H52.0199V104.33H51.9403C51.8911 104.409 51.821 104.509 51.7301 104.631C51.6392 104.75 51.5095 104.857 51.3409 104.952C51.1723 105.045 50.9479 105.091 50.6676 105.091ZM50.7585 104.489C51.0275 104.489 51.2547 104.419 51.4403 104.278C51.6259 104.136 51.767 103.94 51.8636 103.69C51.9602 103.438 52.0085 103.148 52.0085 102.818C52.0085 102.492 51.9612 102.207 51.8665 101.963C51.7718 101.717 51.6316 101.526 51.446 101.389C51.2604 101.251 51.0313 101.182 50.7585 101.182C50.4744 101.182 50.2377 101.255 50.0483 101.401C49.8608 101.545 49.7197 101.741 49.625 101.989C49.5322 102.235 49.4858 102.511 49.4858 102.818C49.4858 103.129 49.5331 103.411 49.6278 103.665C49.7244 103.917 49.8665 104.117 50.054 104.267C50.2434 104.415 50.4782 104.489 50.7585 104.489ZM55.6364 105.091C55.2727 105.091 54.9517 104.999 54.6733 104.815C54.3949 104.63 54.1771 104.368 54.0199 104.031C53.8627 103.692 53.7841 103.292 53.7841 102.83C53.7841 102.371 53.8627 101.973 54.0199 101.636C54.1771 101.299 54.3958 101.039 54.6761 100.855C54.9564 100.671 55.2803 100.58 55.6477 100.58C55.9318 100.58 56.1563 100.627 56.321 100.722C56.4877 100.814 56.6146 100.92 56.7017 101.04C56.7907 101.157 56.8598 101.254 56.9091 101.33H56.9659V99.1818H57.6364V105H56.9886V104.33H56.9091C56.8598 104.409 56.7898 104.509 56.6989 104.631C56.608 104.75 56.4782 104.857 56.3097 104.952C56.1411 105.045 55.9167 105.091 55.6364 105.091ZM55.7273 104.489C55.9962 104.489 56.2235 104.419 56.4091 104.278C56.5947 104.136 56.7358 103.94 56.8324 103.69C56.929 103.438 56.9773 103.148 56.9773 102.818C56.9773 102.492 56.9299 102.207 56.8352 101.963C56.7405 101.717 56.6004 101.526 56.4148 101.389C56.2292 101.251 56 101.182 55.7273 101.182C55.4432 101.182 55.2064 101.255 55.017 101.401C54.8295 101.545 54.6884 101.741 54.5938 101.989C54.5009 102.235 54.4545 102.511 54.4545 102.818C54.4545 103.129 54.5019 103.411 54.5966 103.665C54.6932 103.917 54.8352 104.117 55.0227 104.267C55.2121 104.415 55.447 104.489 55.7273 104.489ZM58.9574 105V100.636H59.6278V105H58.9574ZM59.2983 99.9091C59.1676 99.9091 59.0549 99.8646 58.9602 99.7756C58.8674 99.6866 58.821 99.5795 58.821 99.4545C58.821 99.3295 58.8674 99.2225 58.9602 99.1335C59.0549 99.0445 59.1676 99 59.2983 99C59.429 99 59.5407 99.0445 59.6335 99.1335C59.7282 99.2225 59.7756 99.3295 59.7756 99.4545C59.7756 99.5795 59.7282 99.6866 59.6335 99.7756C59.5407 99.8646 59.429 99.9091 59.2983 99.9091ZM61.5263 102.375V105H60.8558V100.636H61.5036V101.318H61.5604C61.6626 101.097 61.8179 100.919 62.0263 100.784C62.2346 100.648 62.5036 100.58 62.8331 100.58C63.1286 100.58 63.3871 100.64 63.6087 100.761C63.8303 100.881 64.0026 101.062 64.1257 101.307C64.2488 101.549 64.3104 101.856 64.3104 102.227V105H63.6399V102.273C63.6399 101.93 63.5509 101.663 63.3729 101.472C63.1948 101.278 62.9505 101.182 62.6399 101.182C62.4259 101.182 62.2346 101.228 62.0661 101.321C61.8994 101.414 61.7678 101.549 61.6712 101.727C61.5746 101.905 61.5263 102.121 61.5263 102.375ZM67.2969 106.727C66.973 106.727 66.6946 106.686 66.4616 106.602C66.2287 106.521 66.0346 106.413 65.8793 106.278C65.7259 106.146 65.6037 106.004 65.5128 105.852L66.0469 105.477C66.1075 105.557 66.1842 105.648 66.277 105.75C66.3698 105.854 66.4967 105.944 66.6577 106.02C66.8205 106.098 67.0336 106.136 67.2969 106.136C67.6491 106.136 67.9399 106.051 68.169 105.881C68.3982 105.71 68.5128 105.443 68.5128 105.08V104.193H68.456C68.4067 104.273 68.3366 104.371 68.2457 104.489C68.1567 104.604 68.0279 104.707 67.8594 104.798C67.6927 104.887 67.4673 104.932 67.1832 104.932C66.831 104.932 66.5147 104.848 66.2344 104.682C65.956 104.515 65.7353 104.273 65.5724 103.955C65.4115 103.636 65.331 103.25 65.331 102.795C65.331 102.348 65.4096 101.959 65.5668 101.628C65.724 101.295 65.9427 101.037 66.223 100.855C66.5033 100.671 66.8272 100.58 67.1946 100.58C67.4787 100.58 67.7041 100.627 67.8707 100.722C68.0393 100.814 68.1681 100.92 68.2571 101.04C68.348 101.157 68.4181 101.254 68.4673 101.33H68.5355V100.636H69.1832V105.125C69.1832 105.5 69.098 105.805 68.9276 106.04C68.759 106.277 68.5317 106.45 68.2457 106.56C67.9616 106.671 67.6454 106.727 67.2969 106.727ZM67.2741 104.33C67.5431 104.33 67.7704 104.268 67.956 104.145C68.1416 104.022 68.2827 103.845 68.3793 103.614C68.4759 103.383 68.5241 103.106 68.5241 102.784C68.5241 102.47 68.4768 102.192 68.3821 101.952C68.2874 101.711 68.1473 101.523 67.9616 101.386C67.776 101.25 67.5469 101.182 67.2741 101.182C66.9901 101.182 66.7533 101.254 66.5639 101.398C66.3764 101.542 66.2353 101.735 66.1406 101.977C66.0478 102.22 66.0014 102.489 66.0014 102.784C66.0014 103.087 66.0488 103.355 66.1435 103.588C66.2401 103.819 66.3821 104.001 66.5696 104.134C66.759 104.264 66.9938 104.33 67.2741 104.33ZM72.6605 105V100.636H73.3082V101.295H73.3537C73.4332 101.08 73.5772 100.904 73.7855 100.77C73.9938 100.635 74.2287 100.568 74.4901 100.568C74.5393 100.568 74.6009 100.569 74.6747 100.571C74.7486 100.573 74.8045 100.576 74.8423 100.58V101.261C74.8196 101.256 74.7675 101.247 74.6861 101.236C74.6065 101.223 74.5223 101.216 74.4332 101.216C74.2211 101.216 74.0317 101.26 73.8651 101.349C73.7003 101.437 73.5696 101.558 73.473 101.713C73.3783 101.866 73.331 102.042 73.331 102.239V105H72.6605ZM77.3338 105.091C76.9134 105.091 76.5507 104.998 76.2457 104.812C75.9427 104.625 75.7088 104.364 75.544 104.028C75.3812 103.691 75.2997 103.299 75.2997 102.852C75.2997 102.405 75.3812 102.011 75.544 101.67C75.7088 101.328 75.938 101.061 76.2315 100.869C76.527 100.676 76.8717 100.58 77.2656 100.58C77.4929 100.58 77.7173 100.617 77.9389 100.693C78.1605 100.769 78.3622 100.892 78.544 101.062C78.7259 101.231 78.8707 101.455 78.9787 101.733C79.0866 102.011 79.1406 102.354 79.1406 102.761V103.045H75.777V102.466H78.4588C78.4588 102.22 78.4096 102 78.3111 101.807C78.2145 101.614 78.0762 101.461 77.8963 101.349C77.7183 101.238 77.508 101.182 77.2656 101.182C76.9986 101.182 76.7675 101.248 76.5724 101.381C76.3793 101.511 76.2306 101.682 76.1264 101.892C76.0223 102.102 75.9702 102.328 75.9702 102.568V102.955C75.9702 103.284 76.027 103.563 76.1406 103.793C76.2562 104.02 76.4162 104.193 76.6207 104.312C76.8253 104.43 77.063 104.489 77.3338 104.489C77.5099 104.489 77.669 104.464 77.8111 104.415C77.955 104.364 78.0791 104.288 78.1832 104.188C78.2874 104.085 78.3679 103.958 78.4247 103.807L79.0724 103.989C79.0043 104.208 78.8897 104.402 78.7287 104.568C78.5677 104.733 78.3688 104.862 78.1321 104.955C77.8954 105.045 77.6293 105.091 77.3338 105.091ZM83.2514 101.614L82.6491 101.784C82.6113 101.684 82.5554 101.586 82.4815 101.491C82.4096 101.395 82.3111 101.315 82.1861 101.253C82.0611 101.19 81.901 101.159 81.706 101.159C81.4389 101.159 81.2164 101.221 81.0384 101.344C80.8622 101.465 80.7741 101.619 80.7741 101.807C80.7741 101.973 80.8348 102.105 80.956 102.202C81.0772 102.298 81.2666 102.379 81.5241 102.443L82.1719 102.602C82.562 102.697 82.8527 102.842 83.044 103.037C83.2353 103.23 83.331 103.479 83.331 103.784C83.331 104.034 83.259 104.258 83.1151 104.455C82.973 104.652 82.7741 104.807 82.5185 104.92C82.2628 105.034 81.9654 105.091 81.6264 105.091C81.1813 105.091 80.813 104.994 80.5213 104.801C80.2296 104.608 80.045 104.326 79.9673 103.955L80.6037 103.795C80.6643 104.03 80.7789 104.206 80.9474 104.324C81.1179 104.441 81.3404 104.5 81.6151 104.5C81.9276 104.5 82.1757 104.434 82.3594 104.301C82.545 104.167 82.6378 104.006 82.6378 103.818C82.6378 103.667 82.5848 103.54 82.4787 103.438C82.3726 103.333 82.2098 103.256 81.9901 103.205L81.2628 103.034C80.8632 102.939 80.5696 102.793 80.3821 102.594C80.1965 102.393 80.1037 102.142 80.1037 101.841C80.1037 101.595 80.1728 101.377 80.3111 101.188C80.4512 100.998 80.6416 100.849 80.8821 100.741C81.1245 100.634 81.3991 100.58 81.706 100.58C82.1378 100.58 82.4768 100.674 82.723 100.864C82.9711 101.053 83.1473 101.303 83.2514 101.614ZM86.1697 105.091C85.7493 105.091 85.3866 104.998 85.0817 104.812C84.7786 104.625 84.5447 104.364 84.38 104.028C84.2171 103.691 84.1357 103.299 84.1357 102.852C84.1357 102.405 84.2171 102.011 84.38 101.67C84.5447 101.328 84.7739 101.061 85.0675 100.869C85.3629 100.676 85.7076 100.58 86.1016 100.58C86.3288 100.58 86.5533 100.617 86.7749 100.693C86.9964 100.769 87.1982 100.892 87.38 101.062C87.5618 101.231 87.7067 101.455 87.8146 101.733C87.9226 102.011 87.9766 102.354 87.9766 102.761V103.045H84.6129V102.466H87.2947C87.2947 102.22 87.2455 102 87.147 101.807C87.0504 101.614 86.9122 101.461 86.7322 101.349C86.5542 101.238 86.344 101.182 86.1016 101.182C85.8345 101.182 85.6035 101.248 85.4084 101.381C85.2152 101.511 85.0665 101.682 84.9624 101.892C84.8582 102.102 84.8061 102.328 84.8061 102.568V102.955C84.8061 103.284 84.8629 103.563 84.9766 103.793C85.0921 104.02 85.2521 104.193 85.4567 104.312C85.6612 104.43 85.8989 104.489 86.1697 104.489C86.3459 104.489 86.505 104.464 86.647 104.415C86.791 104.364 86.915 104.288 87.0192 104.188C87.1233 104.085 87.2038 103.958 87.2607 103.807L87.9084 103.989C87.8402 104.208 87.7256 104.402 87.5646 104.568C87.4036 104.733 87.2048 104.862 86.968 104.955C86.7313 105.045 86.4652 105.091 86.1697 105.091ZM90.2805 105.102C90.004 105.102 89.7531 105.05 89.5277 104.946C89.3023 104.84 89.1233 104.688 88.9908 104.489C88.8582 104.288 88.7919 104.045 88.7919 103.761C88.7919 103.511 88.8411 103.309 88.9396 103.153C89.0381 102.996 89.1697 102.873 89.3345 102.784C89.4993 102.695 89.6811 102.629 89.88 102.585C90.0807 102.54 90.2824 102.504 90.4851 102.477C90.7502 102.443 90.9652 102.418 91.13 102.401C91.2966 102.382 91.4179 102.35 91.4936 102.307C91.5713 102.263 91.6101 102.187 91.6101 102.08V102.057C91.6101 101.777 91.5334 101.559 91.38 101.403C91.2285 101.248 90.9983 101.17 90.6896 101.17C90.3696 101.17 90.1186 101.241 89.9368 101.381C89.755 101.521 89.6271 101.67 89.5533 101.83L88.9169 101.602C89.0305 101.337 89.1821 101.131 89.3714 100.983C89.5627 100.833 89.7711 100.729 89.9964 100.67C90.2237 100.61 90.4472 100.58 90.6669 100.58C90.8071 100.58 90.968 100.597 91.1499 100.631C91.3336 100.663 91.5107 100.73 91.6811 100.832C91.8535 100.935 91.9964 101.089 92.1101 101.295C92.2237 101.502 92.2805 101.778 92.2805 102.125V105H91.6101V104.409H91.576C91.5305 104.504 91.4548 104.605 91.3487 104.713C91.2427 104.821 91.1016 104.913 90.9254 104.989C90.7493 105.064 90.5343 105.102 90.2805 105.102ZM90.3828 104.5C90.648 104.5 90.8714 104.448 91.0533 104.344C91.237 104.24 91.3752 104.105 91.468 103.94C91.5627 103.776 91.6101 103.602 91.6101 103.42V102.807C91.5817 102.841 91.5192 102.872 91.4226 102.901C91.3279 102.927 91.218 102.951 91.093 102.972C90.9699 102.991 90.8497 103.008 90.7322 103.023C90.6167 103.036 90.523 103.047 90.451 103.057C90.2768 103.08 90.1139 103.116 89.9624 103.168C89.8127 103.217 89.6915 103.292 89.5987 103.392C89.5078 103.491 89.4624 103.625 89.4624 103.795C89.4624 104.028 89.5485 104.205 89.7209 104.324C89.8951 104.441 90.1158 104.5 90.3828 104.5ZM93.5043 105V100.636H94.152V101.295H94.1974C94.277 101.08 94.4209 100.904 94.6293 100.77C94.8376 100.635 95.0724 100.568 95.3338 100.568C95.383 100.568 95.4446 100.569 95.5185 100.571C95.5923 100.573 95.6482 100.576 95.6861 100.58V101.261C95.6634 101.256 95.6113 101.247 95.5298 101.236C95.4503 101.223 95.366 101.216 95.277 101.216C95.0649 101.216 94.8755 101.26 94.7088 101.349C94.544 101.437 94.4134 101.558 94.3168 101.713C94.2221 101.866 94.1747 102.042 94.1747 102.239V105H93.5043ZM98.1207 105.091C97.7116 105.091 97.3594 104.994 97.0639 104.801C96.7685 104.608 96.5412 104.342 96.3821 104.003C96.223 103.664 96.1435 103.277 96.1435 102.841C96.1435 102.398 96.2249 102.007 96.3878 101.668C96.5526 101.327 96.7817 101.061 97.0753 100.869C97.3707 100.676 97.7154 100.58 98.1094 100.58C98.4162 100.58 98.6927 100.636 98.9389 100.75C99.1851 100.864 99.3868 101.023 99.544 101.227C99.7012 101.432 99.7988 101.67 99.8366 101.943H99.1662C99.1151 101.744 99.0014 101.568 98.8253 101.415C98.651 101.259 98.4162 101.182 98.1207 101.182C97.8594 101.182 97.6302 101.25 97.4332 101.386C97.2382 101.521 97.0857 101.711 96.9759 101.957C96.8679 102.202 96.8139 102.489 96.8139 102.818C96.8139 103.155 96.867 103.449 96.973 103.699C97.081 103.949 97.2325 104.143 97.4276 104.281C97.6245 104.42 97.8556 104.489 98.1207 104.489C98.295 104.489 98.4531 104.458 98.5952 104.398C98.7372 104.337 98.8575 104.25 98.956 104.136C99.0545 104.023 99.1245 103.886 99.1662 103.727H99.8366C99.7988 103.985 99.705 104.217 99.5554 104.423C99.4077 104.628 99.2116 104.791 98.9673 104.912C98.7249 105.031 98.4427 105.091 98.1207 105.091ZM101.487 102.375V105H100.817V99.1818H101.487V101.318H101.544C101.646 101.093 101.8 100.914 102.004 100.781C102.211 100.647 102.485 100.58 102.828 100.58C103.125 100.58 103.386 100.639 103.609 100.759C103.833 100.876 104.006 101.057 104.129 101.301C104.254 101.544 104.317 101.852 104.317 102.227V105H103.646V102.273C103.646 101.926 103.556 101.658 103.376 101.469C103.198 101.277 102.951 101.182 102.635 101.182C102.415 101.182 102.218 101.228 102.044 101.321C101.872 101.414 101.735 101.549 101.635 101.727C101.536 101.905 101.487 102.121 101.487 102.375ZM109.441 105.091C109.077 105.091 108.756 104.999 108.478 104.815C108.2 104.63 107.982 104.368 107.825 104.031C107.667 103.692 107.589 103.292 107.589 102.83C107.589 102.371 107.667 101.973 107.825 101.636C107.982 101.299 108.201 101.039 108.481 100.855C108.761 100.671 109.085 100.58 109.452 100.58C109.737 100.58 109.961 100.627 110.126 100.722C110.292 100.814 110.419 100.92 110.506 101.04C110.595 101.157 110.665 101.254 110.714 101.33H110.771V99.1818H111.441V105H110.793V104.33H110.714C110.665 104.409 110.594 104.509 110.504 104.631C110.413 104.75 110.283 104.857 110.114 104.952C109.946 105.045 109.721 105.091 109.441 105.091ZM109.532 104.489C109.801 104.489 110.028 104.419 110.214 104.278C110.399 104.136 110.54 103.94 110.637 103.69C110.734 103.438 110.782 103.148 110.782 102.818C110.782 102.492 110.735 102.207 110.64 101.963C110.545 101.717 110.405 101.526 110.219 101.389C110.034 101.251 109.805 101.182 109.532 101.182C109.248 101.182 109.011 101.255 108.822 101.401C108.634 101.545 108.493 101.741 108.398 101.989C108.306 102.235 108.259 102.511 108.259 102.818C108.259 103.129 108.307 103.411 108.401 103.665C108.498 103.917 108.64 104.117 108.827 104.267C109.017 104.415 109.252 104.489 109.532 104.489ZM114.592 105.091C114.171 105.091 113.808 104.998 113.504 104.812C113.201 104.625 112.967 104.364 112.802 104.028C112.639 103.691 112.558 103.299 112.558 102.852C112.558 102.405 112.639 102.011 112.802 101.67C112.967 101.328 113.196 101.061 113.489 100.869C113.785 100.676 114.129 100.58 114.523 100.58C114.751 100.58 114.975 100.617 115.197 100.693C115.418 100.769 115.62 100.892 115.802 101.062C115.984 101.231 116.129 101.455 116.237 101.733C116.344 102.011 116.398 102.354 116.398 102.761V103.045H113.035V102.466H115.717C115.717 102.22 115.667 102 115.569 101.807C115.472 101.614 115.334 101.461 115.154 101.349C114.976 101.238 114.766 101.182 114.523 101.182C114.256 101.182 114.025 101.248 113.83 101.381C113.637 101.511 113.488 101.682 113.384 101.892C113.28 102.102 113.228 102.328 113.228 102.568V102.955C113.228 103.284 113.285 103.563 113.398 103.793C113.514 104.02 113.674 104.193 113.879 104.312C114.083 104.43 114.321 104.489 114.592 104.489C114.768 104.489 114.927 104.464 115.069 104.415C115.213 104.364 115.337 104.288 115.441 104.188C115.545 104.085 115.626 103.958 115.683 103.807L116.33 103.989C116.262 104.208 116.147 104.402 115.987 104.568C115.826 104.733 115.627 104.862 115.39 104.955C115.153 105.045 114.887 105.091 114.592 105.091ZM120.509 101.614L119.907 101.784C119.869 101.684 119.813 101.586 119.739 101.491C119.667 101.395 119.569 101.315 119.444 101.253C119.319 101.19 119.159 101.159 118.964 101.159C118.697 101.159 118.474 101.221 118.296 101.344C118.12 101.465 118.032 101.619 118.032 101.807C118.032 101.973 118.093 102.105 118.214 102.202C118.335 102.298 118.524 102.379 118.782 102.443L119.43 102.602C119.82 102.697 120.111 102.842 120.302 103.037C120.493 103.23 120.589 103.479 120.589 103.784C120.589 104.034 120.517 104.258 120.373 104.455C120.231 104.652 120.032 104.807 119.776 104.92C119.521 105.034 119.223 105.091 118.884 105.091C118.439 105.091 118.071 104.994 117.779 104.801C117.487 104.608 117.303 104.326 117.225 103.955L117.862 103.795C117.922 104.03 118.037 104.206 118.205 104.324C118.376 104.441 118.598 104.5 118.873 104.5C119.185 104.5 119.433 104.434 119.617 104.301C119.803 104.167 119.896 104.006 119.896 103.818C119.896 103.667 119.843 103.54 119.737 103.438C119.63 103.333 119.468 103.256 119.248 103.205L118.521 103.034C118.121 102.939 117.827 102.793 117.64 102.594C117.454 102.393 117.362 102.142 117.362 101.841C117.362 101.595 117.431 101.377 117.569 101.188C117.709 100.998 117.899 100.849 118.14 100.741C118.382 100.634 118.657 100.58 118.964 100.58C119.396 100.58 119.735 100.674 119.981 100.864C120.229 101.053 120.405 101.303 120.509 101.614ZM123.371 105.091C122.962 105.091 122.609 104.994 122.314 104.801C122.018 104.608 121.791 104.342 121.632 104.003C121.473 103.664 121.393 103.277 121.393 102.841C121.393 102.398 121.475 102.007 121.638 101.668C121.803 101.327 122.032 101.061 122.325 100.869C122.621 100.676 122.965 100.58 123.359 100.58C123.666 100.58 123.943 100.636 124.189 100.75C124.435 100.864 124.637 101.023 124.794 101.227C124.951 101.432 125.049 101.67 125.087 101.943H124.416C124.365 101.744 124.251 101.568 124.075 101.415C123.901 101.259 123.666 101.182 123.371 101.182C123.109 101.182 122.88 101.25 122.683 101.386C122.488 101.521 122.336 101.711 122.226 101.957C122.118 102.202 122.064 102.489 122.064 102.818C122.064 103.155 122.117 103.449 122.223 103.699C122.331 103.949 122.482 104.143 122.678 104.281C122.875 104.42 123.106 104.489 123.371 104.489C123.545 104.489 123.703 104.458 123.845 104.398C123.987 104.337 124.107 104.25 124.206 104.136C124.304 104.023 124.375 103.886 124.416 103.727H125.087C125.049 103.985 124.955 104.217 124.805 104.423C124.658 104.628 124.462 104.791 124.217 104.912C123.975 105.031 123.693 105.091 123.371 105.091ZM126.067 105V100.636H126.714V101.295H126.76C126.839 101.08 126.983 100.904 127.192 100.77C127.4 100.635 127.635 100.568 127.896 100.568C127.946 100.568 128.007 100.569 128.081 100.571C128.155 100.573 128.211 100.576 128.249 100.58V101.261C128.226 101.256 128.174 101.247 128.092 101.236C128.013 101.223 127.929 101.216 127.839 101.216C127.627 101.216 127.438 101.26 127.271 101.349C127.107 101.437 126.976 101.558 126.879 101.713C126.785 101.866 126.737 102.042 126.737 102.239V105H126.067ZM129.043 105V100.636H129.714V105H129.043ZM129.384 99.9091C129.254 99.9091 129.141 99.8646 129.046 99.7756C128.953 99.6866 128.907 99.5795 128.907 99.4545C128.907 99.3295 128.953 99.2225 129.046 99.1335C129.141 99.0445 129.254 99 129.384 99C129.515 99 129.627 99.0445 129.719 99.1335C129.814 99.2225 129.862 99.3295 129.862 99.4545C129.862 99.5795 129.814 99.6866 129.719 99.7756C129.627 99.8646 129.515 99.9091 129.384 99.9091ZM130.942 106.636V100.636H131.589V101.33H131.669C131.718 101.254 131.786 101.157 131.874 101.04C131.963 100.92 132.089 100.814 132.254 100.722C132.421 100.627 132.646 100.58 132.93 100.58C133.298 100.58 133.622 100.671 133.902 100.855C134.182 101.039 134.401 101.299 134.558 101.636C134.715 101.973 134.794 102.371 134.794 102.83C134.794 103.292 134.715 103.692 134.558 104.031C134.401 104.368 134.183 104.63 133.905 104.815C133.626 104.999 133.305 105.091 132.942 105.091C132.661 105.091 132.437 105.045 132.268 104.952C132.1 104.857 131.97 104.75 131.879 104.631C131.788 104.509 131.718 104.409 131.669 104.33H131.612V106.636H130.942ZM131.601 102.818C131.601 103.148 131.649 103.438 131.746 103.69C131.842 103.94 131.983 104.136 132.169 104.278C132.355 104.419 132.582 104.489 132.851 104.489C133.131 104.489 133.365 104.415 133.553 104.267C133.742 104.117 133.884 103.917 133.979 103.665C134.075 103.411 134.124 103.129 134.124 102.818C134.124 102.511 134.076 102.235 133.982 101.989C133.889 101.741 133.748 101.545 133.558 101.401C133.371 101.255 133.135 101.182 132.851 101.182C132.578 101.182 132.349 101.251 132.163 101.389C131.978 101.526 131.838 101.717 131.743 101.963C131.648 102.207 131.601 102.492 131.601 102.818ZM137.714 100.636V101.205H135.453V100.636H137.714ZM136.112 99.5909H136.783V103.75C136.783 103.939 136.81 104.081 136.865 104.176C136.922 104.269 136.994 104.331 137.081 104.364C137.17 104.394 137.264 104.409 137.362 104.409C137.436 104.409 137.497 104.405 137.544 104.398C137.591 104.388 137.629 104.381 137.658 104.375L137.794 104.977C137.749 104.994 137.685 105.011 137.604 105.028C137.522 105.047 137.419 105.057 137.294 105.057C137.105 105.057 136.919 105.016 136.737 104.935C136.557 104.853 136.408 104.729 136.288 104.562C136.171 104.396 136.112 104.186 136.112 103.932V99.5909ZM138.723 105V100.636H139.393V105H138.723ZM139.064 99.9091C138.933 99.9091 138.821 99.8646 138.726 99.7756C138.633 99.6866 138.587 99.5795 138.587 99.4545C138.587 99.3295 138.633 99.2225 138.726 99.1335C138.821 99.0445 138.933 99 139.064 99C139.195 99 139.306 99.0445 139.399 99.1335C139.494 99.2225 139.541 99.3295 139.541 99.4545C139.541 99.5795 139.494 99.6866 139.399 99.7756C139.306 99.8646 139.195 99.9091 139.064 99.9091ZM142.394 105.091C142 105.091 141.655 104.997 141.357 104.81C141.062 104.622 140.831 104.36 140.664 104.023C140.499 103.686 140.417 103.292 140.417 102.841C140.417 102.386 140.499 101.99 140.664 101.651C140.831 101.312 141.062 101.048 141.357 100.861C141.655 100.673 142 100.58 142.394 100.58C142.788 100.58 143.133 100.673 143.428 100.861C143.726 101.048 143.957 101.312 144.121 101.651C144.288 101.99 144.371 102.386 144.371 102.841C144.371 103.292 144.288 103.686 144.121 104.023C143.957 104.36 143.726 104.622 143.428 104.81C143.133 104.997 142.788 105.091 142.394 105.091ZM142.394 104.489C142.693 104.489 142.94 104.412 143.133 104.259C143.326 104.105 143.469 103.903 143.562 103.653C143.655 103.403 143.701 103.133 143.701 102.841C143.701 102.549 143.655 102.277 143.562 102.026C143.469 101.774 143.326 101.57 143.133 101.415C142.94 101.259 142.693 101.182 142.394 101.182C142.095 101.182 141.849 101.259 141.656 101.415C141.462 101.57 141.319 101.774 141.227 102.026C141.134 102.277 141.087 102.549 141.087 102.841C141.087 103.133 141.134 103.403 141.227 103.653C141.319 103.903 141.462 104.105 141.656 104.259C141.849 104.412 142.095 104.489 142.394 104.489ZM146.065 102.375V105H145.395V100.636H146.043V101.318H146.099C146.202 101.097 146.357 100.919 146.565 100.784C146.774 100.648 147.043 100.58 147.372 100.58C147.668 100.58 147.926 100.64 148.148 100.761C148.369 100.881 148.542 101.062 148.665 101.307C148.788 101.549 148.849 101.856 148.849 102.227V105H148.179V102.273C148.179 101.93 148.09 101.663 147.912 101.472C147.734 101.278 147.49 101.182 147.179 101.182C146.965 101.182 146.774 101.228 146.605 101.321C146.438 101.414 146.307 101.549 146.21 101.727C146.114 101.905 146.065 102.121 146.065 102.375ZM153.165 101.614L152.563 101.784C152.525 101.684 152.469 101.586 152.396 101.491C152.324 101.395 152.225 101.315 152.1 101.253C151.975 101.19 151.815 101.159 151.62 101.159C151.353 101.159 151.13 101.221 150.952 101.344C150.776 101.465 150.688 101.619 150.688 101.807C150.688 101.973 150.749 102.105 150.87 102.202C150.991 102.298 151.181 102.379 151.438 102.443L152.086 102.602C152.476 102.697 152.767 102.842 152.958 103.037C153.149 103.23 153.245 103.479 153.245 103.784C153.245 104.034 153.173 104.258 153.029 104.455C152.887 104.652 152.688 104.807 152.433 104.92C152.177 105.034 151.879 105.091 151.54 105.091C151.095 105.091 150.727 104.994 150.435 104.801C150.144 104.608 149.959 104.326 149.881 103.955L150.518 103.795C150.578 104.03 150.693 104.206 150.862 104.324C151.032 104.441 151.254 104.5 151.529 104.5C151.842 104.5 152.09 104.434 152.273 104.301C152.459 104.167 152.552 104.006 152.552 103.818C152.552 103.667 152.499 103.54 152.393 103.438C152.287 103.333 152.124 103.256 151.904 103.205L151.177 103.034C150.777 102.939 150.484 102.793 150.296 102.594C150.111 102.393 150.018 102.142 150.018 101.841C150.018 101.595 150.087 101.377 150.225 101.188C150.365 100.998 150.556 100.849 150.796 100.741C151.039 100.634 151.313 100.58 151.62 100.58C152.052 100.58 152.391 100.674 152.637 100.864C152.885 101.053 153.061 101.303 153.165 101.614Z" fill="#C9C9C9"/>
<g clip-path="url(#clip3_1170_57)">
<rect x="43" y="109.5" width="329" height="15" fill="#222222"/>
</g>
<rect x="43.5" y="110" width="479" height="14" rx="2.5" stroke="#222222"/>
<path d="M533 133.5H33V135.5H533V133.5Z" fill="#222222" mask="url(#path-8-inside-2_1170_57)"/>
<path d="M48.3864 148.5H47.6818C47.6402 148.297 47.5672 148.119 47.4631 147.966C47.3608 147.812 47.2358 147.684 47.0881 147.58C46.9422 147.473 46.7803 147.394 46.6023 147.341C46.4242 147.288 46.2386 147.261 46.0455 147.261C45.6932 147.261 45.3741 147.35 45.0881 147.528C44.804 147.706 44.5777 147.969 44.4091 148.315C44.2424 148.662 44.1591 149.087 44.1591 149.591C44.1591 150.095 44.2424 150.52 44.4091 150.866C44.5777 151.213 44.804 151.475 45.0881 151.653C45.3741 151.831 45.6932 151.92 46.0455 151.92C46.2386 151.92 46.4242 151.894 46.6023 151.841C46.7803 151.788 46.9422 151.709 47.0881 151.605C47.2358 151.499 47.3608 151.369 47.4631 151.216C47.5672 151.061 47.6402 150.883 47.6818 150.682H48.3864C48.3333 150.979 48.2367 151.245 48.0966 151.48C47.9564 151.715 47.7822 151.915 47.5739 152.08C47.3655 152.242 47.1316 152.366 46.8722 152.452C46.6146 152.537 46.339 152.58 46.0455 152.58C45.5492 152.58 45.108 152.458 44.7216 152.216C44.3352 151.973 44.0313 151.629 43.8097 151.182C43.5881 150.735 43.4773 150.205 43.4773 149.591C43.4773 148.977 43.5881 148.447 43.8097 148C44.0313 147.553 44.3352 147.208 44.7216 146.966C45.108 146.723 45.5492 146.602 46.0455 146.602C46.339 146.602 46.6146 146.645 46.8722 146.73C47.1316 146.815 47.3655 146.94 47.5739 147.105C47.7822 147.268 47.9564 147.467 48.0966 147.702C48.2367 147.935 48.3333 148.201 48.3864 148.5ZM49.4339 152.5V148.136H50.0817V148.795H50.1271C50.2067 148.58 50.3506 148.404 50.5589 148.27C50.7673 148.135 51.0021 148.068 51.2635 148.068C51.3127 148.068 51.3743 148.069 51.4482 148.071C51.522 148.073 51.5779 148.076 51.6158 148.08V148.761C51.593 148.756 51.541 148.747 51.4595 148.736C51.38 148.723 51.2957 148.716 51.2067 148.716C50.9946 148.716 50.8052 148.76 50.6385 148.849C50.4737 148.937 50.343 149.058 50.2464 149.213C50.1518 149.366 50.1044 149.542 50.1044 149.739V152.5H49.4339ZM54.1072 152.591C53.6868 152.591 53.3241 152.498 53.0192 152.312C52.7161 152.125 52.4822 151.864 52.3175 151.528C52.1546 151.191 52.0732 150.799 52.0732 150.352C52.0732 149.905 52.1546 149.511 52.3175 149.17C52.4822 148.828 52.7114 148.561 53.005 148.369C53.3004 148.176 53.6451 148.08 54.0391 148.08C54.2663 148.08 54.4908 148.117 54.7124 148.193C54.9339 148.269 55.1357 148.392 55.3175 148.562C55.4993 148.731 55.6442 148.955 55.7521 149.233C55.8601 149.511 55.9141 149.854 55.9141 150.261V150.545H52.5504V149.966H55.2322C55.2322 149.72 55.183 149.5 55.0845 149.307C54.9879 149.114 54.8497 148.961 54.6697 148.849C54.4917 148.738 54.2815 148.682 54.0391 148.682C53.772 148.682 53.541 148.748 53.3459 148.881C53.1527 149.011 53.004 149.182 52.8999 149.392C52.7957 149.602 52.7436 149.828 52.7436 150.068V150.455C52.7436 150.784 52.8004 151.063 52.9141 151.293C53.0296 151.52 53.1896 151.693 53.3942 151.812C53.5987 151.93 53.8364 151.989 54.1072 151.989C54.2834 151.989 54.4425 151.964 54.5845 151.915C54.7285 151.864 54.8525 151.788 54.9567 151.688C55.0608 151.585 55.1413 151.458 55.1982 151.307L55.8459 151.489C55.7777 151.708 55.6631 151.902 55.5021 152.068C55.3411 152.233 55.1423 152.362 54.9055 152.455C54.6688 152.545 54.4027 152.591 54.1072 152.591ZM58.218 152.602C57.9415 152.602 57.6906 152.55 57.4652 152.446C57.2398 152.34 57.0608 152.188 56.9283 151.989C56.7957 151.788 56.7294 151.545 56.7294 151.261C56.7294 151.011 56.7786 150.809 56.8771 150.653C56.9756 150.496 57.1072 150.373 57.272 150.284C57.4368 150.195 57.6186 150.129 57.8175 150.085C58.0182 150.04 58.2199 150.004 58.4226 149.977C58.6877 149.943 58.9027 149.918 59.0675 149.901C59.2341 149.882 59.3554 149.85 59.4311 149.807C59.5088 149.763 59.5476 149.687 59.5476 149.58V149.557C59.5476 149.277 59.4709 149.059 59.3175 148.903C59.166 148.748 58.9358 148.67 58.6271 148.67C58.3071 148.67 58.0561 148.741 57.8743 148.881C57.6925 149.021 57.5646 149.17 57.4908 149.33L56.8544 149.102C56.968 148.837 57.1196 148.631 57.3089 148.483C57.5002 148.333 57.7086 148.229 57.9339 148.17C58.1612 148.11 58.3847 148.08 58.6044 148.08C58.7446 148.08 58.9055 148.097 59.0874 148.131C59.2711 148.163 59.4482 148.23 59.6186 148.332C59.791 148.435 59.9339 148.589 60.0476 148.795C60.1612 149.002 60.218 149.278 60.218 149.625V152.5H59.5476V151.909H59.5135C59.468 152.004 59.3923 152.105 59.2862 152.213C59.1802 152.321 59.0391 152.413 58.8629 152.489C58.6868 152.564 58.4718 152.602 58.218 152.602ZM58.3203 152C58.5855 152 58.8089 151.948 58.9908 151.844C59.1745 151.74 59.3127 151.605 59.4055 151.44C59.5002 151.276 59.5476 151.102 59.5476 150.92V150.307C59.5192 150.341 59.4567 150.372 59.3601 150.401C59.2654 150.427 59.1555 150.451 59.0305 150.472C58.9074 150.491 58.7872 150.508 58.6697 150.523C58.5542 150.536 58.4605 150.547 58.3885 150.557C58.2143 150.58 58.0514 150.616 57.8999 150.668C57.7502 150.717 57.629 150.792 57.5362 150.892C57.4453 150.991 57.3999 151.125 57.3999 151.295C57.3999 151.528 57.486 151.705 57.6584 151.824C57.8326 151.941 58.0533 152 58.3203 152ZM63.3395 148.136V148.705H61.0781V148.136H63.3395ZM61.7372 147.091H62.4077V151.25C62.4077 151.439 62.4351 151.581 62.4901 151.676C62.5469 151.769 62.6188 151.831 62.706 151.864C62.795 151.894 62.8887 151.909 62.9872 151.909C63.0611 151.909 63.1217 151.905 63.169 151.898C63.2164 151.888 63.2543 151.881 63.2827 151.875L63.419 152.477C63.3736 152.494 63.3101 152.511 63.2287 152.528C63.1473 152.547 63.044 152.557 62.919 152.557C62.7296 152.557 62.544 152.516 62.3622 152.435C62.1823 152.353 62.0327 152.229 61.9134 152.062C61.7959 151.896 61.7372 151.686 61.7372 151.432V147.091ZM64.348 152.5V148.136H65.0185V152.5H64.348ZM64.6889 147.409C64.5582 147.409 64.4455 147.365 64.3509 147.276C64.258 147.187 64.2116 147.08 64.2116 146.955C64.2116 146.83 64.258 146.723 64.3509 146.634C64.4455 146.545 64.5582 146.5 64.6889 146.5C64.8196 146.5 64.9313 146.545 65.0241 146.634C65.1188 146.723 65.1662 146.83 65.1662 146.955C65.1662 147.08 65.1188 147.187 65.0241 147.276C64.9313 147.365 64.8196 147.409 64.6889 147.409ZM66.9169 149.875V152.5H66.2464V148.136H66.8942V148.818H66.951C67.0533 148.597 67.2086 148.419 67.4169 148.284C67.6252 148.148 67.8942 148.08 68.2237 148.08C68.5192 148.08 68.7777 148.14 68.9993 148.261C69.2209 148.381 69.3932 148.562 69.5163 148.807C69.6394 149.049 69.701 149.356 69.701 149.727V152.5H69.0305V149.773C69.0305 149.43 68.9415 149.163 68.7635 148.972C68.5855 148.778 68.3411 148.682 68.0305 148.682C67.8165 148.682 67.6252 148.728 67.4567 148.821C67.29 148.914 67.1584 149.049 67.0618 149.227C66.9652 149.405 66.9169 149.621 66.9169 149.875ZM72.6875 154.227C72.3636 154.227 72.0852 154.186 71.8523 154.102C71.6193 154.021 71.4252 153.913 71.2699 153.778C71.1165 153.646 70.9943 153.504 70.9034 153.352L71.4375 152.977C71.4981 153.057 71.5748 153.148 71.6676 153.25C71.7604 153.354 71.8873 153.444 72.0483 153.52C72.2112 153.598 72.4242 153.636 72.6875 153.636C73.0398 153.636 73.3305 153.551 73.5597 153.381C73.7888 153.21 73.9034 152.943 73.9034 152.58V151.693H73.8466C73.7973 151.773 73.7273 151.871 73.6364 151.989C73.5473 152.104 73.4186 152.207 73.25 152.298C73.0833 152.387 72.858 152.432 72.5739 152.432C72.2216 152.432 71.9053 152.348 71.625 152.182C71.3466 152.015 71.1259 151.773 70.9631 151.455C70.8021 151.136 70.7216 150.75 70.7216 150.295C70.7216 149.848 70.8002 149.459 70.9574 149.128C71.1146 148.795 71.3333 148.537 71.6136 148.355C71.8939 148.171 72.2178 148.08 72.5852 148.08C72.8693 148.08 73.0947 148.127 73.2614 148.222C73.4299 148.314 73.5587 148.42 73.6477 148.54C73.7386 148.657 73.8087 148.754 73.858 148.83H73.9261V148.136H74.5739V152.625C74.5739 153 74.4886 153.305 74.3182 153.54C74.1496 153.777 73.9223 153.95 73.6364 154.06C73.3523 154.171 73.036 154.227 72.6875 154.227ZM72.6648 151.83C72.9337 151.83 73.161 151.768 73.3466 151.645C73.5322 151.522 73.6733 151.345 73.7699 151.114C73.8665 150.883 73.9148 150.606 73.9148 150.284C73.9148 149.97 73.8674 149.692 73.7727 149.452C73.678 149.211 73.5379 149.023 73.3523 148.886C73.1667 148.75 72.9375 148.682 72.6648 148.682C72.3807 148.682 72.1439 148.754 71.9545 148.898C71.767 149.042 71.6259 149.235 71.5312 149.477C71.4384 149.72 71.392 149.989 71.392 150.284C71.392 150.587 71.4394 150.855 71.5341 151.088C71.6307 151.319 71.7727 151.501 71.9602 151.634C72.1496 151.764 72.3845 151.83 72.6648 151.83ZM81.0284 154.136V151.83H80.9716C80.9223 151.909 80.8523 152.009 80.7614 152.131C80.6705 152.25 80.5407 152.357 80.3722 152.452C80.2036 152.545 79.9792 152.591 79.6989 152.591C79.3352 152.591 79.0142 152.499 78.7358 152.315C78.4574 152.13 78.2396 151.868 78.0824 151.531C77.9252 151.192 77.8466 150.792 77.8466 150.33C77.8466 149.871 77.9252 149.473 78.0824 149.136C78.2396 148.799 78.4583 148.539 78.7386 148.355C79.0189 148.171 79.3428 148.08 79.7102 148.08C79.9943 148.08 80.2188 148.127 80.3835 148.222C80.5502 148.314 80.6771 148.42 80.7642 148.54C80.8532 148.657 80.9223 148.754 80.9716 148.83H81.0511V148.136H81.6989V154.136H81.0284ZM79.7898 151.989C80.0587 151.989 80.286 151.919 80.4716 151.778C80.6572 151.636 80.7983 151.44 80.8949 151.19C80.9915 150.938 81.0398 150.648 81.0398 150.318C81.0398 149.992 80.9924 149.707 80.8977 149.463C80.803 149.217 80.6629 149.026 80.4773 148.889C80.2917 148.751 80.0625 148.682 79.7898 148.682C79.5057 148.682 79.2689 148.755 79.0795 148.901C78.892 149.045 78.7509 149.241 78.6562 149.489C78.5634 149.735 78.517 150.011 78.517 150.318C78.517 150.629 78.5644 150.911 78.6591 151.165C78.7557 151.417 78.8977 151.617 79.0852 151.767C79.2746 151.915 79.5095 151.989 79.7898 151.989ZM85.6761 150.716V148.136H86.3466V152.5H85.6761V151.761H85.6307C85.5284 151.983 85.3693 152.171 85.1534 152.327C84.9375 152.48 84.6648 152.557 84.3352 152.557C84.0625 152.557 83.8201 152.497 83.608 152.378C83.3958 152.257 83.2292 152.075 83.108 151.832C82.9867 151.588 82.9261 151.28 82.9261 150.909V148.136H83.5966V150.864C83.5966 151.182 83.6856 151.436 83.8636 151.625C84.0436 151.814 84.2727 151.909 84.5511 151.909C84.7178 151.909 84.8873 151.866 85.0597 151.781C85.2339 151.696 85.3797 151.565 85.4972 151.389C85.6165 151.213 85.6761 150.989 85.6761 150.716ZM89.4041 152.591C88.9837 152.591 88.621 152.498 88.3161 152.312C88.013 152.125 87.7791 151.864 87.6143 151.528C87.4515 151.191 87.37 150.799 87.37 150.352C87.37 149.905 87.4515 149.511 87.6143 149.17C87.7791 148.828 88.0083 148.561 88.3018 148.369C88.5973 148.176 88.942 148.08 89.3359 148.08C89.5632 148.08 89.7876 148.117 90.0092 148.193C90.2308 148.269 90.4325 148.392 90.6143 148.562C90.7962 148.731 90.9411 148.955 91.049 149.233C91.157 149.511 91.2109 149.854 91.2109 150.261V150.545H87.8473V149.966H90.5291C90.5291 149.72 90.4799 149.5 90.3814 149.307C90.2848 149.114 90.1465 148.961 89.9666 148.849C89.7886 148.738 89.5784 148.682 89.3359 148.682C89.0689 148.682 88.8378 148.748 88.6428 148.881C88.4496 149.011 88.3009 149.182 88.1967 149.392C88.0926 149.602 88.0405 149.828 88.0405 150.068V150.455C88.0405 150.784 88.0973 151.063 88.2109 151.293C88.3265 151.52 88.4865 151.693 88.6911 151.812C88.8956 151.93 89.1333 151.989 89.4041 151.989C89.5803 151.989 89.7393 151.964 89.8814 151.915C90.0253 151.864 90.1494 151.788 90.2536 151.688C90.3577 151.585 90.4382 151.458 90.495 151.307L91.1428 151.489C91.0746 151.708 90.96 151.902 90.799 152.068C90.638 152.233 90.4392 152.362 90.2024 152.455C89.9657 152.545 89.6996 152.591 89.4041 152.591ZM95.3217 149.114L94.7195 149.284C94.6816 149.184 94.6257 149.086 94.5518 148.991C94.4799 148.895 94.3814 148.815 94.2564 148.753C94.1314 148.69 93.9714 148.659 93.7763 148.659C93.5092 148.659 93.2867 148.721 93.1087 148.844C92.9325 148.965 92.8445 149.119 92.8445 149.307C92.8445 149.473 92.9051 149.605 93.0263 149.702C93.1475 149.798 93.3369 149.879 93.5945 149.943L94.2422 150.102C94.6323 150.197 94.9231 150.342 95.1143 150.537C95.3056 150.73 95.4013 150.979 95.4013 151.284C95.4013 151.534 95.3293 151.758 95.1854 151.955C95.0433 152.152 94.8445 152.307 94.5888 152.42C94.3331 152.534 94.0357 152.591 93.6967 152.591C93.2517 152.591 92.8833 152.494 92.5916 152.301C92.3 152.108 92.1153 151.826 92.0376 151.455L92.674 151.295C92.7346 151.53 92.8492 151.706 93.0178 151.824C93.1882 151.941 93.4107 152 93.6854 152C93.9979 152 94.246 151.934 94.4297 151.801C94.6153 151.667 94.7081 151.506 94.7081 151.318C94.7081 151.167 94.6551 151.04 94.549 150.938C94.4429 150.833 94.2801 150.756 94.0604 150.705L93.3331 150.534C92.9335 150.439 92.6399 150.293 92.4524 150.094C92.2668 149.893 92.174 149.642 92.174 149.341C92.174 149.095 92.2431 148.877 92.3814 148.688C92.5215 148.498 92.7119 148.349 92.9524 148.241C93.1948 148.134 93.4695 148.08 93.7763 148.08C94.2081 148.08 94.5471 148.174 94.7933 148.364C95.0414 148.553 95.2176 148.803 95.3217 149.114ZM98.3082 148.136V148.705H96.0469V148.136H98.3082ZM96.706 147.091H97.3764V151.25C97.3764 151.439 97.4039 151.581 97.4588 151.676C97.5156 151.769 97.5876 151.831 97.6747 151.864C97.7637 151.894 97.8575 151.909 97.956 151.909C98.0298 151.909 98.0904 151.905 98.1378 151.898C98.1851 151.888 98.223 151.881 98.2514 151.875L98.3878 152.477C98.3423 152.494 98.2789 152.511 98.1974 152.528C98.116 152.547 98.0128 152.557 97.8878 152.557C97.6984 152.557 97.5128 152.516 97.331 152.435C97.151 152.353 97.0014 152.229 96.8821 152.062C96.7647 151.896 96.706 151.686 96.706 151.432V147.091ZM99.3168 152.5V148.136H99.9872V152.5H99.3168ZM99.6577 147.409C99.527 147.409 99.4143 147.365 99.3196 147.276C99.2268 147.187 99.1804 147.08 99.1804 146.955C99.1804 146.83 99.2268 146.723 99.3196 146.634C99.4143 146.545 99.527 146.5 99.6577 146.5C99.7884 146.5 99.9001 146.545 99.9929 146.634C100.088 146.723 100.135 146.83 100.135 146.955C100.135 147.08 100.088 147.187 99.9929 147.276C99.9001 147.365 99.7884 147.409 99.6577 147.409ZM102.988 152.591C102.594 152.591 102.248 152.497 101.951 152.31C101.656 152.122 101.424 151.86 101.258 151.523C101.093 151.186 101.011 150.792 101.011 150.341C101.011 149.886 101.093 149.49 101.258 149.151C101.424 148.812 101.656 148.548 101.951 148.361C102.248 148.173 102.594 148.08 102.988 148.08C103.382 148.08 103.727 148.173 104.022 148.361C104.319 148.548 104.55 148.812 104.715 149.151C104.882 149.49 104.965 149.886 104.965 150.341C104.965 150.792 104.882 151.186 104.715 151.523C104.55 151.86 104.319 152.122 104.022 152.31C103.727 152.497 103.382 152.591 102.988 152.591ZM102.988 151.989C103.287 151.989 103.533 151.912 103.727 151.759C103.92 151.605 104.063 151.403 104.156 151.153C104.248 150.903 104.295 150.633 104.295 150.341C104.295 150.049 104.248 149.777 104.156 149.526C104.063 149.274 103.92 149.07 103.727 148.915C103.533 148.759 103.287 148.682 102.988 148.682C102.689 148.682 102.442 148.759 102.249 148.915C102.056 149.07 101.913 149.274 101.82 149.526C101.728 149.777 101.681 150.049 101.681 150.341C101.681 150.633 101.728 150.903 101.82 151.153C101.913 151.403 102.056 151.605 102.249 151.759C102.442 151.912 102.689 151.989 102.988 151.989ZM106.659 149.875V152.5H105.989V148.136H106.636V148.818H106.693C106.795 148.597 106.951 148.419 107.159 148.284C107.367 148.148 107.636 148.08 107.966 148.08C108.261 148.08 108.52 148.14 108.741 148.261C108.963 148.381 109.135 148.562 109.259 148.807C109.382 149.049 109.443 149.356 109.443 149.727V152.5H108.773V149.773C108.773 149.43 108.684 149.163 108.506 148.972C108.328 148.778 108.083 148.682 107.773 148.682C107.559 148.682 107.367 148.728 107.199 148.821C107.032 148.914 106.901 149.049 106.804 149.227C106.707 149.405 106.659 149.621 106.659 149.875ZM113.759 149.114L113.157 149.284C113.119 149.184 113.063 149.086 112.989 148.991C112.917 148.895 112.819 148.815 112.694 148.753C112.569 148.69 112.409 148.659 112.214 148.659C111.947 148.659 111.724 148.721 111.546 148.844C111.37 148.965 111.282 149.119 111.282 149.307C111.282 149.473 111.343 149.605 111.464 149.702C111.585 149.798 111.774 149.879 112.032 149.943L112.68 150.102C113.07 150.197 113.361 150.342 113.552 150.537C113.743 150.73 113.839 150.979 113.839 151.284C113.839 151.534 113.767 151.758 113.623 151.955C113.481 152.152 113.282 152.307 113.026 152.42C112.771 152.534 112.473 152.591 112.134 152.591C111.689 152.591 111.321 152.494 111.029 152.301C110.737 152.108 110.553 151.826 110.475 151.455L111.112 151.295C111.172 151.53 111.287 151.706 111.455 151.824C111.626 151.941 111.848 152 112.123 152C112.435 152 112.683 151.934 112.867 151.801C113.053 151.667 113.146 151.506 113.146 151.318C113.146 151.167 113.093 151.04 112.987 150.938C112.88 150.833 112.718 150.756 112.498 150.705L111.771 150.534C111.371 150.439 111.077 150.293 110.89 150.094C110.704 149.893 110.612 149.642 110.612 149.341C110.612 149.095 110.681 148.877 110.819 148.688C110.959 148.498 111.149 148.349 111.39 148.241C111.632 148.134 111.907 148.08 112.214 148.08C112.646 148.08 112.985 148.174 113.231 148.364C113.479 148.553 113.655 148.803 113.759 149.114Z" fill="#C9C9C9"/>
<rect x="43.5" y="157.5" width="479" height="14" rx="2.5" stroke="#222222"/>
<path d="M533 181H33V183H533V181Z" fill="#222222" mask="url(#path-14-inside-3_1170_57)"/>
</g>
</g>
<rect x="33.5" y="21.5" width="499" height="207.5" rx="9.5" stroke="#222222"/>
</g>
</g>
<defs>
<filter id="filter0_d_1170_57" x="25" y="13" width="516" height="224.5" filterUnits="userSpaceOnUse" color-interpolation-filters="sRGB">
<feFlood flood-opacity="0" result="BackgroundImageFix"/>
<feColorMatrix in="SourceAlpha" type="matrix" values="0 0 0 0 0 0 0 0 0 0 0 0 0 0 0 0 0 0 127 0" result="hardAlpha"/>
<feMorphology radius="4" operator="dilate" in="SourceAlpha" result="effect1_dropShadow_1170_57"/>
<feOffset/>
<feGaussianBlur stdDeviation="2"/>
<feComposite in2="hardAlpha" operator="out"/>
<feColorMatrix type="matrix" values="0 0 0 0 0.788235 0 0 0 0 0.788235 0 0 0 0 0.788235 0 0 0 0.25 0"/>
<feBlend mode="normal" in2="BackgroundImageFix" result="effect1_dropShadow_1170_57"/>
<feBlend mode="normal" in="SourceGraphic" in2="effect1_dropShadow_1170_57" result="shape"/>
</filter>
<clipPath id="clip0_1170_57">
<rect width="430" height="164" rx="3" fill="white"/>
</clipPath>
<clipPath id="clip1_1170_57">
<rect x="33" y="21" width="500" height="208.5" rx="10" fill="white"/>
</clipPath>
<clipPath id="clip2_1170_57">
<rect width="500" height="142.5" fill="white" transform="translate(33 87)"/>
</clipPath>
<clipPath id="clip3_1170_57">
<rect x="43" y="109.5" width="480" height="15" rx="3" fill="white"/>
</clipPath>
</defs>
</svg>
