<svg width="24" height="24" viewBox="0 0 24 24" fill="none" xmlns="http://www.w3.org/2000/svg">
<path opacity="0.12" d="M2.57389 4.72907C2.39241 4.18231 2.30168 3.90893 2.36772 3.74054C2.42508 3.5943 2.54783 3.48351 2.69917 3.4414C2.87343 3.39291 3.1361 3.51111 3.66145 3.74752L20.3787 11.2703C20.8931 11.5017 21.1502 11.6175 21.2297 11.7782C21.2988 11.9179 21.2988 12.0818 21.2297 12.2214C21.1502 12.3822 20.8931 12.4979 20.3787 12.7294L3.66727 20.2495C3.14034 20.4867 2.87687 20.6052 2.70244 20.5565C2.55095 20.5143 2.42819 20.4032 2.37103 20.2567C2.30521 20.0879 2.39693 19.814 2.58036 19.266L4.91528 12.2913C4.94669 12.1975 4.9624 12.1506 4.96867 12.1026C4.97424 12.06 4.9743 12.0169 4.96884 11.9742C4.96269 11.9262 4.9471 11.8793 4.91593 11.7854L2.57389 4.72907Z" fill="black"/>
<path d="M10.4999 11.9998H4.99994M4.91528 12.2913L2.58036 19.266C2.39693 19.814 2.30521 20.0879 2.37103 20.2567C2.42819 20.4032 2.55095 20.5143 2.70244 20.5565C2.87687 20.6052 3.14034 20.4867 3.66727 20.2495L20.3787 12.7294C20.8931 12.4979 21.1502 12.3822 21.2297 12.2214C21.2988 12.0818 21.2988 11.9179 21.2297 11.7782C21.1502 11.6175 20.8931 11.5017 20.3787 11.2703L3.66145 3.74752C3.1361 3.51111 2.87343 3.39291 2.69917 3.4414C2.54783 3.48351 2.42508 3.5943 2.36772 3.74054C2.30168 3.90893 2.39241 4.18231 2.57389 4.72907L4.91593 11.7854C4.9471 11.8793 4.96269 11.9262 4.96884 11.9742C4.9743 12.0169 4.97424 12.06 4.96867 12.1026C4.9624 12.1506 4.94669 12.1975 4.91528 12.2913Z" stroke="black" stroke-width="2" stroke-linecap="round" stroke-linejoin="round"/>
</svg>
